<svg xmlns="http://www.w3.org/2000/svg" width="11.727" height="11.727" viewBox="0 0 11.727 11.727">
  <path id="icons8_calendar" d="M6,8.606V8.117A2.12,2.12,0,0,1,8.117,6h7.492a2.12,2.12,0,0,1,2.117,2.117v.489Zm11.727.977v6.026a2.12,2.12,0,0,1-2.117,2.117H8.117A2.12,2.12,0,0,1,6,15.609V9.583Zm-3.095,6.189a.814.814,0,1,0-.814-.814A.814.814,0,0,0,14.632,15.772Zm0-2.932a.814.814,0,1,0-.814-.814A.814.814,0,0,0,14.632,12.841Zm-2.769,2.932a.814.814,0,1,0-.814-.814A.814.814,0,0,0,11.863,15.772Zm0-2.932a.814.814,0,1,0-.814-.814A.814.814,0,0,0,11.863,12.841Zm-2.769,0a.814.814,0,1,0-.814-.814A.814.814,0,0,0,9.095,12.841Z" transform="translate(-6 -6)" fill="#58595b"/>
</svg>
