<svg xmlns="http://www.w3.org/2000/svg" width="15.867" height="18.447" viewBox="0 0 15.867 18.447">
  <path id="icons8_call_transfer" d="M32.434,4.215a2.712,2.712,0,0,0-2.158.938C28.75,6.883,28,9.274,28,12.951s.773,6.161,2.3,7.891a2.684,2.684,0,0,0,2.5.9l.914-.174a1.7,1.7,0,0,0,1.344-1.873l-.174-1.807a1.911,1.911,0,0,0-1.381-1.66l-1.886-.549a7.55,7.55,0,0,1-.525-2.726,7.044,7.044,0,0,1,.5-2.632l1.886-.549A1.911,1.911,0,0,0,34.86,8.11L35.034,6.3A1.7,1.7,0,0,0,33.69,4.43l-.914-.174A2.505,2.505,0,0,0,32.434,4.215Z" transform="matrix(-0.819, -0.574, 0.574, -0.819, 26.309, 37.957)" fill="#58595b"/>
</svg>
