<svg id="chicken" xmlns="http://www.w3.org/2000/svg" width="80" height="91.226" viewBox="0 0 80 91.226">
  <path id="Path_30555" data-name="Path 30555" d="M54.547,106.93a10.436,10.436,0,0,0-1.376.318l-.987-1.509.527-11.895-6.174-.509,1.571,12.633-2.793,1.346A1.093,1.093,0,0,0,46,109.359a34.227,34.227,0,0,1,4.1-.292c.457,0-.585,1.015.317,1.673h4.131Z" transform="translate(-18.359 -26.977)" fill="#e8c79c"/>
  <path id="Path_30556" data-name="Path 30556" d="M54.254,111.154H50.124a.708.708,0,0,1-.418-.136,1.533,1.533,0,0,1-.654-1.52,31.885,31.885,0,0,0-3.226.266,1.8,1.8,0,0,1-1.133-3.373l2.354-1.133L45.539,93.131a.708.708,0,0,1,.761-.793l6.175.509a.708.708,0,0,1,.652.738l-.516,11.667.579.887c.232-.056.543-.123.94-.2a.708.708,0,0,1,.834.7v3.806a.708.708,0,0,1-.71.707Zm-3.8-1.416h3.1v-2.229c-.3.071-.436.118-.438.118a.712.712,0,0,1-.822-.283l-.988-1.506a.712.712,0,0,1-.115-.419l.5-11.213-4.626-.382,1.464,11.767a.708.708,0,0,1-.4.726l-2.793,1.346a.375.375,0,0,0-.188.331.38.38,0,0,0,.135.293.387.387,0,0,0,.315.086,34.916,34.916,0,0,1,4.215-.3.822.822,0,0,1,.676.33,1.023,1.023,0,0,1,.052.978,1.259,1.259,0,0,0-.084.36Z" transform="translate(-18.065 -26.685)" fill="#2f3a5a"/>
  <path id="Path_30557" data-name="Path 30557" d="M69.1,113.459c-2.824-1.461-8.309-2.52-8.309-2.52s7.578-1.242,7.46-1.94-.916-1.133-4.857-.853c-1.317.093-2.345.212-3.123.334a4.879,4.879,0,0,1-3.8-1.033L57.815,95.5l-6.174-.509,1.571,12.632-2.762,1.855a1.1,1.1,0,0,0-.5,1.416,1.122,1.122,0,0,0,1.227.625,10.116,10.116,0,0,1,2.21-.227c1.508,0,6.469,4.794,8.061,6.374a1.1,1.1,0,0,0,1.35.154,1.113,1.113,0,0,0,.2-1.724,24.077,24.077,0,0,0-3.383-2.881c1.918-.443,7.372.986,9.014,1.438a.644.644,0,0,0,.474-1.188Z" transform="translate(-19.863 -27.459)" fill="#e8c79c"/>
  <path id="Path_30558" data-name="Path 30558" d="M61.922,118.393a1.8,1.8,0,0,1-1.269-.521c-4.085-4.047-6.9-6.171-7.563-6.171a8.4,8.4,0,0,0-1.814.17l-.278.047a1.835,1.835,0,0,1-2-1.047,1.8,1.8,0,0,1,.783-2.3l2.374-1.593-1.517-12.2a.708.708,0,0,1,.761-.793l6.174.508a.708.708,0,0,1,.646.785l-1.3,11.543a4.178,4.178,0,0,0,2.947.66c.938-.142,2.008-.258,3.18-.341,3.439-.241,5.351-.084,5.6,1.444a.832.832,0,0,1-.151.624c-.137.191-.5.7-4.508,1.518a27.366,27.366,0,0,1,5.135,1.807,1.352,1.352,0,0,1-.988,2.5,48.649,48.649,0,0,0-6.753-1.426,18.258,18.258,0,0,1,1.833,1.708,1.886,1.886,0,0,1,.484,1.542,1.775,1.775,0,0,1-.842,1.266,1.824,1.824,0,0,1-.946.263Zm-8.832-8.108c1.275,0,4.157,2.213,8.559,6.578a.392.392,0,0,0,.485.05.348.348,0,0,0,.174-.256.475.475,0,0,0-.13-.385,23.522,23.522,0,0,0-3.264-2.777.708.708,0,0,1,.246-1.271c1.833-.425,6.253.618,8.666,1.258a44.459,44.459,0,0,0-7.461-2.142.708.708,0,0,1,.019-1.394,57.33,57.33,0,0,0,6.381-1.356,14.652,14.652,0,0,0-3.612-.033c-1.133.079-2.166.19-3.066.327a5.6,5.6,0,0,1-4.355-1.181.708.708,0,0,1-.259-.63l1.26-11.22-4.578-.377,1.464,11.766a.708.708,0,0,1-.308.676l-2.762,1.855a.757.757,0,0,1-.071.04.389.389,0,0,0-.171.51.425.425,0,0,0,.457.2l.273-.047A9.69,9.69,0,0,1,53.09,110.285Z" transform="translate(-19.568 -27.167)" fill="#2f3a5a"/>
  <path id="Path_30559" data-name="Path 30559" d="M100.153,7.809s-1.363-3.5-1.133-4.7,1.83-1.6,2.63,0A2.914,2.914,0,0,0,103.138.552a5.546,5.546,0,0,1,1.544,3.209s1.6-1,1.487-1.956a18.569,18.569,0,0,1,.4,3.811s1.637-.5,1.762-1.4a4.1,4.1,0,0,1,.7,3.711,2.506,2.506,0,0,0-.194,1.129s2.219,2.408.708,4.574Z" transform="translate(-34.226 0.158)" fill="#ef5361"/>
  <path id="Path_30560" data-name="Path 30560" d="M109.251,14.041a.7.7,0,0,1-.372-.106L99.491,8.118a.708.708,0,0,1-.287-.345c-.24-.615-1.425-3.753-1.171-5.09a1.983,1.983,0,0,1,1.649-1.616,2.1,2.1,0,0,1,1.841.734,2.042,2.042,0,0,0,.613-1.52A.708.708,0,0,1,103.3-.286a5.665,5.665,0,0,1,1.506,2.5c.235-.25.383-.485.367-.62a.708.708,0,0,1,1.393-.246,18.555,18.555,0,0,1,.386,2.877c.22-.147.37-.3.386-.4a.708.708,0,0,1,1.239-.364,4.8,4.8,0,0,1,.834,4.391,3.848,3.848,0,0,0-.158.654c.879,1.085,1.933,3.3.581,5.241a.708.708,0,0,1-.581.3Zm-8.811-7,8.529,5.284c.472-1.518-.933-3.068-.949-3.086a.708.708,0,0,1-.168-.316,3,3,0,0,1,.209-1.508,3.222,3.222,0,0,0-.081-2.184,4.764,4.764,0,0,1-1.5.77.708.708,0,0,1-.916-.677c0-.646-.04-1.256-.093-1.785a5.948,5.948,0,0,1-.708.529.708.708,0,0,1-1.074-.477,6.373,6.373,0,0,0-.524-1.661,3.854,3.854,0,0,1-1.487,1.514.708.708,0,0,1-.96-.312c-.227-.456-.544-.7-.85-.662a.559.559,0,0,0-.452.478,13,13,0,0,0,1.018,4.092Z" transform="translate(-33.936 0.45)" fill="#2f3a5a"/>
  <path id="Path_30561" data-name="Path 30561" d="M87.057,22.282a10.247,10.247,0,0,0-5.081-2.712,5.658,5.658,0,0,0-1.3-.2,4.705,4.705,0,0,0-4.126,2.117l1.684,6.99c4.225,15.821-4.374,25.65-4.374,25.65-3.914,4.3-18.188,11.062-18.188,11.062-2.307,3.144-10.439,9.291-10.439,9.291H40.708S28.429,67.57,25.2,63.654s-3.22-13.215-3.22-13.215c-9.675-5.758-7.445-17.889-7.445-17.889s-5.223-5.531-5.909-8.6,1.614-3.229,1.614-3.229c-.538-3.456,1.3-4.377,1.3-4.377-.3-3.3,1.614-4.072,1.614-4.072C25.591,11.659,29.116,24.1,29.116,24.1c6.681,0,7.834,2.762,12.053,3.222s12.668-.46,12.668-.46,11.741-12.9,18.111-15.438c4.8-1.912,9.115,1.933,10.956,3.945a14.543,14.543,0,0,1,.941,1.126c1.827,1.664,3.137,5.545,3.213,5.786Z" transform="translate(-7.767 -2.864)" fill="#d9e2e9"/>
  <path id="Path_30562" data-name="Path 30562" d="M82.994,28.046H81.96l.2.823c4.228,15.8-4.377,25.621-4.377,25.621-3.916,4.294-18.2,11.049-18.2,11.049-1.567,2.132-5.821,5.647-8.391,7.684a7.422,7.422,0,0,1-8.353.577c-3.5-2.057-11.211-6.761-13.715-9.754a12.358,12.358,0,0,0,2.11,4.563c3.229,3.912,15.516,10.816,15.516,10.816h4.532s8.136-6.139,10.446-9.281c0,0,14.284-6.755,18.2-11.049,0,0,8.6-9.818,4.377-25.621Z" transform="translate(-13.837 -7.866)" fill="#c1cdd3"/>
  <path id="Path_30563" data-name="Path 30563" d="M44.937,74.9H40.408a.707.707,0,0,1-.347-.091c-.506-.283-12.431-7.022-15.705-10.995-2.992-3.638-3.337-11.393-3.377-13.264-8.662-5.437-7.764-15.974-7.491-18.059-1.053-1.147-5.21-5.807-5.852-8.683a3.626,3.626,0,0,1,.4-3.06,2.567,2.567,0,0,1,1.122-.85,4.676,4.676,0,0,1,1.345-4.19c-.154-3.445,1.988-4.349,2.082-4.387a.717.717,0,0,1,.229-.05c11.38-.553,15.646,9.441,16.5,11.839a16.449,16.449,0,0,1,7.607,1.9,11.625,11.625,0,0,0,4.016,1.317c3.689.4,10.8-.283,12.251-.433,1.573-1.71,12.1-13,18.189-15.42,5.27-2.1,9.966,2.185,11.739,4.124.5.552.834.977.948,1.128,1.982,1.856,3.3,5.872,3.358,6.043a.708.708,0,0,1-1.2.686A9.711,9.711,0,0,0,81.5,19.962a4.944,4.944,0,0,0-1.137-.174,4.015,4.015,0,0,0-3.338,1.552l1.609,6.682C82.9,44.006,74.462,53.891,74.1,54.3,70.31,58.47,57.5,64.671,55.842,65.464c-2.469,3.224-10.144,9.042-10.474,9.291a.707.707,0,0,1-.43.144Zm-4.343-1.416h4.1c1.225-.938,8.079-6.238,10.108-9a.7.7,0,0,1,.268-.221c.142-.067,14.194-6.753,17.968-10.9.071-.085,8.284-9.748,4.214-24.991l-1.689-7.007a.709.709,0,0,1,.077-.525,5.429,5.429,0,0,1,4.764-2.467,6.4,6.4,0,0,1,1.453.222,14.346,14.346,0,0,1,3.29,1.308,10.739,10.739,0,0,0-2.085-3.175.712.712,0,0,1-.095-.106,13.115,13.115,0,0,0-.892-1.062c-1.957-2.139-5.881-5.474-10.171-3.765-6.147,2.444-17.733,15.128-17.85,15.255a.708.708,0,0,1-.447.227c-.348.038-8.57.925-12.821.46a12.929,12.929,0,0,1-4.469-1.446,15.164,15.164,0,0,0-7.506-1.77.708.708,0,0,1-.681-.514c-.142-.484-3.506-11.782-15.094-11.327-.3.182-1.309.976-1.093,3.307a.708.708,0,0,1-.389.7c-.044.025-1.362.793-.92,3.634a.708.708,0,0,1-.652.815,1.25,1.25,0,0,0-.821.476,2.39,2.39,0,0,0-.15,1.891c.528,2.365,4.317,6.774,5.733,8.274a.708.708,0,0,1,.182.614c-.021.117-2.016,11.721,7.111,17.153a.708.708,0,0,1,.346.608c0,.09.039,9.091,3.059,12.764,2.913,3.533,13.7,9.745,15.148,10.57Z" transform="translate(-7.466 -2.573)" fill="#2f3a5a"/>
  <path id="Path_30564" data-name="Path 30564" d="M106.729,21.693a3.653,3.653,0,0,0-3.558,0,2.171,2.171,0,0,0-1.133,1.5c-.354,2.006.952,6.318,4.162,5.867s1.8-6.682,1.8-6.682Z" transform="translate(-35.098 -5.888)" fill="#ef5361"/>
  <path id="Path_30565" data-name="Path 30565" d="M105.457,29.509a3.683,3.683,0,0,1-2.7-1.189,7.082,7.082,0,0,1-1.7-5.541,2.87,2.87,0,0,1,1.47-1.986,4.374,4.374,0,0,1,4.249-.013l1.275.683a.708.708,0,0,1,.354.468c.1.437.921,4.326-.478,6.357a2.734,2.734,0,0,1-1.912,1.183A4,4,0,0,1,105.457,29.509Zm-.83-7.861a2.73,2.73,0,0,0-1.384.365,1.462,1.462,0,0,0-.791,1.009,5.78,5.78,0,0,0,1.325,4.311,2.249,2.249,0,0,0,2.041.732,1.3,1.3,0,0,0,.946-.584c.813-1.176.552-3.717.326-4.929l-.982-.525a3.142,3.142,0,0,0-1.482-.377Z" transform="translate(-34.813 -5.597)" fill="#2f3a5a"/>
  <path id="Path_30566" data-name="Path 30566" d="M73.285,50.136s-2.971,11.54-15.058,14.239a2.372,2.372,0,0,1-2.8-1.734l-.148-.576L51.988,63.7A2.375,2.375,0,0,1,48.8,62.627l-.532-1.074-3.227,1.694A2.375,2.375,0,0,1,41.6,61.553l-3.867,1.154a2.375,2.375,0,0,1-3.054-2.245l-.006-.521h-.9a2.375,2.375,0,0,1-2.1-3.476l.828-1.582" transform="translate(-14.471 -14.339)" fill="#d9e2e9"/>
  <path id="Path_30567" data-name="Path 30567" d="M57.412,64.85a3.063,3.063,0,0,1-2.887-2.057L52.01,64.043a3.083,3.083,0,0,1-4.136-1.394l-.212-.425-2.584,1.357a3.087,3.087,0,0,1-4.236-1.44l-3.2.955a3.083,3.083,0,0,1-3.957-2.737h-.212a3.083,3.083,0,0,1-2.731-4.512l.828-1.582a.708.708,0,1,1,1.254.657L32,56.5a1.666,1.666,0,0,0,1.477,2.439h.9a.708.708,0,0,1,.708.7l.007.521a1.667,1.667,0,0,0,2.142,1.576l3.87-1.156a.708.708,0,0,1,.9.557,1.667,1.667,0,0,0,2.414,1.188l3.227-1.694a.708.708,0,0,1,.964.312l.532,1.074a1.666,1.666,0,0,0,2.235.754l3.289-1.634a.708.708,0,0,1,1,.458l.147.576a1.675,1.675,0,0,0,1.962,1.218c11.507-2.569,14.5-13.613,14.529-13.725a.708.708,0,0,1,1.372.354c-.031.119-3.222,11.992-15.59,14.754a3.108,3.108,0,0,1-.676.075Z" transform="translate(-14.178 -14.047)" fill="#2f3a5a"/>
  <path id="Path_30568" data-name="Path 30568" d="M39.92,54.395s-.794,4.146,4.146,2.47" transform="translate(-16.938 -15.58)" fill="#d9e2e9"/>
  <path id="Path_30569" data-name="Path 30569" d="M41.734,57.678a2.851,2.851,0,0,1-1.939-.643,3.513,3.513,0,0,1-.863-3.066.708.708,0,1,1,1.392.263c0,.022-.2,1.216.4,1.736.477.412,1.479.387,2.819-.067A.708.708,0,1,1,44,57.243a7.184,7.184,0,0,1-2.268.435Z" transform="translate(-16.647 -15.288)" fill="#2f3a5a"/>
  <path id="Path_30570" data-name="Path 30570" d="M52.345,55.8s-.794,4.146,4.146,2.47" transform="translate(-20.57 -15.99)" fill="#d9e2e9"/>
  <path id="Path_30571" data-name="Path 30571" d="M54.159,59.078a2.851,2.851,0,0,1-1.939-.643,3.513,3.513,0,0,1-.863-3.066.708.708,0,1,1,1.392.263c0,.022-.2,1.216.4,1.736.478.412,1.479.387,2.819-.067a.708.708,0,1,1,.455,1.341,7.184,7.184,0,0,1-2.268.435Z" transform="translate(-20.279 -15.697)" fill="#2f3a5a"/>
  <path id="Path_30572" data-name="Path 30572" d="M67.7,55.8s-.793,4.146,4.147,2.47" transform="translate(-25.058 -15.99)" fill="#d9e2e9"/>
  <path id="Path_30573" data-name="Path 30573" d="M69.516,59.078a2.851,2.851,0,0,1-1.939-.643,3.513,3.513,0,0,1-.863-3.066.708.708,0,1,1,1.392.263c0,.022-.2,1.216.4,1.736.478.412,1.479.387,2.819-.067a.708.708,0,0,1,.455,1.341A7.184,7.184,0,0,1,69.516,59.078Z" transform="translate(-24.768 -15.697)" fill="#2f3a5a"/>
  <ellipse id="Ellipse_990" data-name="Ellipse 990" cx="1.207" cy="1.207" rx="1.207" ry="1.207" transform="translate(66.51 10.995)" fill="#e8c79c"/>
  <path id="Path_30574" data-name="Path 30574" d="M102.369,17.907A1.912,1.912,0,1,1,104.281,16,1.912,1.912,0,0,1,102.369,17.907Zm0-2.413a.5.5,0,1,0,.5.5A.5.5,0,0,0,102.369,15.494Z" transform="translate(-34.653 -3.791)" fill="#2f3a5a"/>
  <path id="Path_30575" data-name="Path 30575" d="M116.868,24.121a10.255,10.255,0,0,0-5.085-2.712,5.665,5.665,0,0,0-1.3-.2l-.007-.007,2.231-3.994a14.538,14.538,0,0,1,.942,1.126C115.481,20,116.791,23.88,116.868,24.121Z" transform="translate(-37.578 -4.703)" fill="#e8c79c"/>
  <g id="Group_50575" data-name="Group 50575" transform="translate(1.767 11.798)">
    <path id="Path_30576" data-name="Path 30576" d="M116.577,24.537a.708.708,0,0,1-.532-.241,9.719,9.719,0,0,0-4.736-2.5,4.95,4.95,0,0,0-1.137-.174.708.708,0,0,1-.451-.184.72.72,0,0,1-.149-.876l2.231-3.994a.708.708,0,0,1,1.141-.132c.5.552.834.977.948,1.128,1.983,1.856,3.3,5.872,3.36,6.043a.708.708,0,0,1-.673.927Zm-5.261-4.191q.181.038.363.088a14.36,14.36,0,0,1,3.292,1.308,10.739,10.739,0,0,0-2.086-3.175.712.712,0,0,1-.095-.106s-.087-.118-.246-.314Z" transform="translate(-39.055 -16.21)" fill="#2f3a5a"/>
    <path id="Path_30577" data-name="Path 30577" d="M22.935,26.484a.708.708,0,0,1-.625-.373c-4.437-8.253-9.428-7.216-9.638-7.168a.708.708,0,1,1-.332-1.377c.254-.063,6.232-1.4,11.218,7.875a.708.708,0,0,1-.623,1.044Z" transform="translate(-10.497 -16.576)" fill="#2f3a5a"/>
    <path id="Path_30578" data-name="Path 30578" d="M18.062,31.215a.708.708,0,0,1-.637-.392,10.7,10.7,0,0,0-6.888-5.661.708.708,0,1,1,.266-1.392,12.011,12.011,0,0,1,7.889,6.419.708.708,0,0,1-.633,1.025Z" transform="translate(-9.961 -18.412)" fill="#2f3a5a"/>
  </g>
</svg>
