<svg xmlns="http://www.w3.org/2000/svg" width="800.023" height="724.142" viewBox="0 0 800.023 724.142">
  <g id="Contact_Us_Illustration" data-name="Contact Us Illustration" transform="translate(-139.977 -4572)">
    <circle id="Oval_Copy_2" data-name="Oval Copy 2" cx="7.5" cy="7.5" r="7.5" transform="translate(910.418 5028.333)" fill="#cccccd"/>
    <g id="Illust" transform="translate(9.191 4286.333)">
      <circle id="Ellipse_975" data-name="Ellipse 975" cx="314.607" cy="314.607" r="314.607" transform="translate(220.467 369.036)" fill="#fbfbfb"/>
      <g id="Group_50382" data-name="Group 50382" transform="translate(-925.529 466.501)">
        <g id="Group_50352" data-name="Group 50352" transform="translate(1056.338 217.142)">
          <g id="Group_50333" data-name="Group 50333" transform="translate(63.473 53.04)">
            <path id="Path_29745" data-name="Path 29745" d="M1338.818,426.813s-66.125,98.072,0,241.466l34.276-4.434s-72.911-104.783-28.87-225.888Z" transform="translate(-1308.982 -426.813)" fill="#6e9a20"/>
            <g id="Group_50332" data-name="Group 50332" transform="translate(0 39.672)">
              <g id="Group_50321" data-name="Group 50321" transform="translate(11.773)">
                <path id="Path_29746" data-name="Path 29746" d="M1354.578,584.757a22.68,22.68,0,0,0,8.1,1.44c.764-.007,1-1.265.188-1.385-1.291-.192-2.6-.209-3.895-.358-1.427-.164-2.841-.488-4.275-.557-.534-.025-.54.688-.117.861Z" transform="translate(-1354.276 -583.895)" fill="#846a5b"/>
              </g>
              <g id="Group_50322" data-name="Group 50322" transform="translate(13.56 25.415)">
                <path id="Path_29747" data-name="Path 29747" d="M1361.672,685.772a18.83,18.83,0,0,0,4.271.42,6.591,6.591,0,0,0,3.578-.417.675.675,0,0,0-.339-1.249c-1.279.1-2.5.223-3.793.209a16.108,16.108,0,0,0-3.717.169.453.453,0,0,0,0,.868Z" transform="translate(-1361.351 -684.524)" fill="#846a5b"/>
              </g>
              <g id="Group_50323" data-name="Group 50323" transform="translate(2.435 39.08)">
                <path id="Path_29748" data-name="Path 29748" d="M1317.532,739.509c2.41,1.292,6.11,1.545,8.784,1.266a.781.781,0,0,0,0-1.561c-1.435-.093-2.869-.05-4.3-.185a32.269,32.269,0,0,0-4.245-.391.471.471,0,0,0-.236.871Z" transform="translate(-1317.303 -738.632)" fill="#846a5b"/>
              </g>
              <g id="Group_50324" data-name="Group 50324" transform="translate(13.878 56.186)">
                <path id="Path_29749" data-name="Path 29749" d="M1363.011,807.751a14.382,14.382,0,0,0,7.245.217c1.058-.193.593-1.749-.44-1.6a58.475,58.475,0,0,1-6.654.255.575.575,0,0,0-.151,1.123Z" transform="translate(-1362.608 -806.362)" fill="#846a5b"/>
              </g>
              <g id="Group_50325" data-name="Group 50325" transform="translate(0 74.018)">
                <path id="Path_29750" data-name="Path 29750" d="M1307.983,878.373a11.594,11.594,0,0,0,8.8-.213.643.643,0,0,0-.322-1.19c-1.4.037-2.753.473-4.159.546s-2.8-.087-4.2-.056a.467.467,0,0,0-.124.912Z" transform="translate(-1307.66 -876.97)" fill="#846a5b"/>
              </g>
              <g id="Group_50326" data-name="Group 50326" transform="translate(15.145 82.528)">
                <path id="Path_29751" data-name="Path 29751" d="M1368.2,913.31c2.259.268,5.512-.116,7.435-1.393.495-.329.377-1.339-.338-1.249-1.174.147-2.28.622-3.441.871-1.261.27-2.544.4-3.81.632-.7.13-.439,1.07.154,1.14Z" transform="translate(-1367.627 -910.662)" fill="#846a5b"/>
              </g>
              <g id="Group_50327" data-name="Group 50327" transform="translate(6.438 104.231)">
                <path id="Path_29752" data-name="Path 29752" d="M1333.7,999.073a15.877,15.877,0,0,0,8.891-1.263c.7-.38.184-1.315-.508-1.2-1.327.214-2.6.691-3.931.923a38.839,38.839,0,0,1-4.452.4.572.572,0,0,0,0,1.143Z" transform="translate(-1333.152 -996.597)" fill="#846a5b"/>
              </g>
              <g id="Group_50328" data-name="Group 50328" transform="translate(17.987 112.51)">
                <path id="Path_29753" data-name="Path 29753" d="M1379.405,1033.825a19.135,19.135,0,0,0,9.656-3.121.718.718,0,0,0-.724-1.238,42.23,42.23,0,0,1-9.075,3.3.542.542,0,0,0,.143,1.06Z" transform="translate(-1378.879 -1029.375)" fill="#846a5b"/>
              </g>
              <g id="Group_50329" data-name="Group 50329" transform="translate(6.911 136.083)">
                <path id="Path_29754" data-name="Path 29754" d="M1335.207,1124.434c2.278,1.168,6.261.593,8.5-.472.579-.275.318-1.32-.337-1.244-1.425.167-2.8.562-4.236.711a22.423,22.423,0,0,0-3.836.322.378.378,0,0,0-.09.684Z" transform="translate(-1335.025 -1122.714)" fill="#846a5b"/>
              </g>
              <g id="Group_50330" data-name="Group 50330" transform="translate(27.006 143.577)">
                <path id="Path_29755" data-name="Path 29755" d="M1415.111,1156.519a16.286,16.286,0,0,0,9.848-2.874.688.688,0,0,0-.694-1.188,43.24,43.24,0,0,1-4.719,2.028c-1.506.458-3.045.654-4.576.99-.612.135-.431,1.006.141,1.043Z" transform="translate(-1414.589 -1152.384)" fill="#846a5b"/>
              </g>
              <g id="Group_50331" data-name="Group 50331" transform="translate(13.813 159.298)">
                <path id="Path_29756" data-name="Path 29756" d="M1362.655,1218.143c3.468.583,8.16-.58,11.263-2.135.764-.383.225-1.56-.57-1.352-1.785.466-3.5,1.151-5.3,1.576-1.78.42-3.65.53-5.39,1.089-.367.118-.443.748,0,.823Z" transform="translate(-1362.351 -1214.631)" fill="#846a5b"/>
              </g>
            </g>
          </g>
          <path id="Path_29757" data-name="Path 29757" d="M1500.835,322.115c-10.186,3.811-20.811,6.3-31.108,9.778-2.742.929-5.468,1.924-8.143,3.039q-3.4,1.4-6.672,3.069c-.424.215-.832.438-1.241.683-.015.007-.037.022-.052.03-.483.267-.951.55-1.419.839a.008.008,0,0,0-.007.008c-1.538.966-3.016,2.013-4.48,3.076-.594.431-1.181.862-1.775,1.285-.186.126-.371.26-.55.394-1.278.9-2.57,1.776-3.915,2.571v-.111a11.143,11.143,0,0,1,.007-1.122c.007-.119.015-.245.022-.364.03-.461.074-.922.149-1.39.022-.178.052-.364.082-.55.022-.134.044-.267.082-.409a1.447,1.447,0,0,1,.045-.23.145.145,0,0,1,.015-.074v-.007a3.067,3.067,0,0,1,.1-.439c-.007-.008,0-.008,0-.008a.281.281,0,0,1,.015-.067c.015-.074.03-.141.052-.215.052-.253.119-.505.193-.758.037-.156.081-.3.126-.461.1-.327.2-.646.3-.973a47.155,47.155,0,0,1,6.3-11.888c.342-.49.683-.958,1.025-1.419.468-.624.936-1.218,1.39-1.776a46.005,46.005,0,0,1,11.367-9.726c1.969-1.241,4.644-3.485,6.9-4.057a2.6,2.6,0,0,1,1.4-.074c1.226.4.007,2.615-1.077,4.176a31.237,31.237,0,0,0-4.035,8.054,1.767,1.767,0,0,0-.044,1.412c.438.78,1.62.49,2.437.111a57.215,57.215,0,0,1,32.706-4.487,1.31,1.31,0,0,1,1,.49C1502.417,321.179,1501.548,321.847,1500.835,322.115Z" transform="translate(-1344.195 -287.074)" fill="#7d9850"/>
          <path id="Path_29758" data-name="Path 29758" d="M1153.4,375.474a.8.8,0,0,1-.052.178,2.054,2.054,0,0,1-.327.58v.007c-.052.052-.1.1-.141.156a5.873,5.873,0,0,1-1.739,1.174,13.522,13.522,0,0,1-1.6.639c-.758.253-1.523.476-2.3.661q-.736.189-1.493.334c-1.308.268-2.638.468-3.967.646-2.7.349-5.417.587-8.1,1.033A66.344,66.344,0,0,0,1118,385.475a157.622,157.622,0,0,0-35.136,21.621c-1.129.907-5.149,4.762-6.709,3.953-1.724-.884-.364-5.773.045-7.044a31.386,31.386,0,0,1,3.76-7.437c1.018-1.545,3.626-3.529,1.575-4.74-.758-.446-2.526.015-3.328.111-6.085.743-11.88,3.017-17.787,4.532-2.482.632-4.792,1.709-3.871-1.174.535-1.679,2.541-3.462,3.67-4.762a79.767,79.767,0,0,1,7.682-8.076,82.094,82.094,0,0,1,17.327-11.6c.52-.26,1.107-.6,1.166-1.181a1.622,1.622,0,0,0-.646-1.226c-4.406-4.227-11.828-4.413-17.527-4.391-4.488.015,1.508-4.257,2.608-4.7,16.271-6.672,36.844-3.834,53.145.416,3.826,1,7.979,2.169,12,3.656.2.074.4.148.594.23a.007.007,0,0,1,.007.008c.587.208,1.159.438,1.738.683.008,0,.008,0,.008.008a44.964,44.964,0,0,1,8.737,4.614c.632.431,1.234.906,1.835,1.382a21.46,21.46,0,0,1,3.826,3.158v.007a3.98,3.98,0,0,1,.49.736.027.027,0,0,1,.007.022A1.651,1.651,0,0,1,1153.4,375.474Z" transform="translate(-1056.338 -320.47)" fill="#7d9850"/>
          <path id="Path_29759" data-name="Path 29759" d="M1464.265,487.827c-1.516.475-2.675-1.285-3.536-2.623a12.163,12.163,0,0,0-5.4-4.569,2.4,2.4,0,0,0-1.33-.253c-1,.186-1.4,1.367-1.612,2.363q-1.371,6.33-2.734,12.668c-.2.936-.2,3.908-1.746,3.425-.9-.282-1.412-1.872-1.821-2.615a31.824,31.824,0,0,1-2.229-5.676q-1.794-5.606-3.581-11.219c-.319-1.018-.869-2.221-1.932-2.318-.944-.074-1.664.78-2.207,1.553a97.45,97.45,0,0,0-8.671,15.4c-.6,1.345-1.181,2.7-1.724,4.079-.364.921-.668,2.9-1.59,3.44-1.352.81-1.85-1.6-1.976-2.549a172.417,172.417,0,0,1-1.493-30.194,161.788,161.788,0,0,1,2.229-22.43c.2-1.107.423-2.214.661-3.314.1-.453.193-.906.3-1.352.029-.141.066-.282.1-.416a9.783,9.783,0,0,1,.334-1.055,3.352,3.352,0,0,1,1.01-1.553,1.124,1.124,0,0,1,.23-.149,1.809,1.809,0,0,1,.275-.126h.007a1.687,1.687,0,0,1,.208-.06,1.18,1.18,0,0,1,.156-.03,2.22,2.22,0,0,1,.319-.03h.045a3.534,3.534,0,0,1,.6.052,1.385,1.385,0,0,1,.163.023.214.214,0,0,1,.067.015,8.783,8.783,0,0,1,1.107.29c.082.022.163.052.245.082.461.149.973.327,1.522.527.015.008.038.015.053.022a50.959,50.959,0,0,1,9.294,4.473c.721.438,1.419.9,2.118,1.374h.015q1.371.936,2.682,1.947a52.752,52.752,0,0,1,18.968,28.478A30.7,30.7,0,0,1,1464.265,487.827Z" transform="translate(-1328.569 -382.368)" fill="#7d9850"/>
          <path id="Path_29760" data-name="Path 29760" d="M1275.867,434.5c1.4,1.469-1.1,5.507-2.1,7.154-8.842,14.5-17.781,29.206-20.925,46.1-.319,1.716-1.01,4.956-3.076,2.645a13.684,13.684,0,0,1-2.407-4.376,24.448,24.448,0,0,1-1-3.908c-.1-.587-.847-3.18-.5-3.64a40.959,40.959,0,0,0-5.141,9c-.587,1.412-2.34,5.7-3.448,1.984-1.984-6.687.773-13.879-.007-20.811q-6.954,5-13.656,10.35c-5.082,4.064-3.975-.52-1.791-3.819,5.972-9.019,13.827-16.617,22.344-23.217,6.186-4.793,12.179-9.933,19.038-13.765,3.051-1.705,7.123-4.051,10.7-4.24A2.428,2.428,0,0,1,1275.867,434.5Z" transform="translate(-1178.653 -379.173)" fill="#8aa859"/>
          <path id="Path_29761" data-name="Path 29761" d="M1293.771,255.3c-.074.862-.178,1.724-.3,2.586-.03.215-.067.431-.1.646a50.868,50.868,0,0,1-3.039,11.182q-.39.992-.825,1.961c-.015.03-.03.067-.045.1a13.237,13.237,0,0,1-.839,1.583c-.074.119-.149.23-.23.342a.073.073,0,0,1-.029.037.062.062,0,0,1-.022.037,4.009,4.009,0,0,1-1.523,1.375,2.057,2.057,0,0,1-.5.163,1.128,1.128,0,0,1-.312.045,2.214,2.214,0,0,1-.81-.089,4.355,4.355,0,0,1-.572-.23c-.059-.037-.126-.067-.193-.111-.126-.074-.253-.156-.386-.253-.186-.134-.364-.275-.542-.431-.148-.112-.3-.238-.446-.371-.178-.156-.357-.319-.527-.49-.357-.342-.706-.7-1.048-1.077-1.464-1.6-2.846-3.425-4.242-4.852-1.991-2.028-4-4.034-6.078-5.974-.164-.156-.32-.312-.483-.446,0-.008,0-.008-.008-.008-.817-.78-1.642-1.531-2.481-2.274-1.746-1.56-3.522-3.076-5.357-4.532-7.831-6.218-16.65-11.4-26.316-13.99-5.127-1.375-3.143-4.146.669-4.733a50.424,50.424,0,0,1,10.045-.148c5.461.26,11.494.386,16.806,1.813-1.776-.476-4.919-6.286-6.011-7.823a58.8,58.8,0,0,1-5.29-8.879c-1.323-2.816-1.33-3.536,1.746-3.262a20.354,20.354,0,0,1,5.052,1.107,37.281,37.281,0,0,1,8.373,4.577,63.633,63.633,0,0,1,11.078,9.919,33.639,33.639,0,0,1,4.718-9.949,1.916,1.916,0,0,1,1.063-.906c.78-.171,1.412.595,1.82,1.27A53.056,53.056,0,0,1,1293.771,255.3Z" transform="translate(-1188.708 -217.142)" fill="#8aa859"/>
          <path id="Path_29762" data-name="Path 29762" d="M1503.077,407.468q2.649,3.045,5.3,6.1a31.406,31.406,0,0,1,6.28,12.144c.317,1.043,1.5,4.31-.72,3.553a8.518,8.518,0,0,1-2.569-2.146c-1.686-1.582-5.048-4.209-7.52-4.169-1.673.023-1.795,1.138-1.241,2.455,1.1,2.627,2.6,5.237,3.119,8.028.175.955.951,5.731-1.276,3.69-14.477-13.322-31.224-25.615-50.59-28.692-.5-.082-1.008-.157-1.509-.224-.265-.039-.531-.07-.8-.094h-.015c-.427-.06-.856-.106-1.285-.152-3.141-.325-6.314-.458-9.461-.716-1.836-.156-5.142-.8-5.322-2.8a2.56,2.56,0,0,1,.263-1.274,2.685,2.685,0,0,1,.364-.564,3.37,3.37,0,0,1,.369-.377,5.539,5.539,0,0,1,.729-.562,11.662,11.662,0,0,1,1.406-.8c.016-.013.032-.019.04-.026.117-.057.234-.113.343-.163.063-.032.125-.056.187-.088.147-.062.288-.131.427-.193.667-.284,1.347-.544,1.972-.786.81-.3,1.535-.572,2.055-.794.62-.265,1.248-.53,1.875-.78.008-.007.008-.007.015-.006,1.085-.448,2.188-.864,3.29-1.259.016-.006.039-.019.055-.025a85.452,85.452,0,0,1,8.346-2.508q2.163-.546,4.353-.962a85.87,85.87,0,0,1,37.3.991c7.768,1.975,13.861,5.591,18.347,12.421.406.626.782,1.517.257,2.059a1.589,1.589,0,0,1-1.2.34c-2.368-.047-4.611-.985-6.9-1.614C1508.71,407.284,1501.149,405.245,1503.077,407.468Z" transform="translate(-1339.716 -347.606)" fill="#8aa859"/>
          <path id="Path_29763" data-name="Path 29763" d="M1411.549,391.178c1.977-1.4,4.217-2.415,6.128-3.908.491-.384-.135-1.01-.615-.8-.9.4-1.9.808-2.9,1.255a18.617,18.617,0,0,0,2.942-7.513c.123-.775-1-1.443-1.4-.588-1.851,3.99-2.631,8.462-6.885,10.674a9.719,9.719,0,0,1-7.474.819c-2.071-.714-3.771-2.093-5.738-2.995a.534.534,0,0,0-.644.834,11.532,11.532,0,0,0,5.328,3.663,6.806,6.806,0,0,0-1.051.563.586.586,0,0,0,.45,1.066c2.226-.584,5.576-1.069,6.4,1.854.51,1.805-.783,3.639-1.7,5.072a.813.813,0,0,0,1.272.981,8.485,8.485,0,0,0,2.157-3.68,9.675,9.675,0,0,0,.646,1.678.818.818,0,0,0,1.514-.41c-.02-.256-.057-.523-.1-.794a13.252,13.252,0,0,0,4.183,1.335c.8.127,1.415-.954.59-1.4-1.728-.936-4.6-1.039-5.446-3.05C1408.311,393.7,1409.978,392.292,1411.549,391.178Z" transform="translate(-1309.335 -338.291)" fill="#7d9850"/>
          <g id="Group_50351" data-name="Group 50351" transform="translate(40.015 14.326)">
            <g id="Group_50334" data-name="Group 50334" transform="translate(25.022 47.005)">
              <path id="Path_29764" data-name="Path 29764" d="M1335.051,460.022a137.6,137.6,0,0,0-21.124,18.92c-.237.266.137.648.394.394a260.062,260.062,0,0,1,21.031-18.925c.218-.174-.073-.557-.3-.39Z" transform="translate(-1313.851 -459.981)" fill="#7d9850"/>
            </g>
            <g id="Group_50335" data-name="Group 50335" transform="translate(28.242 52.619)">
              <path id="Path_29765" data-name="Path 29765" d="M1342.13,482.291a212.2,212.2,0,0,0-15.477,18.994c-.211.3.268.558.481.281,4.969-6.438,9.967-12.819,15.36-18.912.218-.247-.141-.61-.364-.363Z" transform="translate(-1326.6 -482.209)" fill="#7d9850"/>
            </g>
            <g id="Group_50336" data-name="Group 50336" transform="translate(30.934 58.411)">
              <path id="Path_29766" data-name="Path 29766" d="M1348.949,505.258a93.856,93.856,0,0,0-11.672,20.72c-.118.3.391.516.522.22a116.693,116.693,0,0,1,11.6-20.675c.2-.276-.256-.535-.454-.265Z" transform="translate(-1337.259 -505.144)" fill="#7d9850"/>
            </g>
            <g id="Group_50337" data-name="Group 50337" transform="translate(35.156 11.133)">
              <path id="Path_29767" data-name="Path 29767" d="M1354.052,318.373a139.276,139.276,0,0,1,15.961,18.483c.2.271.655.03.466-.272a92.016,92.016,0,0,0-16.072-18.566c-.238-.217-.592.133-.355.355Z" transform="translate(-1353.974 -317.949)" fill="#7d9850"/>
            </g>
            <g id="Group_50338" data-name="Group 50338" transform="translate(38.852)">
              <path id="Path_29768" data-name="Path 29768" d="M1368.674,274.3a77.5,77.5,0,0,1,13.245,21.715c.131.319.654.189.529-.146a69.349,69.349,0,0,0-13.423-21.92c-.214-.239-.559.111-.351.351Z" transform="translate(-1368.61 -273.867)" fill="#7d9850"/>
            </g>
            <g id="Group_50339" data-name="Group 50339" transform="translate(54.68 3.83)">
              <path id="Path_29769" data-name="Path 29769" d="M1431.286,289.355A141.784,141.784,0,0,1,1433.511,306c.026.335.544.343.529,0a102.65,102.65,0,0,0-2.253-16.781c-.07-.328-.566-.188-.5.138Z" transform="translate(-1431.28 -289.03)" fill="#7d9850"/>
            </g>
            <g id="Group_50340" data-name="Group 50340" transform="translate(77.331 35.252)">
              <path id="Path_29770" data-name="Path 29770" d="M1555.873,414.371a98.679,98.679,0,0,0-34.7,1.362c-.36.081-.205.617.151.549a114.117,114.117,0,0,1,34.487-1.446c.262.03.327-.429.063-.464Z" transform="translate(-1520.967 -413.446)" fill="#7d9850"/>
            </g>
            <g id="Group_50341" data-name="Group 50341" transform="translate(91.843 38.955)">
              <path id="Path_29771" data-name="Path 29771" d="M1602.613,436.466a53.21,53.21,0,0,0-23.919-8.354c-.358-.037-.351.515,0,.557a61.9,61.9,0,0,1,23.726,8.128.192.192,0,0,0,.194-.331Z" transform="translate(-1578.428 -428.11)" fill="#7d9850"/>
            </g>
            <g id="Group_50342" data-name="Group 50342" transform="translate(88.142 42.597)">
              <path id="Path_29772" data-name="Path 29772" d="M1587.954,451.3a168.048,168.048,0,0,0-23.844-8.757.274.274,0,0,0-.146.529,209.021,209.021,0,0,1,23.727,8.677c.3.133.568-.311.262-.449Z" transform="translate(-1563.772 -442.528)" fill="#7d9850"/>
            </g>
            <g id="Group_50343" data-name="Group 50343" transform="translate(60.59 53.236)">
              <path id="Path_29773" data-name="Path 29773" d="M1454.683,484.911a132.745,132.745,0,0,1,.75,17.639.29.29,0,0,0,.58,0,100.882,100.882,0,0,0-.791-17.639c-.043-.338-.58-.347-.54,0Z" transform="translate(-1454.681 -484.655)" fill="#8aa859"/>
            </g>
            <g id="Group_50344" data-name="Group 50344" transform="translate(66.161 54.592)">
              <path id="Path_29774" data-name="Path 29774" d="M1476.741,490.293c1.054,6.343,2.678,12.683,4.241,18.918.084.333.582.192.512-.141-1.324-6.325-2.981-12.575-4.336-18.892-.059-.275-.462-.155-.417.115Z" transform="translate(-1476.737 -490.022)" fill="#8aa859"/>
            </g>
            <g id="Group_50345" data-name="Group 50345" transform="translate(71.027 56.299)">
              <path id="Path_29775" data-name="Path 29775" d="M1496.039,497.092a60.449,60.449,0,0,1,7.076,17.375c.079.331.571.189.507-.14a47.919,47.919,0,0,0-7.217-17.449c-.151-.225-.508-.022-.366.214Z" transform="translate(-1496.006 -496.781)" fill="#8aa859"/>
            </g>
            <g id="Group_50346" data-name="Group 50346" transform="translate(0 41.078)">
              <path id="Path_29776" data-name="Path 29776" d="M1215.191,447.16a88.348,88.348,0,0,1,33.559-10.036c.383-.038.4-.63,0-.609a76.992,76.992,0,0,0-33.839,10.166.277.277,0,0,0,.28.479Z" transform="translate(-1214.776 -436.514)" fill="#8aa859"/>
            </g>
            <g id="Group_50347" data-name="Group 50347" transform="translate(9.181 37.311)">
              <path id="Path_29777" data-name="Path 29777" d="M1251.456,423.453a61.684,61.684,0,0,1,27.321.819.309.309,0,0,0,.165-.6,57.027,57.027,0,0,0-27.625-.729c-.331.07-.19.574.14.506Z" transform="translate(-1251.128 -421.601)" fill="#8aa859"/>
            </g>
            <g id="Group_50348" data-name="Group 50348" transform="translate(7.38 28.708)">
              <path id="Path_29778" data-name="Path 29778" d="M1244.218,388a71.352,71.352,0,0,1,27.646,6.329c.307.136.581-.3.269-.461a61.954,61.954,0,0,0-27.916-6.327.229.229,0,0,0,0,.458Z" transform="translate(-1243.996 -387.537)" fill="#8aa859"/>
            </g>
            <g id="Group_50349" data-name="Group 50349" transform="translate(68.465 19.868)">
              <path id="Path_29779" data-name="Path 29779" d="M1494.72,352.6a62.632,62.632,0,0,0-8.814,10.589c-.19.294.263.542.461.27a99.147,99.147,0,0,1,8.688-10.524.237.237,0,0,0-.334-.334Z" transform="translate(-1485.86 -352.534)" fill="#8aa859"/>
            </g>
            <g id="Group_50350" data-name="Group 50350" transform="translate(74.752 25.733)">
              <path id="Path_29780" data-name="Path 29780" d="M1521.731,375.765a34.312,34.312,0,0,0-10.862,5.006c-.27.189-.021.634.262.449a39.632,39.632,0,0,1,10.727-4.993.24.24,0,0,0-.127-.462Z" transform="translate(-1510.754 -375.756)" fill="#8aa859"/>
            </g>
          </g>
        </g>
        <g id="Group_50381" data-name="Group 50381" transform="translate(1203.563 255.75)">
          <g id="Group_50362" data-name="Group 50362" transform="translate(9.311 63.469)">
            <path id="Path_29781" data-name="Path 29781" d="M1719.68,620.971s33.434,47.55-43.836,188.715h34.92s48.293-112.189,18.574-188.715Z" transform="translate(-1675.845 -620.971)" fill="#6e9a20"/>
            <g id="Group_50361" data-name="Group 50361" transform="translate(16.739 62.102)">
              <g id="Group_50353" data-name="Group 50353" transform="translate(0 93.21)">
                <path id="Path_29782" data-name="Path 29782" d="M1742.316,1236.979c2.047,1.714,5.287,3.676,8.049,3.683a.626.626,0,0,0,.313-1.158c-1.25-.619-2.661-.859-3.945-1.425a28.691,28.691,0,0,1-3.672-2.066c-.58-.365-1.288.512-.745.966Z" transform="translate(-1742.122 -1235.926)" fill="#846a5b"/>
              </g>
              <g id="Group_50354" data-name="Group 50354" transform="translate(16.478 104.756)">
                <path id="Path_29783" data-name="Path 29783" d="M1807.557,1282.543a10.308,10.308,0,0,0,5.981,2.346.59.59,0,0,0,.156-1.152c-.873-.351-1.81-.519-2.7-.84-.955-.345-1.851-.807-2.78-1.211-.511-.222-1.189.43-.661.857Z" transform="translate(-1807.365 -1281.641)" fill="#846a5b"/>
              </g>
              <g id="Group_50355" data-name="Group 50355" transform="translate(28.548 56.801)">
                <path id="Path_29784" data-name="Path 29784" d="M1855.41,1092.7a18.829,18.829,0,0,0,9.934,1.982c.659-.083.982-1.161.175-1.294-1.621-.269-3.268-.264-4.9-.536s-3.216-.715-4.826-1.069c-.528-.116-.921.651-.387.918Z" transform="translate(-1855.156 -1091.768)" fill="#846a5b"/>
              </g>
              <g id="Group_50356" data-name="Group 50356" transform="translate(21.111 41.86)">
                <path id="Path_29785" data-name="Path 29785" d="M1826.046,1033.821c2.284,1.095,5.531,2.271,8.089,2.107a.721.721,0,0,0,.191-1.408,26.756,26.756,0,0,0-3.9-.885c-1.3-.3-2.573-.717-3.874-1.013-.689-.156-1.208.863-.505,1.2Z" transform="translate(-1825.711 -1032.606)" fill="#846a5b"/>
              </g>
              <g id="Group_50357" data-name="Group 50357" transform="translate(34.598 23.647)">
                <path id="Path_29786" data-name="Path 29786" d="M1879.465,961.476a25.975,25.975,0,0,0,9.983.817c.817-.127.526-1.278-.182-1.345-3.186-.3-6.463-.225-9.669-.452-.566-.04-.671.842-.133.98Z" transform="translate(-1879.112 -960.494)" fill="#846a5b"/>
              </g>
              <g id="Group_50358" data-name="Group 50358" transform="translate(11.576 65.465)">
                <path id="Path_29787" data-name="Path 29787" d="M1788.125,1126.977a13.393,13.393,0,0,0,8.107,3.611c.616.016.956-.969.334-1.233-1.193-.506-2.464-.774-3.669-1.251-1.421-.563-2.724-1.352-4.114-1.978-.53-.239-1.128.39-.657.852Z" transform="translate(-1787.955 -1126.072)" fill="#846a5b"/>
              </g>
              <g id="Group_50359" data-name="Group 50359" transform="translate(13.141 82.357)">
                <path id="Path_29788" data-name="Path 29788" d="M1794.411,1193.935c2.368,1.462,5.273,2.892,8.129,2.808a.6.6,0,0,0,.157-1.163c-2.648-.848-5.235-1.258-7.753-2.557a.529.529,0,0,0-.533.912Z" transform="translate(-1794.155 -1192.956)" fill="#846a5b"/>
              </g>
              <g id="Group_50360" data-name="Group 50360" transform="translate(33.182)">
                <path id="Path_29789" data-name="Path 29789" d="M1873.715,867.681a15.838,15.838,0,0,0,9.127,1.526.725.725,0,0,0,0-1.388c-1.48-.252-2.993-.2-4.485-.4-1.475-.191-2.936-.45-4.421-.559a.441.441,0,0,0-.221.817Z" transform="translate(-1873.505 -866.864)" fill="#846a5b"/>
              </g>
            </g>
          </g>
          <path id="Path_29790" data-name="Path 29790" d="M1861.758,545.043c10.557-7.074,22.213-14.28,34.9-13.481.72.045,1.607.257,1.763.961a1.6,1.6,0,0,1-.577,1.346c-1.749,1.855-6.829,3.1-7.186,6.023-.267,2.19,3.91.837,4.9.607,6.509-1.5,16.19-4.048,22.2.143a.97.97,0,0,1,.451.539c.449,2.123-4.925,3.287-6.191,3.657-1.708.5-3.437.923-5.157,1.382-1.15.307-3.956.517-3.79,2.17s4,3.608,5.169,4.574c1.262,1.041,4.783,4.114,2.623,5.716-1.189.882-3.38.613-4.739.512a87.567,87.567,0,0,1-10.485-1.88c-9.757-1.932-20.544-5.108-30.57-3.938-2.224.26-11.051,3.334-11.943.411C1852.146,550.578,1859.753,546.387,1861.758,545.043Z" transform="translate(-1798.975 -490.699)" fill="#7d9850"/>
          <path id="Path_29791" data-name="Path 29791" d="M1825.692,628.48l-4.209,13.873-2.15,7.083c-.271.894-1.506,3.468-.807,4.311,1.068,1.289,4.152-3.742,5.1-4.393a1.2,1.2,0,0,1,1.056-.263c.517.195.59.884.577,1.436q-.157,6.587-.315,13.174a4.194,4.194,0,0,0,.361,2.237,1.444,1.444,0,0,0,1.945.619,2.078,2.078,0,0,0,.493-.577l5.242-7.917a35.51,35.51,0,0,1,3.3-4.929c2.379-2.541,3.757,4.376,4.311,5.8.348.893.944,1.953,1.9,1.881,1.148-.086,1.434-1.631,1.372-2.781a88.791,88.791,0,0,0-13.245-41.963,3.937,3.937,0,0,0-1.924-1.878c-2.893-.912-1.175,4.046-1.183,5.278A32.2,32.2,0,0,1,1825.692,628.48Z" transform="translate(-1773.021 -552.413)" fill="#7d9850"/>
          <path id="Path_29792" data-name="Path 29792" d="M1645.036,567.176a53.752,53.752,0,0,1,17.059-1.141,56.672,56.672,0,0,1,17.8,4.626,54.935,54.935,0,0,1,8.086,4.428q1.922,1.276,3.73,2.714a11.893,11.893,0,0,1,1.7,1.377c.518.617.028,1.025-.673.966l-1.243-.1c-1.883-.16-3.765-.332-5.638-.581-1.772-.236-3.472-.648-5.231-.937a79.653,79.653,0,0,0-37.863,1.957c-1.45.41-3.631.4-3.78-1.1-.1-1.052,1.021-1.757,1.982-2.2,1.639-.747,3.254-1.547,4.918-2.234.845-.349,3.436-1,2.438-2.394-1.174-1.641-4.191-1.751-4.972-3.653C1643,568.056,1644.138,567.386,1645.036,567.176Z" transform="translate(-1638.977 -516.338)" fill="#7d9850"/>
          <path id="Path_29793" data-name="Path 29793" d="M1800.129,409.048a42.84,42.84,0,0,1-1.316-11.382,29.241,29.241,0,0,1,.692-5.614c.32-1.4,1.308-6.689,3.3-4.257,1.165,1.423,1.693,3.979,2.374,5.682a59.655,59.655,0,0,0,2.246,5.881,2.727,2.727,0,0,0,1.456,1.378c2.617.864,3.871-5.056,4.628-6.672a88.111,88.111,0,0,1,4.9-9.041,107.666,107.666,0,0,1,6.8-9.48,31.473,31.473,0,0,1,4.176-4.768c3.588-3.028,1.834,3.774,1.243,5.376a81.712,81.712,0,0,0-4.217,16.649,2,2,0,0,0,.159,1.438c.571.814,1.832.379,2.712-.084A27.657,27.657,0,0,1,1842.847,391a2.727,2.727,0,0,1,2.328.891c.673,1.054-.255,2.377-1.133,3.268-7.122,7.234-14.69,14.115-20.875,22.206a74.667,74.667,0,0,0-7.8,12.984c-1.2,2.476-1.828,4-4.212,1.925-1.845-1.607-3.257-4.661-4.461-6.767A63.316,63.316,0,0,1,1800.129,409.048Z" transform="translate(-1758.433 -370.008)" fill="#8aa859"/>
          <path id="Path_29794" data-name="Path 29794" d="M1890.617,651.929c.616.833,1.264,1.632,1.949,2.388.324.357.775.735,1.233.582a14.275,14.275,0,0,0,.753-5.141,3.538,3.538,0,0,1,.106-1.373c.837-2.251,4.107-.47,5.417.247a37.565,37.565,0,0,1,3.609,2.317c1.525,1.078,3.35,2.869,3.484-.217a18.735,18.735,0,0,0-1.67-7.712,39.848,39.848,0,0,0-2.384-4.735c-.5-.86-2.278-2.51-1.764-3.623.621-1.342,4.729-.021,5.912.212s3.363,1.5,4.539.926c1.886-.925.6-3.346-.452-4.634a16.364,16.364,0,0,0-4.221-3.31,104.208,104.208,0,0,0-21.3-10.5c-8.054-2.728-16.539-3.6-24.9-4.89-2.093-.323-5.368.439-3.628,3.021.883,1.31,4.746,2.464,6.173,3.3,6.322,3.71,14.2,9.035,17.684,15.686C1884.1,640.1,1886.741,646.69,1890.617,651.929Z" transform="translate(-1801.794 -551.154)" fill="#8aa859"/>
          <path id="Path_29795" data-name="Path 29795" d="M1669.169,620.035c-8.776,2.987-17.151,7.477-23.815,13.921-2.06,1.992-4.584,5.133-5.506,7.857-.973,2.872,2.562,1.145,4.156.752q5.037-1.241,10.178-1.991c1.3-.19,3.047-.083,3.385,1.188a2.935,2.935,0,0,1-.867,2.335,31.58,31.58,0,0,0-5.913,14.457c-.131.944-.8,3.868.726,4.117,1.206.2,3.552-3.786,4.341-4.671a51.466,51.466,0,0,1,10.3-8.857q.088,5.389.177,10.779a6.158,6.158,0,0,0,.7,3.35,2.126,2.126,0,0,0,2.981.705,3.126,3.126,0,0,0,.782-1.536,101.2,101.2,0,0,1,21.632-38.817c1.427-1.593,4.789-4.967,3.977-7.433-.911-2.767-5.3-1.113-7.443-.784A115.987,115.987,0,0,0,1669.169,620.035Z" transform="translate(-1639.503 -552.813)" fill="#8aa859"/>
          <path id="Path_29796" data-name="Path 29796" d="M1840.353,598.274a10.045,10.045,0,0,0-4.518-.135,6.91,6.91,0,0,0,.738-2.071c.115-.709-.9-1.3-1.268-.534-.63,1.314-1.312,3.34-2.819,3.839-2.068.685-4.359-.454-6.265-1.111a.523.523,0,0,0-.505.868c.136.113.291.214.438.319a9.073,9.073,0,0,0-2.38.535c-.54.208-.534,1.177.15,1.106,2.237-.233,5.39-.523,7.537.369,2.264.942.909,4.352-.178,5.861-.535.742.574,1.424,1.185.914a6.018,6.018,0,0,0,1.679-3.1,4.063,4.063,0,0,0,1.46,1.369.691.691,0,0,0,.937-.937c-.747-1.384-3.139-3.687-1.645-5.329,1.166-1.281,3.889-.846,5.454-1.083C1840.817,599.083,1840.756,598.385,1840.353,598.274Z" transform="translate(-1776.813 -538.285)" fill="#7d9850"/>
          <g id="Group_50380" data-name="Group 50380" transform="translate(16.785 25.813)">
            <g id="Group_50363" data-name="Group 50363" transform="translate(30.628 8.73)">
              <path id="Path_29797" data-name="Path 29797" d="M1826.724,507.016a36.093,36.093,0,0,0,4.551,18.713c.191.333.672.04.509-.3a43.6,43.6,0,0,1-4.569-18.415.245.245,0,0,0-.491,0Z" transform="translate(-1826.708 -506.779)" fill="#7d9850"/>
            </g>
            <g id="Group_50364" data-name="Group 50364" transform="translate(37.077)">
              <path id="Path_29798" data-name="Path 29798" d="M1857.992,472.322a52.914,52.914,0,0,0-5.746,22.048c-.012.363.533.355.56,0a64.177,64.177,0,0,1,5.549-21.836c.11-.242-.239-.457-.363-.212Z" transform="translate(-1852.245 -472.214)" fill="#7d9850"/>
            </g>
            <g id="Group_50365" data-name="Group 50365" transform="translate(42.907 4.601)">
              <path id="Path_29799" data-name="Path 29799" d="M1884.372,490.511a33.693,33.693,0,0,0-9.031,14.784.284.284,0,0,0,.548.151,38.4,38.4,0,0,1,8.873-14.546.276.276,0,0,0-.39-.39Z" transform="translate(-1875.327 -490.432)" fill="#7d9850"/>
            </g>
            <g id="Group_50366" data-name="Group 50366" transform="translate(2.403 39.495)">
              <path id="Path_29800" data-name="Path 29800" d="M1741.891,628.608c-5.069,1.592-10.048,3.538-14.942,5.6q-3.307,1.395-6.565,2.9c-1.842.852-4.072,1.589-5.361,3.24-.224.286.135.68.41.41,1.568-1.538,3.631-2.335,5.595-3.249q3.663-1.7,7.392-3.263c4.48-1.874,9.036-3.517,13.6-5.169.293-.106.175-.569-.13-.473Z" transform="translate(-1714.952 -628.595)" fill="#7d9850"/>
            </g>
            <g id="Group_50367" data-name="Group 50367" transform="translate(8.631 44.593)">
              <path id="Path_29801" data-name="Path 29801" d="M1756.086,648.805a72.322,72.322,0,0,0-16.384,11.933c-.271.268.138.673.417.416a87.639,87.639,0,0,1,16.17-12,.2.2,0,0,0-.2-.346Z" transform="translate(-1739.613 -648.779)" fill="#7d9850"/>
            </g>
            <g id="Group_50368" data-name="Group 50368" transform="translate(18.016 44.8)">
              <path id="Path_29802" data-name="Path 29802" d="M1788.485,649.669a76.723,76.723,0,0,0-11.669,13.889c-.181.278.255.525.441.258a96.706,96.706,0,0,1,11.573-13.8c.225-.221-.117-.56-.345-.345Z" transform="translate(-1776.773 -649.601)" fill="#7d9850"/>
            </g>
            <g id="Group_50369" data-name="Group 50369" transform="translate(57.756 46.906)">
              <path id="Path_29803" data-name="Path 29803" d="M1934.2,658.323a66.163,66.163,0,0,1,12.391,14.8.27.27,0,0,0,.466-.273A60.243,60.243,0,0,0,1934.521,658c-.223-.194-.55.13-.326.326Z" transform="translate(-1934.12 -657.937)" fill="#7d9850"/>
            </g>
            <g id="Group_50370" data-name="Group 50370" transform="translate(62.85 47.176)">
              <path id="Path_29804" data-name="Path 29804" d="M1954.364,659.382c4.524,4.23,9.124,8.229,12.35,13.6a.264.264,0,0,0,.456-.267c-3.108-5.365-7.767-9.713-12.489-13.653-.219-.182-.532.117-.318.318Z" transform="translate(-1954.292 -659.007)" fill="#7d9850"/>
            </g>
            <g id="Group_50371" data-name="Group 50371" transform="translate(63.485 44.463)">
              <path id="Path_29805" data-name="Path 29805" d="M1956.92,648.693a76.156,76.156,0,0,1,13.553,7.493c.262.182.5-.24.248-.423a59.44,59.44,0,0,0-13.625-7.486c-.238-.093-.413.315-.176.417Z" transform="translate(-1956.807 -648.263)" fill="#7d9850"/>
            </g>
            <g id="Group_50372" data-name="Group 50372" transform="translate(36.166 46.189)">
              <path id="Path_29806" data-name="Path 29806" d="M1852.325,655.329a121.163,121.163,0,0,1-3.679,18.078.279.279,0,0,0,.537.148,75.569,75.569,0,0,0,3.623-18.226c.025-.312-.446-.3-.482,0Z" transform="translate(-1848.635 -655.099)" fill="#8aa859"/>
            </g>
            <g id="Group_50373" data-name="Group 50373" transform="translate(39.606 54.488)">
              <path id="Path_29807" data-name="Path 29807" d="M1864.161,688.191a68.487,68.487,0,0,1-1.1,8.641c-.347,2.54-.659,5.088-.809,7.648-.021.362.514.346.554,0,.347-2.975.631-5.954,1.049-8.92a40.14,40.14,0,0,0,.78-7.369.24.24,0,0,0-.479,0Z" transform="translate(-1862.256 -687.96)" fill="#8aa859"/>
            </g>
            <g id="Group_50374" data-name="Group 50374" transform="translate(43.282 50.126)">
              <path id="Path_29808" data-name="Path 29808" d="M1876.828,670.979a50.883,50.883,0,0,1,2.735,15.076.258.258,0,0,0,.517,0,37.289,37.289,0,0,0-2.784-15.2c-.116-.279-.569-.174-.467.129Z" transform="translate(-1876.813 -670.688)" fill="#8aa859"/>
            </g>
            <g id="Group_50375" data-name="Group 50375" transform="translate(48.428 21.893)">
              <path id="Path_29809" data-name="Path 29809" d="M1897.581,567.815c3.08-1.73,6.183-3.39,9.4-4.847s6.613-3.058,10.154-3.554c.29-.041.223-.536-.069-.513-3.286.252-6.468,1.819-9.45,3.135a89,89,0,0,0-10.305,5.323.264.264,0,0,0,.267.456Z" transform="translate(-1897.188 -558.9)" fill="#8aa859"/>
            </g>
            <g id="Group_50376" data-name="Group 50376" transform="translate(60.184 27.006)">
              <path id="Path_29810" data-name="Path 29810" d="M1943.987,581.91a118.5,118.5,0,0,1,17.22-2.241.263.263,0,0,0,0-.525,75.8,75.8,0,0,0-17.329,2.374c-.255.064-.147.446.108.392Z" transform="translate(-1943.734 -579.144)" fill="#8aa859"/>
            </g>
            <g id="Group_50377" data-name="Group 50377" transform="translate(58.14 31.644)">
              <path id="Path_29811" data-name="Path 29811" d="M1935.842,598.331a170.838,170.838,0,0,1,18.446.662c.329.034.409-.532.078-.581a70.338,70.338,0,0,0-18.525-.5c-.261.032-.278.422,0,.421Z" transform="translate(-1935.64 -597.51)" fill="#8aa859"/>
            </g>
            <g id="Group_50378" data-name="Group 50378" transform="translate(0 32.057)">
              <path id="Path_29812" data-name="Path 29812" d="M1705.639,600.074a78.046,78.046,0,0,1,14-.057c.345.028.335-.5,0-.534a58.421,58.421,0,0,0-14,.17c-.262.034-.273.447,0,.421Z" transform="translate(-1705.438 -599.142)" fill="#8aa859"/>
            </g>
            <g id="Group_50379" data-name="Group 50379" transform="translate(3.315 28.029)">
              <path id="Path_29813" data-name="Path 29813" d="M1718.793,583.67a58.551,58.551,0,0,1,15.776,3.574c.311.113.425-.365.134-.487a49.022,49.022,0,0,0-15.911-3.563c-.307-.019-.3.453,0,.476Z" transform="translate(-1718.564 -583.194)" fill="#8aa859"/>
            </g>
          </g>
        </g>
        <path id="Path_29814" data-name="Path 29814" d="M1311.427,1207.689q-.422.012-.846,0c-7.509-.208-11.819-7.868-16.583-12.619a97.212,97.212,0,0,0-11.727-9.974c-2.694-1.945-9.875-4.733-11.245-7.853-1.516-3.452,2.784-3.341,4.846-2.866a68.949,68.949,0,0,1,26.487,12.514c1.575,1.213,3.539,3.389,5.65,3.68,3.919.54,2.486-5.074,2.321-7.474-.59-8.564-2.032-17.463.7-25.82a1.566,1.566,0,0,1,.445-.783c.783-.614,1.743.511,2.108,1.436,2.673,6.788,5.981,13.633,11.631,18.248,1.691,1.381,4.283,2.5,5.9,1.036a5.125,5.125,0,0,0,1.263-2.88c1.712-8.315,3.342-16.717,6.624-24.546a47.592,47.592,0,0,1,7.568-12.581,34.914,34.914,0,0,1,5.556-5.255c5.258-3.944,2.11,4.881,1.328,7.379-1.574,5.031-1.76,10.376-1.934,15.645q-.2,6.154-.405,12.309c-.08,2.438-.715,12.487,4.292,8.445,2.916-2.354,4.487-6.283,6.849-9.131,3.765-4.538,8.032-8.778,13.282-11.568,1.178,1.475.479,3.636-.28,5.365-2.837,6.461-5.9,12.968-6.77,19.97-.2,1.62-.116,3.653.98,4.96,1.765,2.105,4.221.519,5.823-.846q8.6-7.324,17.76-13.943c1.151-.831,2.982-1.557,3.77-.377a2.333,2.333,0,0,1,.251,1.525c-.431,4.546-4.4,8.626-3.376,13.077a3.423,3.423,0,0,0,1.3,2.14c1.47.976,3.419.049,4.9-.906,7.778-5.012,14.93-10.965,22.856-15.74,6.991-4.213,16.295-7.755,24.6-6.62.884.121,2.007.612,1.864,1.493a1.694,1.694,0,0,1-.56.87c-3.179,3.162-7.156,5.369-10.96,7.743a126.625,126.625,0,0,0-15.385,11.3c-1.035.887-8.229,9.705-3.047,8.582l10.632-2.3a4.758,4.758,0,0,1,2.365-.106,1.636,1.636,0,0,1,1.234,1.785,2.19,2.19,0,0,1-.719,1.015c-2.5,2.3-5.606,3.373-8.04,5.752-2.82,2.757-6.363,4.756-9.216,7.523-4.413,4.281-12.547-1.785-17.472-2.642-5.179-.9-10.406,1.229-15.663,1.206-5.731-.025-11.186-2.6-16.908-2.914-7.51-.414-14.852,3.082-22.352,2.512-4.841-.368-9.544-2.425-14.38-2C1322.946,1203.963,1317.367,1207.52,1311.427,1207.689Z" transform="translate(-160.155 -682.933)" fill="#8aa859"/>
      </g>
      <g id="Group_50269" data-name="Group 50269" transform="translate(122.888 484.727)">
        <path id="Path_23769" data-name="Path 23769" d="M1136.9,1331.147q-6.587,11.882-13.04,23.839c-8.7,16.2-24.845,52.209,1.007,61.1,13.025,4.482,20.475.1,29.085-9.39a548.569,548.569,0,0,0,82.355-119.315c8.192-16.07,29.943-57.948,3.524-67.517a32.087,32.087,0,0,0-25.772,1.885,51.887,51.887,0,0,0-9.769,7.21c-19.067,17-32.644,38.944-44.723,61.2C1152.1,1303.91,1144.458,1317.51,1136.9,1331.147Z" transform="translate(-888.643 -919.556)" fill="#206e9a"/>
        <path id="Path_23770" data-name="Path 23770" d="M1154.661,1578.408q-3.413-.575-6.837-1.108-16.647-2.581-33.145-6.115c-21.769-4.663-43.666-8.674-65.822-10.762q-3.522-.332-7.05-.6c-9.933-.75-20.34-1.006-29.423,3.621s-16.3,15.6-14.056,26.194c1.573,7.443,7.4,13.052,13.871,15.886s13.589,3.338,20.572,3.809l67.863,4.581q16.8,1.124,33.6,2.305c10.695.745,21.553,2.24,32.275,2.248,4.536,0,9.6-.82,13.4-3.772,5.291-4.1,8.464-12.857,8.966-19.7.26-3.554-.457-7.869-3.244-10.073a11.392,11.392,0,0,0-5.212-1.874C1171.82,1581.486,1163.264,1579.859,1154.661,1578.408Z" transform="translate(-774.695 -1108.697)" fill="#206e9a"/>
        <g id="Group_50244" data-name="Group 50244" transform="translate(467.553 335.697)">
          <rect id="Rectangle_3172" data-name="Rectangle 3172" width="107.262" height="21" transform="translate(0 142.043)" fill="#cccccd"/>
          <path id="Path_23771" data-name="Path 23771" d="M165.272,1445.6l27.07-137.814a7.762,7.762,0,0,1,7.617-6.266H379.915a7.7,7.7,0,0,1,6.237,3.2l.024-.023,8.31,9.825-7.372-1.618L360.462,1448.59a7.762,7.762,0,0,1-7.617,6.266H172.888A7.761,7.761,0,0,1,165.272,1445.6Z" transform="translate(-76.416 -1301.518)" fill="#cccccd"/>
          <path id="Path_23772" data-name="Path 23772" d="M349.657,1476.617H169.7a7.762,7.762,0,0,1-7.616-9.258l27.07-137.814a7.761,7.761,0,0,1,7.616-6.266H376.728a7.762,7.762,0,0,1,7.616,9.258l-27.07,137.814A7.762,7.762,0,0,1,349.657,1476.617Z" transform="translate(-65 -1313.574)" fill="#fff"/>
          <path id="Path_23773" data-name="Path 23773" d="M400.1,1466.631c-1.66,9.3-10.542,16.832-19.839,16.832s-15.379-7.536-13.586-16.832,10.674-16.832,19.838-16.832S401.761,1457.335,400.1,1466.631Z" transform="translate(-172.05 -1383.672)" fill="#cccccd"/>
          <path id="Path_23774" data-name="Path 23774" d="M161.936,1337.656" transform="translate(157.555 -1321.54)" fill="#3f91ac"/>
        </g>
        <path id="Path_23775" data-name="Path 23775" d="M819.524,1641.4c5.347,1.1,9.526,5.8,14.848,7.372a18.268,18.268,0,0,0,11.512-.846c3.355-1.259,6.767-1.931,10.212-3.035,2.685-.86,6.309-2.67,9.193-2.07,7.559,1.573,15.1,6.953,21.948,10.444,1.541.785,3.228,1.594,4.927,1.271s3.115-2.381,2.149-3.815c1.971,1.841,4.581,5.524,7.761,4.1a2.658,2.658,0,0,0,1.364-3.537,10.751,10.751,0,0,0,3.75,3.032,3.679,3.679,0,0,0,4.377-1.02,4.349,4.349,0,0,0,.582-2.187,16.524,16.524,0,0,0-1.755-7.6c-5.4-11.777-17.6-20.513-27.983-27.53a22.385,22.385,0,0,0-5.828-3.146,20.426,20.426,0,0,0-5.893-.652,117.494,117.494,0,0,0-37.963,6.134c-2.641.89-5.547.132-8.18-.361a12.751,12.751,0,0,0-5.888-.171,10.153,10.153,0,0,0-5.078,4.11c-2.386,3.31-4.209,7.692-3.925,11.85.216,3.157.456,6.564,4.171,7.226,1.506.269,3.056.1,4.577.262C818.781,1641.267,819.155,1641.327,819.524,1641.4Z" transform="translate(-413.957 -1137.938)" fill="#f8a17a"/>
        <path id="Path_23781" data-name="Path 23781" d="M1061.523,974.2c-14.1-7.712-18.445,11.817-16.019,21.534a31.008,31.008,0,0,0,5.079,11.231c3.355,4.448,12.953,11.826,18.481,6.96,2.509-2.208,2.768-5.959,2.845-9.3C1072.115,995.671,1071.084,979.432,1061.523,974.2Z" transform="translate(-678.639 -783.5)" fill="#f8a17a"/>
        <path id="Path_23790" data-name="Path 23790" d="M1064.886,963.2c19.909,5.105,27.6,42.611,5.392,50.077-23.866,8.023-40.665-26.544-25-43.479C1051.388,963.193,1058.478,961.556,1064.886,963.2Z" transform="translate(-687.927 -778.05)" fill="#206e9a"/>
        <path id="Path_23791" data-name="Path 23791" d="M1076.973,974.558c13.743,2.208,22.209,31.406,8.046,39.442-15.219,8.635-29.5-17.366-20.549-32.342C1067.961,975.817,1072.549,973.847,1076.973,974.558Z" transform="translate(-706.54 -784.594)" fill="#3b2a65"/>
        <g id="Group_50254" data-name="Group 50254" transform="translate(86.787 -4.08)">
          <rect id="Rectangle_3174" data-name="Rectangle 3174" width="219.106" height="133.047" rx="41" transform="translate(0 0)" fill="#6e9a20"/>
          <path id="Path_23793" data-name="Path 23793" d="M1338.443,899.373V838.233l-47.884,26.119Z" transform="translate(-1148.176 -731.304)" fill="#6e9a20"/>
          <rect id="Rectangle_3175" data-name="Rectangle 3175" width="108.465" height="11.608" rx="5.804" transform="translate(77.268 60.907)" fill="#fff"/>
          <rect id="Rectangle_3176" data-name="Rectangle 3176" width="35.55" height="11.608" rx="5.804" transform="translate(33.374 60.907)" fill="#fff"/>
          <rect id="Rectangle_3177" data-name="Rectangle 3177" width="108.465" height="11.608" rx="5.804" transform="translate(33.374 34.546)" fill="#fff"/>
          <rect id="Rectangle_3178" data-name="Rectangle 3178" width="35.55" height="11.608" rx="5.804" transform="translate(150.182 34.546)" fill="#fff"/>
          <rect id="Rectangle_3179" data-name="Rectangle 3179" width="76.179" height="11.608" rx="5.804" transform="translate(109.553 85.006)" fill="#fff"/>
        </g>
        <path id="Path_23814" data-name="Path 23814" d="M129.354,1687.4h771.56c7.86,0,14.231-5.372,14.231-12h0c0-6.628-6.371-12-14.231-12H129.354c-7.86,0-14.231,5.372-14.231,12h0C115.123,1682.027,121.495,1687.4,129.354,1687.4Z" transform="translate(-107.225 -1162.317)" fill="#f4f5f5"/>
        <g id="Group_50262" data-name="Group 50262" transform="translate(601.962 40.172)">
          <path id="Path_23815" data-name="Path 23815" d="M434.684,638.845h28.823a22.346,22.346,0,0,1,22.28,22.28h0a22.3,22.3,0,0,1-9.659,18.328v15.681l-16.038-11.73H434.684a22.346,22.346,0,0,1-22.28-22.28h0A22.346,22.346,0,0,1,434.684,638.845Z" transform="translate(-412.404 -638.845)" fill="#dbb766"/>
          <ellipse id="Ellipse_976" data-name="Ellipse 976" cx="3.381" cy="3.381" rx="3.381" ry="3.381" transform="translate(50.318 26.346) rotate(-103.239)" fill="#fff"/>
          <circle id="Ellipse_977" data-name="Ellipse 977" cx="3.381" cy="3.381" r="3.381" transform="translate(36.692 27.062) rotate(-135)" fill="#fff"/>
          <circle id="Ellipse_978" data-name="Ellipse 978" cx="3.381" cy="3.381" r="3.381" transform="translate(20.548 27.062) rotate(-135)" fill="#fff"/>
        </g>
        <path id="Path_23816" data-name="Path 23816" d="M1228.634,1089.176c4.444-7.6,15.662-11.423,26.5,1.25,10.843-12.673,22.061-8.854,26.5-1.25,10.951,18.737-26.5,40.788-26.5,40.788S1217.683,1107.913,1228.634,1089.176Z" transform="translate(-790.43 -831.505)" fill="#cccccd"/>
        <g id="Group_50263" data-name="Group 50263" transform="translate(405.921 23.992)">
          <rect id="Rectangle_3181" data-name="Rectangle 3181" width="66.432" height="44.324" rx="12" transform="translate(0)" fill="#ffd466"/>
          <path id="Path_23817" data-name="Path 23817" d="M861.571,551.956l-26.908,26.091a4.131,4.131,0,0,1-5.658,0L802.1,551.956" transform="translate(-798.393 -548.331)" fill="#ffd466" stroke="#fff" stroke-miterlimit="10" stroke-width="4"/>
          <line id="Line_4" data-name="Line 4" x1="18.728" y1="18.876" transform="translate(41.494 24.564)" fill="none" stroke="#fff" stroke-miterlimit="10" stroke-width="4"/>
          <line id="Line_5" data-name="Line 5" y1="18.876" x2="18.716" transform="translate(6.222 24.564)" fill="none" stroke="#fff" stroke-miterlimit="10" stroke-width="4"/>
        </g>
        <g id="Group_50268" data-name="Group 50268" transform="translate(549.185 163.989)">
          <g id="Group_50264" data-name="Group 50264" transform="translate(0)">
            <rect id="Rectangle_3182" data-name="Rectangle 3182" width="76.739" height="53.301" rx="12" fill="#6e9a20"/>
          </g>
          <g id="Group_50265" data-name="Group 50265" transform="translate(24.914 51.996)">
            <path id="Path_23818" data-name="Path 23818" d="M592.547,1051.227l-13.455-18.147H606Z" transform="translate(-579.092 -1033.08)" fill="#6e9a20"/>
          </g>
          <g id="Group_50266" data-name="Group 50266" transform="translate(18.18 17.798)">
            <path id="Path_23819" data-name="Path 23819" d="M644.858,972.1h-3.32v-9.089l.033-1.493.053-1.633q-.827.827-1.149,1.085l-1.8,1.45-1.6-2,5.06-4.029h2.729Z" transform="translate(-637.069 -956.395)" fill="#fff"/>
          </g>
          <g id="Group_50267" data-name="Group 50267" transform="translate(34.371 17.269)">
            <path id="Path_23820" data-name="Path 23820" d="M575.362,955.209H564.471a8.444,8.444,0,0,0-8.419,8.419h0a8.425,8.425,0,0,0,3.65,6.926v5.925l6.06-4.432h9.6a8.444,8.444,0,0,0,8.419-8.419h0A8.444,8.444,0,0,0,575.362,955.209Z" transform="translate(-556.052 -955.209)" fill="#fff"/>
          </g>
        </g>
      </g>
      <path id="Path_7022" data-name="Path 7022" d="M608.646,199.779c5.722,0,10.584-4.313,12.1-10.73,1.555-6.6-1.029-12.854-6.435-15.557-6.823-3.41-16.6-2.69-22.068,5.307-2.161,3.163-2.228,7.2-.176,11.091A19.4,19.4,0,0,0,608.646,199.779Zm-2.534-22.09a12.332,12.332,0,0,1,5.46,1.283h0c3.47,1.736,3.9,5.754,3.21,8.67-.7,2.992-2.876,6.009-6.135,6.009a13.428,13.428,0,0,1-11.16-6.617c-.685-1.3-1.274-3.185-.186-4.775A10.411,10.411,0,0,1,606.112,177.689Z" transform="translate(-364.898 270.933)" fill="#cccccd"/>
      <path id="Path_7023" data-name="Path 7023" d="M497.966,159.125a18.937,18.937,0,0,0,4.9-.68c6.414-1.724,13.353-7.011,13.428-14.548a15.232,15.232,0,0,0-4.457-11.123,15.863,15.863,0,0,0-11.855-4.409c-4.568.1-8.9,3.044-11.581,7.879-3.22,5.8-3.383,12.78-.418,17.781C489.944,157.337,493.574,159.125,497.966,159.125Zm2.456-24.361a9.552,9.552,0,0,1,6.914,2.567,8.9,8.9,0,0,1,2.557,6.5h0c-.04,3.967-4.508,7.3-8.69,8.425-2.713.732-6.368.773-7.713-1.5-1.8-3.032-1.6-7.617.51-11.408,1.565-2.822,3.853-4.535,6.121-4.585Z" transform="translate(-1.079 157.307)" fill="#6e9a20"/>
      <path id="Path_7024" data-name="Path 7024" d="M397.887,231.183a12.412,12.412,0,0,0,6.565-1.8h0a15.251,15.251,0,0,0,7.065-9.682,15.918,15.918,0,0,0-2.55-12.392c-2.505-3.815-7.268-5.922-12.817-5.634-6.63.346-12.634,3.908-15.3,9.073-2.389,4.629-.8,10.361,4.152,14.964C388.3,228.78,393.121,231.183,397.887,231.183Zm-.725-23.134c2.915,0,5.3,1.014,6.452,2.775a9.646,9.646,0,0,1,1.654,7.478,8.9,8.9,0,0,1-4.157,5.619h0c-3.383,2.07-8.583.052-11.749-2.9-2.06-1.917-4.035-4.986-2.824-7.339,1.616-3.131,5.616-5.388,9.946-5.616C396.712,208.055,396.939,208.05,397.162,208.05Z" transform="translate(348.754 570.249)" fill="#fff"/>
    </g>
    <circle id="Oval_Copy" data-name="Oval Copy" cx="19" cy="19" r="19" transform="translate(629.418 4697.333)" fill="#cccccd"/>
    <circle id="Oval_Copy_2-2" data-name="Oval Copy 2" cx="13" cy="13" r="13" transform="translate(823.191 4697.333)" fill="#fbfbfb"/>
    <g id="Group_50308" data-name="Group 50308" transform="translate(228.958 4757.745)">
      <g id="Group_50307" data-name="Group 50307" transform="translate(118.941 142.755)">
        <g id="Group_50306" data-name="Group 50306">
          <g id="Group_50305" data-name="Group 50305">
            <path id="Path_29727" data-name="Path 29727" d="M294.006,429.7c18.646,22.393,45.259,41.081,68.978,22.393,29.629-23.343,76.556-121.447,85.669-140.113,9.071-18.581,8.384-25.979,0-27.231l.983-1.951a6.18,6.18,0,0,0-2.821-8.344h0a6.181,6.181,0,0,0-8.148,2.642l-1.137,2.125,1.038-1.939a6.182,6.182,0,0,0-2.5-8.353l-.864-.469a6.183,6.183,0,0,0-8.025,1.909l-2.353,3.389L442.286,243a6.7,6.7,0,0,0-2.256-8.972h0a6.7,6.7,0,0,0-9.26,2.139l-23,37.1s-14.727-4.88-20.7,7.525,3.142,32.36,3.142,32.36l-45.56,75.523-17.67-17.654Z" transform="translate(-71.022 -118.055)" fill="#f8a17a"/>
            <path id="Path_29728" data-name="Path 29728" d="M193.069,424.473v53.058H346.144l-4.219-60.343,48.5-65.02s-49.674-50.039-58.013-55.925-71.228-14.424-71.228-14.424l-27.126-3.107s-64.955,24.685-76.188,36.844-38.934,103.113-38.934,103.113Z" transform="translate(-118.941 -105.541)" fill="#2c5f8c"/>
            <path id="Path_29729" data-name="Path 29729" d="M178.02,400.061l147.285-9.808.689,6.3.7,9.935L177.139,416.45V403.84Zm4.71-20.2L323.124,370.3l-1.773-16.209L186.6,363.268Z" transform="translate(-103.011 -84.908)" fill="#fff"/>
            <g id="Group_50293" data-name="Group 50293" transform="translate(60.526 29.333)">
              <g id="Group_50292" data-name="Group 50292">
                <path id="Path_29730" data-name="Path 29730" d="M213.459,320.071c-5.654-13.808-18.054-56.889-18.054-56.889s-23.777,11.806-28.386-8.275c-4.108-17.893,15.43-21.847,26.018-14.568,0,0-25.3-61.052,28.8-73.225s64.413,62.759,66.99,80.881c4.541,31.919-16.4,50.255-32.775,54.007l3.834,19.434s3.552,16.983-12.482,19.731C226.034,344.831,217.244,329.317,213.459,320.071Z" transform="translate(-166.46 -165.784)" fill="#f8a17a"/>
              </g>
            </g>
            <path id="Path_29731" data-name="Path 29731" d="M212.348,252.883c8.242-10.445,1.745-31.773,1.745-31.773a234.019,234.019,0,0,0,43.461-5.259c29.764-6.765,46.954-15.887,54.095-31.951,6.761-15.215,4.068-41.735-21.131-41.135-23.968.571-28.456,21.977-66.715,20s-44.574,27.047-44.574,27.047c-5.248,1.409-5.173,7.423-8.931,8.328-32.122,7.729,1.606,49.431,1.606,49.431l24.65,3.217s8.5,25.1,13.893,23.829S212.348,252.883,212.348,252.883Z" transform="translate(-108.681 -142.755)" fill="#122030"/>
            <g id="Group_50301" data-name="Group 50301" transform="translate(67.669 108.036)">
              <path id="Path_29737" data-name="Path 29737" d="M188.61,238.227a1.439,1.439,0,0,0,.292-.032,1.363,1.363,0,0,0,1.039-1.621,11.464,11.464,0,0,0-17.227-7.306,1.364,1.364,0,0,0,1.434,2.321,8.733,8.733,0,0,1,13.132,5.566A1.363,1.363,0,0,0,188.61,238.227Z" transform="translate(-172.068 -227.575)" fill="#122030"/>
            </g>
            <g id="Group_50302" data-name="Group 50302" transform="translate(116.987 161.548)">
              <path id="Path_29738" data-name="Path 29738" d="M243.92,273.589c-19.457,3.383-33.132-4-33.132-4s7.929,12.6,34.241,9.631Z" transform="translate(-210.788 -269.587)" fill="#d65258"/>
            </g>
            <g id="Group_50303" data-name="Group 50303" transform="translate(114.67 110.129)">
              <path id="Path_29739" data-name="Path 29739" d="M217.588,234.289a4.34,4.34,0,1,1-3.549-5.008A4.342,4.342,0,0,1,217.588,234.289Z" transform="translate(-208.969 -229.218)" fill="#f75244"/>
            </g>
            <g id="Group_50304" data-name="Group 50304" transform="translate(166.588 106.987)">
              <path id="Path_29740" data-name="Path 29740" d="M258.349,231.823a4.34,4.34,0,1,1-3.547-5.01A4.342,4.342,0,0,1,258.349,231.823Z" transform="translate(-249.73 -226.751)" fill="#f75244"/>
            </g>
          </g>
        </g>
      </g>
      <path id="Path_29741" data-name="Path 29741" d="M127.908,389.2s-2.643,16.38-5.285,29.51,6.753,28.58,25.608,28.58H439.1s4.309-22.87-11.312-23.947c0,0-22.085-18.017-39.86-13.587s-23.515,7.124-23.515,7.124L192.181,394.23Z" transform="translate(0.888 67.457)" fill="#f8a17a"/>
      <circle id="Ellipse_979" data-name="Ellipse 979" cx="22.791" cy="22.791" r="22.791" transform="translate(176.042 232.255)" fill="#206e9a"/>
      <g id="Group_50310" data-name="Group 50310" transform="translate(237.128 218.434)">
        <g id="Group_50309" data-name="Group 50309">
          <path id="Path_29732" data-name="Path 29732" d="M232.971,238.4a1.412,1.412,0,0,0,.34-.042,8.68,8.68,0,0,0,6.1-11l-4.254-13.508a1.362,1.362,0,0,0-2.6.815l4.254,13.509a5.947,5.947,0,0,1-4.187,7.547,1.363,1.363,0,0,0,.341,2.682Z" transform="translate(-206.289 -199.237)" fill="#122030"/>
          <path id="Path_29733" data-name="Path 29733" d="M249.035,205.969c2.9-5.277-12.91-4.387-12.54-1.373S247.327,209.078,249.035,205.969Z" transform="translate(-204.952 -202.171)" fill="#122030"/>
          <path id="Path_29734" data-name="Path 29734" d="M212.785,213.7c-5.4-4.271,11.651-10.368,12.6-7.027S215.967,216.219,212.785,213.7Z" transform="translate(-211.729 -201.201)" fill="#122030"/>
          <path id="Path_29735" data-name="Path 29735" d="M215.136,222.225a5.934,5.934,0,1,0,6-5.865A5.935,5.935,0,0,0,215.136,222.225Z" transform="translate(-210.797 -198.288)" fill="#122030"/>
          <g id="Group_50300" data-name="Group 50300" transform="translate(33.242 13.968)">
            <g id="Group_50299" data-name="Group 50299">
              <path id="Path_29736" data-name="Path 29736" d="M237.828,219a5.934,5.934,0,1,0,6-5.867A5.933,5.933,0,0,0,237.828,219Z" transform="translate(-237.828 -213.138)" fill="#122030"/>
            </g>
          </g>
        </g>
        <path id="Path_29742" data-name="Path 29742" d="M223.581,234.314a20.317,20.317,0,0,0,19.158,4.8s-3.676,10.038-12.982,7.357C221.033,243.962,223.581,234.314,223.581,234.314Z" transform="translate(-208.58 -193.373)" fill="#fff"/>
      </g>
      <path id="Path_29743" data-name="Path 29743" d="M176.989,179.712c-7.137,14.752,11.216,48.208,11.216,48.208l-12.964,6.819C150.331,176.08,176.989,179.712,176.989,179.712Z" transform="translate(12.499 10.104)" fill="#206e9a"/>
    </g>
    <g id="Group_50313" data-name="Group 50313" transform="translate(58.081 4800.846)">
      <path id="Path_23787" data-name="Path 23787" d="M990.345,1088.439a71.412,71.412,0,0,0,10.424-.769l-.623-4.23a64.262,64.262,0,0,1-36.508-5.1,47.063,47.063,0,0,1-7.9-4.538,37.3,37.3,0,0,1-10.232-11.28l-3.691,2.16a41.611,41.611,0,0,0,11.414,12.583,51.312,51.312,0,0,0,8.61,4.956A67.67,67.67,0,0,0,990.345,1088.439Z" transform="translate(-561.52 -833.408)" fill="#206e9a"/>
      <g id="Group_50251" data-name="Group 50251" transform="translate(429.503 243.544)">
        <path id="Path_23788" data-name="Path 23788" d="M930.777,1098c-5.157-4.426-16.627-4.047-20.409.548-2.8,3.406-1.947,7.729,1.139,10.608,3.651,3.407,8.165,3.208,12.719,2.182C929.927,1110.048,936.993,1103.33,930.777,1098Z" transform="translate(-908.667 -1094.878)" fill="#3b2a65"/>
      </g>
    </g>
    <path id="Path_29744" data-name="Path 29744" d="M17.5,0A17.5,17.5,0,1,1,0,17.5,17.5,17.5,0,0,1,17.5,0Z" transform="translate(410 4995)" fill="#3b2a65"/>
  </g>
</svg>
