<svg id="dates" xmlns="http://www.w3.org/2000/svg" width="80" height="79.534" viewBox="0 0 80 79.534">
  <g id="Group_50493" data-name="Group 50493" transform="translate(35.973 0.608)">
    <path id="Path_30210" data-name="Path 30210" d="M254.135,68.489a19.789,19.789,0,0,1-10.191-6.719c-3.7-4.44-5.831-9.958-7.911-15.362q-2.786-7.313-5.588-14.617c-.593-1.529-1.173-3.055-1.613-4.631a39.493,39.493,0,0,1-.97-12.763,8.658,8.658,0,0,1,3.707-6.634c4.118-2.841,11.673-5.151,21.342,4.726a44.488,44.488,0,0,1,7.157,9.913L265.56,32.49a55.666,55.666,0,0,1,4.033,8.555,31.668,31.668,0,0,1,.593,17.542c-.956,3.38-3.171,3.8-3.97,4.735-.163-1.8-1.236-3.331-3.188-2.783a13.052,13.052,0,0,0-5.439,2.62c-1.111,1.005-.445.946-1.2,2.246-.188.335.416.351.91,1.867C256.4,67.46,255.1,68.721,254.135,68.489Z" transform="translate(-227.75 -5.312)" fill="#c25c37"/>
  </g>
  <g id="Group_50494" data-name="Group 50494" transform="translate(35.997 0.609)">
    <path id="Path_30211" data-name="Path 30211" d="M254.132,68.494a19.839,19.839,0,0,1-10.195-6.719c-3.7-4.444-5.827-9.957-7.909-15.366-1.855-4.875-3.731-9.742-5.585-14.617-.6-1.525-1.172-3.052-1.616-4.631a39.436,39.436,0,0,1-.966-12.762,8.646,8.646,0,0,1,3.7-6.634c3.173-2.19,8.387-4.058,15.029-.289a13.35,13.35,0,0,0-6.679,2.414,8.67,8.67,0,0,0-3.711,6.634,39.453,39.453,0,0,0,.973,12.764c.438,1.579,1.02,3.107,1.61,4.631q2.791,7.314,5.592,14.618c2.077,5.407,4.207,10.923,7.909,15.366a22,22,0,0,0,4.048,3.8C255.6,68.117,254.787,68.655,254.132,68.494Z" transform="translate(-227.746 -5.317)" fill="#b25234"/>
  </g>
  <g id="Group_50495" data-name="Group 50495" transform="translate(35.346 0)">
    <path id="Path_30212" data-name="Path 30212" d="M251.116,65.914a2,2,0,0,1-.462-.048h0a20.385,20.385,0,0,1-10.521-6.928c-3.774-4.524-5.929-10.123-8.011-15.537q-1.389-3.648-2.785-7.287-1.407-3.664-2.806-7.332c-.633-1.634-1.194-3.117-1.631-4.689a40.591,40.591,0,0,1-.991-12.966,9.237,9.237,0,0,1,3.976-7.113c3.889-2.683,11.936-5.627,22.144,4.8a45.217,45.217,0,0,1,7.26,10.053l5.491,10.088a56.314,56.314,0,0,1,4.076,8.654,32.155,32.155,0,0,1,.6,17.913,7.058,7.058,0,0,1-3.295,4.356,4.225,4.225,0,0,0-.8.615.626.626,0,0,1-1.1-.351,2.822,2.822,0,0,0-.974-2.08,1.627,1.627,0,0,0-1.421-.156,12.708,12.708,0,0,0-5.189,2.481c-.493.446-.516.553-.571.814a3.674,3.674,0,0,1-.376,1.049,4.65,4.65,0,0,1,.834,1.595.627.627,0,0,1,.005.372C254.305,65.092,252.351,65.914,251.116,65.914Zm-.166-1.265a3.921,3.921,0,0,0,2.311-.722,3.148,3.148,0,0,0-.555-.949.929.929,0,0,1-.2-1.113,2.7,2.7,0,0,0,.369-.927,2.378,2.378,0,0,1,.955-1.479,13.812,13.812,0,0,1,5.7-2.759,2.857,2.857,0,0,1,2.465.332,3.529,3.529,0,0,1,1.3,1.916l.17-.113a5.813,5.813,0,0,0,2.783-3.654,31.283,31.283,0,0,0-.584-17.169,55.2,55.2,0,0,0-3.976-8.436l-5.5-10.113a43.963,43.963,0,0,0-7.055-9.773c-9.086-9.285-16.185-7.652-20.537-4.648a7.994,7.994,0,0,0-3.438,6.155,39.329,39.329,0,0,0,.948,12.558c.422,1.516.971,2.969,1.593,4.575q1.4,3.673,2.8,7.334,1.395,3.642,2.785,7.287c2.047,5.32,4.165,10.818,7.807,15.184a19.131,19.131,0,0,0,9.86,6.513Z" transform="translate(-223.789 -1.472)" fill="#00000b"/>
  </g>
  <g id="Group_50496" data-name="Group 50496" transform="translate(64.546 55.656)">
    <path id="Path_30213" data-name="Path 30213" d="M411.4,360.635c1.393-.66,2.659-1.5,3.733-2.045.587-.3,1.155-.618,1.7-.961a2.269,2.269,0,0,0-1.635-4.159q-.135.029-.27.066a13.054,13.054,0,0,0-5.439,2.62c-1.111,1.005-.445.946-1.2,2.246a.864.864,0,0,0-.063.415,2.2,2.2,0,0,0,3.171,1.817Z" transform="translate(-408.229 -353.424)" fill="#e1b378"/>
  </g>
  <g id="Group_50497" data-name="Group 50497" transform="translate(63.921 55.017)">
    <path id="Path_30214" data-name="Path 30214" d="M407.108,358.088a2.911,2.911,0,0,1-1.527-.434,2.648,2.648,0,0,1-1.294-2.213,1.4,1.4,0,0,1,.14-.735,2.7,2.7,0,0,0,.37-.928,2.377,2.377,0,0,1,.955-1.479,13.812,13.812,0,0,1,5.7-2.76c.1-.028.2-.053.3-.075a2.8,2.8,0,0,1,3.255,1.723,2.857,2.857,0,0,1-1.157,3.578c-.541.34-1.127.673-1.748.989-.432.221-.906.494-1.406.784-.707.409-1.507.872-2.344,1.269A2.9,2.9,0,0,1,407.108,358.088Zm-1.565-2.811a.994.994,0,0,0,0,.131,1.414,1.414,0,0,0,.7,1.179,1.651,1.651,0,0,0,1.578.089c.791-.376,1.534-.8,2.253-1.221.516-.3,1-.58,1.465-.814.586-.3,1.141-.613,1.651-.934a1.619,1.619,0,0,0,.664-2.047,1.56,1.56,0,0,0-1.835-.97c-.077.016-.153.035-.23.057a12.69,12.69,0,0,0-5.19,2.481c-.492.446-.516.553-.571.814a3.84,3.84,0,0,1-.48,1.229Z" transform="translate(-404.282 -349.39)" fill="#00000b"/>
  </g>
  <g id="Group_50499" data-name="Group 50499" transform="translate(39.23 2.519)" opacity="0.5">
    <g id="Group_50498" data-name="Group 50498">
      <path id="Path_30215" data-name="Path 30215" d="M269.753,72.87a2.245,2.245,0,0,0,.577-.85c.163.028.326.063.49.08a2.511,2.511,0,0,0,2.015-.469c1.068-1.021.1-2.782-.876-3.893l-4.2-4.8c-.293-.335-.607-.758-.472-1.182.2-.622,1.09-.591,1.706-.376a10.249,10.249,0,0,1,4.932,3.747,10.862,10.862,0,0,0,1.338-4.352,3.063,3.063,0,0,0-.327-1.953,4.121,4.121,0,0,0-1.961-1.264,13.166,13.166,0,0,1-5.909-5.135,3.918,3.918,0,0,1-2.458-2.441,6.291,6.291,0,0,1,.063-3.969,6.827,6.827,0,0,0,.555-2.415c-.183-2.857-4.787-3.821-4.937-6.68-.055-1.052.559-2.053.51-3.106a5.569,5.569,0,0,0-1.2-2.667,26.388,26.388,0,0,1-3.3-7.159A7.373,7.373,0,0,1,255.915,21a3.067,3.067,0,0,1,1.609-2.425c1.484-.68,3.276.417,4.013,1.874a13.075,13.075,0,0,1,.886,4.783,24.267,24.267,0,0,0,1.147,5.463,1.324,1.324,0,0,0,.467.751,3.721,3.721,0,0,0,.964.219c.695.211.967,1.033,1.115,1.744.653,3.129.908,6.33,1.638,9.44a7.322,7.322,0,0,0,1.157,2.833,7.366,7.366,0,0,1,.924,1.226c.431.908.11,2.012.426,2.967.618,1.87,3.081,2.145,4.823,3.063a1.313,1.313,0,0,1,.583.5,1.994,1.994,0,0,1-.036,1.269,3.052,3.052,0,0,0,2.2,3.37,5.39,5.39,0,0,1,1.215.305c.939.482,1.029,1.752,1.252,2.784A6.566,6.566,0,0,0,282.758,65a.67.67,0,0,0,.505.184c.245-.05.358-.331.411-.576.585-2.706-1.158-5.4-3.28-7.181a11.308,11.308,0,0,1-2.675-2.6,2.666,2.666,0,0,1,.313-3.408,7.785,7.785,0,0,0,1.228-.814,1.963,1.963,0,0,0,.416-1.145,4.5,4.5,0,0,0-2.889-4.506c-.954-.339-2.094-.388-2.764-1.147-1.51-1.714,1.1-4.458.259-6.582-.689-1.737-3.286-2.05-4-3.776a7.727,7.727,0,0,1-.287-2.14,10.256,10.256,0,0,0-1.768-4.117l-2.963-4.8a14.526,14.526,0,0,0-2.925-3.746,4.917,4.917,0,0,0-4.444-1.127,5.919,5.919,0,0,0-2.1,1.308,16.026,16.026,0,0,0-4.226,6.032,8.93,8.93,0,0,1-.155-3c-.154,1.408-.234,2.821-.281,4.237-.059.192-.125.381-.176.575l-.367-1.7c-2.328,1.752-2.674,5.195-1.893,8s2.436,5.29,3.457,8.02c.588,1.57.962,3.213,1.5,4.8,2.159,6.325,6.853,11.482,9.864,17.419.321.97.689,1.928,1.055,2.879a21.2,21.2,0,0,0,1.121,2.553,10.843,10.843,0,0,0,.844,1.86A4.54,4.54,0,0,0,269.753,72.87Zm-8.274-19.75a9.949,9.949,0,0,1-.313-1.069,2.582,2.582,0,0,1,.313.888C261.487,53,261.475,53.059,261.479,53.12Z" transform="translate(-248.325 -17.385)" fill="#d8633f"/>
    </g>
  </g>
  <g id="Group_50500" data-name="Group 50500" transform="translate(40.416 9.808)">
    <path id="Path_30216" data-name="Path 30216" d="M268.544,89.652a1.084,1.084,0,0,0-.221-.738c-.966-1.58-2.411-3-2.582-4.847a11.173,11.173,0,0,0-.125-1.9c-.368-1.363-1.911-2.135-2.348-3.477a10.94,10.94,0,0,1-.2-2.19c-.275-2.458-2.592-4.249-3.129-6.664-.319-1.439-.023-2.977-.873-4.27-.376-.57-2.978-3.11-3.425-1.743-.277.846,1.107,3.108,1.439,3.909a31.026,31.026,0,0,0,2.013,4.1,24.238,24.238,0,0,1,1.4,2.389c1.152,2.515.876,5.577,2.358,7.913a4.311,4.311,0,0,1,.576,1.04,3.957,3.957,0,0,1,.091,1.05A6.469,6.469,0,0,0,266.988,90C267.547,90.253,268.432,90.255,268.544,89.652Z" transform="translate(-255.603 -63.422)" fill="#c25c37"/>
  </g>
  <g id="Group_50501" data-name="Group 50501" transform="translate(60.889 11.234)" opacity="0.1">
    <path id="Path_30217" data-name="Path 30217" d="M402.024,106.924c.367-1.286.723-2.72.111-3.909-.472-.916-1.486-1.607-1.524-2.637-.012-.321.078-.638.082-.959a6.606,6.606,0,0,0-.89-2.378c-.563-1.406-.313-3.08-1.068-4.394-.55-.959-1.578-1.607-1.995-2.629-.4-.973-.162-2.1-.483-3.1a4.833,4.833,0,0,0-1.105-1.719c-1.536-1.69-3.5-3.035-4.6-5.039a22.627,22.627,0,0,0-1.368-2.682c-.41-.563-.947-1.014-1.4-1.54-.876-1.012-1.381-2.691-2.4-3.5-.8,1.365.461,4.421,1.353,5.482a7.782,7.782,0,0,1,.819,1.012c.438.746.475,1.752,1.149,2.294.568.459,1.414.428,1.991.876.986.764.655,2.4,1.41,3.4.607.8,1.8,1.015,2.327,1.866.476.763.254,1.744.284,2.642a4.576,4.576,0,0,0,2.23,3.731,5.377,5.377,0,0,1,.958.594,2.839,2.839,0,0,1,.68,2.316,8.747,8.747,0,0,0-.044,2.489c.357,1.56,1.951,2.6,2.334,4.153.313,1.261-.234,2.66.262,3.861a.532.532,0,0,0,.319.351C401.749,107.567,401.942,107.211,402.024,106.924Z" transform="translate(-385.13 -72.433)" fill="#fff"/>
  </g>
  <g id="Group_50502" data-name="Group 50502" transform="translate(0.601 18.537)">
    <path id="Path_30218" data-name="Path 30218" d="M18.376,119.089a19.791,19.791,0,0,1,11.078,5.132c4.322,3.841,7.246,8.982,10.105,14.019q3.842,6.818,7.7,13.625c.814,1.424,1.614,2.846,2.283,4.343A39.5,39.5,0,0,1,52.4,168.687a8.657,8.657,0,0,1-2.681,7.111c-3.651,3.422-10.778,6.828-21.8-1.5a44.486,44.486,0,0,1-8.55-8.74l-6.929-9.167a55.67,55.67,0,0,1-5.257-7.862,31.672,31.672,0,0,1-3.192-17.259C4.42,127.782,6.548,127.037,7.2,126c.429,1.752,1.717,3.111,3.567,2.278a13.055,13.055,0,0,0,4.99-3.4c.949-1.159.3-1,.851-2.4.136-.359-.463-.285-1.177-1.711.864-.323,1.961-1.763,2.945-1.677Z" transform="translate(-3.797 -119.085)" fill="#c25c37"/>
  </g>
  <g id="Group_50503" data-name="Group 50503" transform="translate(13.093 18.536)">
    <path id="Path_30219" data-name="Path 30219" d="M84.921,119.083A19.841,19.841,0,0,1,96,124.215c4.318,3.843,7.241,8.981,10.1,14.019,2.559,4.545,5.136,9.08,7.694,13.625.814,1.419,1.612,2.843,2.286,4.34a39.43,39.43,0,0,1,2.851,12.477,8.646,8.646,0,0,1-2.678,7.113c-2.813,2.635-7.687,5.257-14.819,2.518a13.353,13.353,0,0,0,6.247-3.38,8.669,8.669,0,0,0,2.684-7.112,39.467,39.467,0,0,0-2.858-12.478c-.667-1.5-1.47-2.921-2.28-4.34q-3.847-6.819-7.7-13.625c-2.856-5.039-5.783-10.177-10.1-14.019a22,22,0,0,0-4.569-3.154C83.525,119.678,84.25,119.021,84.921,119.083Z" transform="translate(-82.859 -119.079)" fill="#b25234"/>
  </g>
  <g id="Group_50504" data-name="Group 50504" transform="translate(0 17.912)">
    <path id="Path_30220" data-name="Path 30220" d="M37.508,176.763c-3.567,0-7.955-1.351-13.173-5.293a45.194,45.194,0,0,1-8.673-8.863l-6.928-9.16a56.364,56.364,0,0,1-5.316-7.953A32.151,32.151,0,0,1,.16,127.87a7.06,7.06,0,0,1,2.612-4.8,4.219,4.219,0,0,0,.7-.728.626.626,0,0,1,1.138.184,2.823,2.823,0,0,0,1.271,1.913,1.638,1.638,0,0,0,1.43-.056,12.7,12.7,0,0,0,4.762-3.224c.421-.515.428-.626.444-.887a3.686,3.686,0,0,1,.216-1.093,4.668,4.668,0,0,1-1.064-1.453.625.625,0,0,1-.063-.366c.144-1.031,2.464-2.32,3.622-2.214h.013a20.386,20.386,0,0,1,11.432,5.284c4.4,3.917,7.368,9.132,10.232,14.177q1.915,3.4,3.833,6.784,1.934,3.42,3.865,6.843c.869,1.521,1.642,2.9,2.309,4.395A40.672,40.672,0,0,1,49.821,165.3a9.238,9.238,0,0,1-2.876,7.626A13.664,13.664,0,0,1,37.508,176.763Zm-33.746-52.9-.15.137A5.811,5.811,0,0,0,1.4,128.027a31.245,31.245,0,0,0,3.129,16.891,55.235,55.235,0,0,0,5.18,7.744l6.947,9.186a43.953,43.953,0,0,0,8.428,8.619c10.366,7.833,17.14,5.163,21,1.546a7.99,7.99,0,0,0,2.485-6.6,39.39,39.39,0,0,0-2.8-12.28c-.643-1.439-1.4-2.793-2.253-4.288q-1.931-3.424-3.865-6.84-1.918-3.391-3.832-6.784C33,130.27,30.1,125.147,25.844,121.367a19.132,19.132,0,0,0-10.718-4.976,3.919,3.919,0,0,0-2.177,1.057,3.126,3.126,0,0,0,.689.856.93.93,0,0,1,.36,1.073,2.687,2.687,0,0,0-.227.97,2.373,2.373,0,0,1-.725,1.6,13.813,13.813,0,0,1-5.222,3.574,2.856,2.856,0,0,1-2.488.038,3.523,3.523,0,0,1-1.573-1.7Z" transform="translate(0 -115.141)" fill="#00000b"/>
  </g>
  <g id="Group_50505" data-name="Group 50505" transform="translate(4.265 19.845)">
    <path id="Path_30221" data-name="Path 30221" d="M32.679,127.364c-1.279.86-2.406,1.878-3.388,2.577-.536.383-1.051.783-1.538,1.2a2.269,2.269,0,0,0,2.234,3.871q.129-.048.257-.106a13.055,13.055,0,0,0,4.99-3.4c.949-1.159.3-1,.851-2.4a.866.866,0,0,0,0-.419,2.2,2.2,0,0,0-3.406-1.328Z" transform="translate(-26.938 -126.965)" fill="#e1b378"/>
  </g>
  <g id="Group_50506" data-name="Group 50506" transform="translate(3.646 19.228)">
    <path id="Path_30222" data-name="Path 30222" d="M25.858,132.521a2.915,2.915,0,0,1-1.8-5.132c.483-.415,1.015-.831,1.583-1.237.395-.282.822-.626,1.273-.984.638-.509,1.361-1.087,2.128-1.6a2.9,2.9,0,0,1,2.762-.26,2.645,2.645,0,0,1,1.608,2,1.394,1.394,0,0,1-.031.751,2.68,2.68,0,0,0-.226.968,2.373,2.373,0,0,1-.725,1.6,13.813,13.813,0,0,1-5.222,3.574c-.094.042-.193.083-.292.12A3.013,3.013,0,0,1,25.858,132.521Zm3.88-7.916c-.726.488-1.4,1.024-2.047,1.542-.465.372-.9.722-1.326,1.024-.538.384-1.041.777-1.5,1.169a1.617,1.617,0,0,0-.352,2.123,1.56,1.56,0,0,0,1.958.689c.075-.028.148-.058.221-.091a12.693,12.693,0,0,0,4.762-3.224c.421-.515.428-.626.444-.887a3.836,3.836,0,0,1,.29-1.3.913.913,0,0,0-.015-.13,1.417,1.417,0,0,0-.866-1.064,1.653,1.653,0,0,0-1.575.146Z" transform="translate(-23.033 -123.07)" fill="#00000b"/>
  </g>
  <g id="Group_50508" data-name="Group 50508" transform="translate(5.169 24.006)" opacity="0.5">
    <g id="Group_50507" data-name="Group 50507">
      <path id="Path_30223" data-name="Path 30223" d="M45.2,153.629a2.244,2.244,0,0,0-.444.927c-.166,0-.331-.014-.5-.007a2.511,2.511,0,0,0-1.923.763c-.9,1.169.313,2.766,1.443,3.721l4.869,4.12c.34.287.713.66.643,1.1-.1.644-.991.746-1.632.622a10.25,10.25,0,0,1-5.434-2.973,10.862,10.862,0,0,0-.676,4.506,3.063,3.063,0,0,0,.613,1.882,4.123,4.123,0,0,0,2.128.959,13.165,13.165,0,0,1,6.607,4.2,3.918,3.918,0,0,1,2.794,2.052,6.29,6.29,0,0,1,.525,3.934,6.827,6.827,0,0,0-.188,2.471c.605,2.8,5.3,3.067,5.874,5.873.211,1.033-.25,2.113-.043,3.147a5.578,5.578,0,0,0,1.583,2.46,26.392,26.392,0,0,1,4.33,6.589,7.371,7.371,0,0,1,.814,2.9,3.066,3.066,0,0,1-1.229,2.634c-1.367.893-3.3.074-4.247-1.257a13.1,13.1,0,0,1-1.586-4.6,24.269,24.269,0,0,0-1.946-5.232,1.324,1.324,0,0,0-.573-.671,3.819,3.819,0,0,0-.986-.073c-.718-.105-1.11-.876-1.362-1.559-1.11-3-1.839-6.125-3.023-9.094a7.324,7.324,0,0,0-1.565-2.629,7.347,7.347,0,0,1-1.1-1.075c-.563-.834-.408-1.973-.862-2.87-.889-1.757-3.366-1.664-5.225-2.312a1.314,1.314,0,0,1-.65-.4,1.993,1.993,0,0,1-.153-1.261,3.052,3.052,0,0,0-2.677-3,5.382,5.382,0,0,1-1.248-.123c-1-.337-1.278-1.579-1.651-2.566a6.567,6.567,0,0,0-3-3.43.67.67,0,0,0-.527-.106c-.235.086-.3.381-.321.63-.177,2.763,1.948,5.171,4.31,6.614A11.332,11.332,0,0,1,40,172.66a2.667,2.667,0,0,1,.2,3.417c-.342.354-.825.573-1.094.986a1.964,1.964,0,0,0-.241,1.194,4.5,4.5,0,0,0,3.526,4.026c.994.193,2.128.073,2.9.724,1.747,1.47-.423,4.569.722,6.547.939,1.616,3.554,1.54,4.517,3.141a7.725,7.725,0,0,1,.6,2.073,10.26,10.26,0,0,0,2.36,3.809l3.644,4.307a14.524,14.524,0,0,0,3.449,3.27,4.917,4.917,0,0,0,4.559.456,5.92,5.92,0,0,0,1.878-1.6,16.028,16.028,0,0,0,3.283-6.593,8.931,8.931,0,0,1,.6,2.945c-.057-1.415-.188-2.825-.352-4.232.029-.2.066-.4.088-.595l.615,1.622c2.041-2.08,1.873-5.535.683-8.2s-3.192-4.869-4.61-7.417c-.814-1.466-1.428-3.034-2.2-4.522-3.074-5.934-8.482-10.337-12.342-15.761-.462-.912-.966-1.8-1.471-2.691a21.2,21.2,0,0,0-1.488-2.358,10.833,10.833,0,0,0-1.106-1.709A4.539,4.539,0,0,0,45.2,153.629Zm11.115,18.3a9.9,9.9,0,0,1,.469,1.011,2.588,2.588,0,0,1-.442-.831C56.325,172.052,56.328,171.99,56.316,171.931Z" transform="translate(-32.647 -153.629)" fill="#d8633f"/>
    </g>
  </g>
  <g id="Group_50509" data-name="Group 50509" transform="translate(28.2 43.998)">
    <path id="Path_30224" data-name="Path 30224" d="M178.357,280.551a1.085,1.085,0,0,0,.328.7c1.189,1.419,2.831,2.611,3.273,4.409a11.183,11.183,0,0,0,.406,1.862c.566,1.293,2.207,1.827,2.838,3.09a10.935,10.935,0,0,1,.525,2.137c.636,2.39,3.192,3.818,4.082,6.125.529,1.377.464,2.942,1.5,4.092.456.508,3.407,2.634,3.646,1.215.148-.876-1.556-2.909-2.006-3.652a31.021,31.021,0,0,0-2.6-3.755,24.279,24.279,0,0,1-1.738-2.155c-1.513-2.316-1.695-5.382-3.5-7.475a4.316,4.316,0,0,1-.724-.943,3.96,3.96,0,0,1-.246-1.025,6.476,6.476,0,0,0-4.291-5.195C179.253,279.808,178.381,279.937,178.357,280.551Z" transform="translate(-178.357 -279.91)" fill="#c25c37"/>
  </g>
  <g id="Group_50510" data-name="Group 50510" transform="translate(2.476 38.035)" opacity="0.1">
    <path id="Path_30225" data-name="Path 30225" d="M15.777,242.9c-.173,1.326-.313,2.8.471,3.88.6.836,1.709,1.368,1.9,2.378.06.313.018.643.063.961a6.562,6.562,0,0,0,1.234,2.217c.768,1.306.767,3,1.709,4.187.689.867,1.8,1.355,2.363,2.306.536.9.472,2.053.939,2.995a4.829,4.829,0,0,0,1.348,1.535c1.77,1.439,3.917,2.48,5.293,4.3a22.635,22.635,0,0,0,1.752,2.449c.489.494,1.088.863,1.617,1.314,1.02.871,1.766,2.458,2.894,3.107.59-1.469-1.112-4.3-2.152-5.22a7.771,7.771,0,0,1-.96-.876c-.544-.673-.73-1.66-1.477-2.1-.63-.369-1.463-.213-2.1-.569-1.089-.609-1-2.278-1.9-3.148-.719-.7-1.928-.736-2.579-1.5-.584-.684-.51-1.69-.673-2.571a4.577,4.577,0,0,0-2.759-3.358,5.373,5.373,0,0,1-1.036-.445,2.84,2.84,0,0,1-1.017-2.19,8.735,8.735,0,0,0-.327-2.468c-.585-1.49-2.316-2.281-2.925-3.761-.5-1.2-.164-2.665-.832-3.779a.532.532,0,0,0-.368-.3C15.954,242.223,15.815,242.6,15.777,242.9Z" transform="translate(-15.642 -242.243)" fill="#fff"/>
  </g>
</svg>
