<svg id="fish" xmlns="http://www.w3.org/2000/svg" width="80" height="80" viewBox="0 0 80 80">
  <path id="Path_30595" data-name="Path 30595" d="M16.32,15.92A38.794,38.794,0,0,0,5.349,37.863L2,61.307l23.444-3.35A38.79,38.79,0,0,0,58.3,25.456L61.265,6.162a3.612,3.612,0,0,0-4.119-4.119L37.85,5.01A38.79,38.79,0,0,0,16.32,15.92Z" transform="translate(17.403 -0.711)" fill="#db9b7c"/>
  <path id="Path_30596" data-name="Path 30596" d="M25.677,27.586q.224-1.058.388-2.13L29.033,6.162a3.612,3.612,0,0,0-4.119-4.119L5.618,5.01q-1.071.164-2.13.389A16.769,16.769,0,0,0,25.677,27.586Z" transform="translate(49.635 -0.711)" fill="#efbe9a"/>
  <path id="Path_30597" data-name="Path 30597" d="M9,49.649l3.094-.442A38.794,38.794,0,0,0,38.932,32.25v4.46a9.6,9.6,0,0,1-4.788,8.306L21.579,52.289a9.6,9.6,0,0,1-12.3-2.312Z" transform="translate(30.753 8.084)" fill="#e47c6e"/>
  <path id="Path_30598" data-name="Path 30598" d="M36.506,48.968,34.52,45a21.511,21.511,0,0,1-.531-18.091l2.087-4.871A21.508,21.508,0,0,1,55.523,9V9A38.795,38.795,0,0,0,38.565,35.838L36.686,48.994Z" transform="translate(-15.859 1.314)" fill="#e47c6e"/>
  <path id="Path_30599" data-name="Path 30599" d="M46.917,49.6A18.848,18.848,0,0,1,60.7,47.366l4.265.948.948,4.265a18.848,18.848,0,0,1-2.237,13.785L58.52,54.76Z" transform="translate(-45.628 12.347)" fill="#e47c6e"/>
  <g id="Group_50594" data-name="Group 50594" transform="translate(63.239 6.445)">
    <path id="Path_30600" data-name="Path 30600" d="M12.579,11.156A2.579,2.579,0,1,0,10,8.578,2.581,2.581,0,0,0,12.579,11.156Z" transform="translate(-10 -5.999)" fill="#606060"/>
  </g>
  <path id="Path_30601" data-name="Path 30601" d="M17.213,10.592l1.358-1.345-.642,4.173A18.745,18.745,0,0,1,5.67,17.954H2.651V15.375H5.67a16.214,16.214,0,0,0,11.543-4.783Z" transform="translate(59.3 1.386)" fill="#db9b7c"/>
  <g id="Group_50595" data-name="Group 50595" transform="translate(41.294 14.195)">
    <path id="Path_30602" data-name="Path 30602" d="M27.868,21.024h5.157V18.445H28.4l-1.824-1.823V12H24v5.157a1.293,1.293,0,0,0,.376.913l2.579,2.579A1.3,1.3,0,0,0,27.868,21.024Z" transform="translate(-24 -12)" fill="#efbe9a"/>
  </g>
  <g id="Group_50596" data-name="Group 50596" transform="translate(56.779 29.68)">
    <path id="Path_30603" data-name="Path 30603" d="M15.868,33.024h5.157V30.445H16.4l-1.824-1.823V24H12v5.157a1.293,1.293,0,0,0,.376.913l2.579,2.579A1.3,1.3,0,0,0,15.868,33.024Z" transform="translate(-12 -24)" fill="#efbe9a"/>
  </g>
  <g id="Group_50597" data-name="Group 50597" transform="translate(45.165 25.809)">
    <path id="Path_30604" data-name="Path 30604" d="M24.868,30.024h5.157V27.445H25.4l-1.824-1.823V21H21v5.157a1.293,1.293,0,0,0,.376.913l2.579,2.579A1.3,1.3,0,0,0,24.868,30.024Z" transform="translate(-21 -21)" fill="#efbe9a"/>
  </g>
  <g id="Group_50598" data-name="Group 50598" transform="translate(33.551 21.937)">
    <path id="Path_30605" data-name="Path 30605" d="M33.868,27.024h5.157V24.445H34.4l-1.824-1.823V18H30v5.157a1.293,1.293,0,0,0,.376.913l2.579,2.579A1.3,1.3,0,0,0,33.868,27.024Z" transform="translate(-30 -18)" fill="#efbe9a"/>
  </g>
  <g id="Group_50599" data-name="Group 50599" transform="translate(49.037 37.423)">
    <path id="Path_30606" data-name="Path 30606" d="M21.868,39.024h5.157V36.445H22.4l-1.824-1.823V30H18v5.157a1.293,1.293,0,0,0,.376.913l2.579,2.579A1.3,1.3,0,0,0,21.868,39.024Z" transform="translate(-18 -30)" fill="#efbe9a"/>
  </g>
  <g id="Group_50600" data-name="Group 50600" transform="translate(37.423 33.552)">
    <path id="Path_30607" data-name="Path 30607" d="M30.868,36.024h5.157V33.445H31.4l-1.824-1.823V27H27v5.157a1.293,1.293,0,0,0,.376.913l2.579,2.579A1.3,1.3,0,0,0,30.868,36.024Z" transform="translate(-27 -27)" fill="#efbe9a"/>
  </g>
  <g id="Group_50601" data-name="Group 50601" transform="translate(25.807 30.97)">
    <path id="Path_30608" data-name="Path 30608" d="M40.869,32.734h3.868V30.156H41.4L39.58,28.333V25H37v3.868a1.291,1.291,0,0,0,.378.913l2.579,2.579A1.3,1.3,0,0,0,40.869,32.734Z" transform="translate(-37 -25)" fill="#efbe9a"/>
  </g>
  <g id="Group_50602" data-name="Group 50602" transform="translate(41.292 46.455)">
    <path id="Path_30609" data-name="Path 30609" d="M28.869,44.734h3.868V42.156H29.4L27.58,40.333V37H25v3.868a1.291,1.291,0,0,0,.378.913l2.579,2.579A1.3,1.3,0,0,0,28.869,44.734Z" transform="translate(-25 -37)" fill="#efbe9a"/>
  </g>
  <g id="Group_50603" data-name="Group 50603" transform="translate(29.68 41.294)">
    <path id="Path_30610" data-name="Path 30610" d="M36.868,42.024h5.157V39.445H37.4l-1.824-1.823V33H33v5.157a1.293,1.293,0,0,0,.376.913l2.579,2.579A1.3,1.3,0,0,0,36.868,42.024Z" transform="translate(-33 -33)" fill="#efbe9a"/>
  </g>
  <g id="Group_50604" data-name="Group 50604" transform="translate(16.42 16.658)">
    <path id="Path_30611" data-name="Path 30611" d="M38.209,20.619a21.516,21.516,0,0,1,1.385-2.684L50.361,13.9a38.779,38.779,0,0,0-3.128,3.927l-9.327,3.5Z" transform="translate(-34.396 -13.897)" fill="#c66b60"/>
    <path id="Path_30612" data-name="Path 30612" d="M50.292,23.471l-8.106,3.368a21.521,21.521,0,0,1,1.029-3.114l.055-.13,8.669-3.6C51.34,21.128,50.778,22.283,50.292,23.471Z" transform="translate(-41.491 -12.134)" fill="#c66b60"/>
    <path id="Path_30613" data-name="Path 30613" d="M51.2,28.817l-6.675,2.773a21.671,21.671,0,0,1,.032-2.805l7.4-3.076q-.445,1.534-.762,3.108Z" transform="translate(-44.499 -10.48)" fill="#c66b60"/>
    <path id="Path_30614" data-name="Path 30614" d="M20.913,50.181l1.252-6.261q1.466-.572,2.882-1.26l-1.235,6.174-.759.44A9.475,9.475,0,0,1,20.913,50.181Z" transform="translate(12.829 -5.576)" fill="#c66b60"/>
    <path id="Path_30615" data-name="Path 30615" d="M18.737,36.536l-2.911,8.732-3.368,1.949,2.4-7.21A38.573,38.573,0,0,0,18.3,36.995c.151-.15.291-.307.438-.459Z" transform="translate(30.04 -7.348)" fill="#c66b60"/>
  </g>
  <g id="Group_50605" data-name="Group 50605" transform="translate(0 0)">
    <path id="Path_30616" data-name="Path 30616" d="M1.626,61.828a20.082,20.082,0,0,1,14.739-2.392l2.908.646,1.179-8.258-1.95-3.9a22.777,22.777,0,0,1-.565-19.191l2.089-4.875a22.786,22.786,0,0,1,20.255-13.8A39.845,39.845,0,0,1,56.036,4.027L75.348,1.055A4.907,4.907,0,0,1,80.943,6.65L77.972,25.961a39.84,39.84,0,0,1-6.005,15.715v4.11a10.929,10.929,0,0,1-5.435,9.428l-12.574,7.28a10.805,10.805,0,0,1-13.75-2.381L21.917,62.726l.646,2.908a20.071,20.071,0,0,1-2.392,14.739A1.292,1.292,0,0,1,19.065,81l-.079,0a1.289,1.289,0,0,1-1.1-.764l-4.96-11.159-11.16-4.96a1.291,1.291,0,0,1-.139-2.286Zm42.009-4.813A37.763,37.763,0,0,0,64.865,46.4a37.222,37.222,0,0,0,9.59-16.466A18.012,18.012,0,0,1,52.065,7.544,37.222,37.222,0,0,0,35.6,17.134a37.763,37.763,0,0,0-10.615,21.23l-3.108,21.76Zm10.773,2.234,6.141-3.555,1.063-3.19A40.507,40.507,0,0,1,55,56.3ZM22.4,24.876,20.888,28.4l5.146-2.138a40.477,40.477,0,0,1,2.175-3.93l-5.6,2.1C22.541,24.583,22.465,24.725,22.4,24.876ZM24.6,29.658l-5.01,2.081a20.154,20.154,0,0,0-.751,3.65L23.373,33.5Q23.89,31.55,24.6,29.658ZM20.812,46.77l.284.566L22.43,38c.068-.476.177-.945.262-1.417l-4.009,1.666a20.2,20.2,0,0,0,2.129,8.523Zm3.85-25.861,6.23-2.337a39.485,39.485,0,0,1,2.881-3.263c.719-.719,1.465-1.4,2.227-2.059A20.188,20.188,0,0,0,24.662,20.91ZM77.738,4.261a2.34,2.34,0,0,0-1.648-.68,2.281,2.281,0,0,0-.35.027L56.43,6.579c-.471.072-.93.182-1.4.271a15.34,15.34,0,0,0-1.13,5.761A15.5,15.5,0,0,0,69.386,28.1a15.37,15.37,0,0,0,5.763-1.129c.089-.466.2-.925.271-1.4l1.324-8.6a18.761,18.761,0,0,1-10.786,3.388H62.936V17.773h3.022a16.214,16.214,0,0,0,11.374-4.624l1.061-6.89A2.339,2.339,0,0,0,77.738,4.261ZM69.386,45.784V45.21c-.85,1.039-1.735,2.053-2.7,3.014-.432.432-.9.828-1.346,1.24l-1.426,4.279,1.32-.765a8.331,8.331,0,0,0,4.148-7.194ZM51.462,60.819l.668-3.339A39.884,39.884,0,0,1,44,59.57l-.541.077A8.2,8.2,0,0,0,51.462,60.819Zm-37.035,6.1a1.289,1.289,0,0,1,.655.655L19.14,76.7a17.5,17.5,0,0,0,.9-10.507l-.77-3.467-3.467-.77a17.518,17.518,0,0,0-10.507.9Z" transform="translate(-0.999 -1)"/>
    <path id="Path_30617" data-name="Path 30617" d="M12.579,11.156a2.579,2.579,0,1,1,2.579-2.579A2.581,2.581,0,0,1,12.579,11.156Z" transform="translate(53.239 0.446)"/>
    <path id="Path_30618" data-name="Path 30618" d="M26.955,20.648l-2.579-2.579A1.288,1.288,0,0,1,24,17.156V12h2.579v4.622L28.4,18.444h4.622v2.579H27.867A1.286,1.286,0,0,1,26.955,20.648Z" transform="translate(17.295 2.195)"/>
    <path id="Path_30619" data-name="Path 30619" d="M12,29.156V24h2.579v4.622L16.4,30.444h4.622v2.579H15.867a1.293,1.293,0,0,1-.913-.376l-2.579-2.579A1.292,1.292,0,0,1,12,29.156Z" transform="translate(44.781 5.68)"/>
    <path id="Path_30620" data-name="Path 30620" d="M21.376,27.069A1.288,1.288,0,0,1,21,26.156V21h2.579v4.622L25.4,27.444h4.622v2.579H24.867a1.293,1.293,0,0,1-.913-.376Z" transform="translate(24.167 4.809)"/>
    <path id="Path_30621" data-name="Path 30621" d="M39.025,27.024H33.868a1.293,1.293,0,0,1-.913-.376l-2.579-2.579A1.288,1.288,0,0,1,30,23.156V18h2.579v4.622L34.4,24.444h4.623Z" transform="translate(3.551 3.937)"/>
    <path id="Path_30622" data-name="Path 30622" d="M20.58,34.622,22.4,36.445h4.622v2.579H21.868a1.293,1.293,0,0,1-.913-.376l-2.579-2.579A1.288,1.288,0,0,1,18,35.156V30h2.579v4.623Z" transform="translate(31.037 7.423)"/>
    <path id="Path_30623" data-name="Path 30623" d="M27,32.156V27h2.579v4.622L31.4,33.444h4.622v2.579H30.867a1.293,1.293,0,0,1-.913-.376l-2.579-2.579A1.292,1.292,0,0,1,27,32.156Z" transform="translate(10.424 6.551)"/>
    <path id="Path_30624" data-name="Path 30624" d="M39.58,28.333,41.4,30.156h3.333v2.579H40.868a1.293,1.293,0,0,1-.913-.376L37.376,29.78A1.288,1.288,0,0,1,37,28.867V25h2.579v3.334Z" transform="translate(-11.192 5.97)"/>
    <path id="Path_30625" data-name="Path 30625" d="M27.58,40.333,29.4,42.156h3.333v2.579H28.868a1.293,1.293,0,0,1-.913-.376L25.376,41.78A1.288,1.288,0,0,1,25,40.867V37h2.579v3.334Z" transform="translate(16.293 9.455)"/>
    <path id="Path_30626" data-name="Path 30626" d="M35.58,37.622,37.4,39.445h4.622v2.579H36.868a1.293,1.293,0,0,1-.913-.376l-2.579-2.579A1.288,1.288,0,0,1,33,38.156V33h2.579v4.623Z" transform="translate(-3.32 8.294)"/>
  </g>
</svg>
