<svg id="flour" xmlns="http://www.w3.org/2000/svg" width="80" height="85.132" viewBox="0 0 80 85.132">
  <path id="Path_30258" data-name="Path 30258" d="M59.687,15.087l-.222-.707-.7.1-.047.006a6,6,0,0,0,1.173-.275,3.3,3.3,0,0,0,2.225-2.253c.377-1.753-1.461-4.237-3.16-4.884a22.317,22.317,0,0,0-6.414-.986l-.055,0c-.779-.046-1.515-.09-2.216-.158C44.025,5.312,37.693,5,31.453,5H30.92c-3.655.01-7.325.123-10.91.337-1.982.118-3.885.312-5.366,1.388a4.305,4.305,0,0,0-1.508,5.22,4.837,4.837,0,0,0,3.091,2.326q.217.061.438.109l-.558-.108L15.9,15C11.146,31.439,6.234,48.433,5.543,65.876c-.164,4.1.01,8.341,2.376,11.562,2.761,3.756,7.807,5.045,12.379,5.811a139.222,139.222,0,0,0,22.547,1.733c2.194,0,4.412-.045,6.592-.136l2.021-.083-1.5-1.362a13.248,13.248,0,0,1-1.652-1.8c-2.39-3.164-2.9-7.074-3.258-11.139-.009-.1-.023-.227-.039-.36-.126-1.068-.2-2.234.562-2.553a.96.96,0,0,1,.327-.069l.72-.039.064-.718A6.659,6.659,0,0,1,53.4,60.6c.125,0,.251,0,.374.01l1.085.06-.225-1.063a5.179,5.179,0,0,1,1.637-4.947,4.975,4.975,0,0,1,3.195-1.107,5.163,5.163,0,0,1,2.24.5l.772.373.35-.782a4.778,4.778,0,0,1,1.746-2.023,4.955,4.955,0,0,1,1.808-.735l.671-.125.009-.681a82.09,82.09,0,0,0-7.376-34.995ZM16.75,14.4l.13.025-.026,0Zm2.89.234h0Zm-.38,0-.14,0Zm-.444-.01-.079,0ZM45.569,54.55a13.946,13.946,0,0,1-2.409,6.616,9.409,9.409,0,0,1-4.2,3.266l-.687.258.17.713a37.982,37.982,0,0,1,1.016,10A9.292,9.292,0,0,1,38.2,80.435a1.738,1.738,0,0,1-1.217.819.632.632,0,0,1-.3-.076c-.551-.29-.487-1.278-.465-1.6l.971-14.5-.752-.118a5.173,5.173,0,0,1-.912-.263l-.211-.074a9.284,9.284,0,0,1-6.306-8.857,20.125,20.125,0,0,1,.251-2.6l-.824-.116.827.095a12.361,12.361,0,0,0,.112-4.183l1.584,1.388-.065-1.919a14.02,14.02,0,0,1,.39-3.788l.06-.237a9.842,9.842,0,0,0,.423-4.469L32.3,40l.039-.906c.021-.5.087-1.01.159-1.541l.019-.147c.016-.12.032-.239.045-.355A33.033,33.033,0,0,1,34.244,30a12.574,12.574,0,0,1,1.437,1.122L37.6,32.861l-1.279-5.928.626-.027q-.1.766-.166,1.535l1.136.211q-.05.177-.1.356l1.435.753a14.978,14.978,0,0,1,1.967-1.913,22.1,22.1,0,0,1,1.425,8.419l-.029,1.023.788-.142a27.1,27.1,0,0,1,.849,9.8l-.179,1.832,1.362-.983a29.978,29.978,0,0,1,.133,6.748ZM56.192,14.588h0Zm2.389-.083c-.083.01-.166.019-.249.027C58.415,14.524,58.5,14.515,58.581,14.505Zm-.364.038c-.11.008-.22.016-.328.021C58,14.559,58.107,14.551,58.217,14.543Zm-.468.028-.268.009Zm-.35.011c-.118,0-.233,0-.348,0C57.166,14.586,57.282,14.585,57.4,14.582Zm0,0" transform="translate(-4.667 -4.168)" fill="#ffeac0"/>
  <path id="Path_30259" data-name="Path 30259" d="M285.758,293.4a4.169,4.169,0,0,0-2.974-1.242,3.84,3.84,0,0,0-1.136.168,3.775,3.775,0,0,0,.475-4.626,3.823,3.823,0,0,0-3.138-1.63,3.456,3.456,0,0,0-1.3.247,4.789,4.789,0,0,0-3.416-5.707,4.08,4.08,0,0,0-.9-.1,4.75,4.75,0,0,0-2.611.812,4.593,4.593,0,0,0-2.035,2.952,5.151,5.151,0,0,0-6.267.087,5.122,5.122,0,0,0-1.2,6.152,6.525,6.525,0,0,0-1.674-.216,6.676,6.676,0,0,0-6.724,6.315l-.037.631.6.2c.5.171,1.058.409,1.8.739l.069.031a11.772,11.772,0,0,0,1.135.465,52.308,52.308,0,0,0,11.09,2.1c1.389.11,2.8.166,4.2.166a52.893,52.893,0,0,0,7.092-.478c1.351-.185,2.716-.475,4.036-.756l.094-.02q.357-.078.713-.153l.035-.007c.8-.169,1.7-.36,2.588-.576l1.479-.361-1.1-1.049A4.123,4.123,0,0,0,285.758,293.4Zm0,0" transform="translate(-210.872 -233.878)" fill="#fff"/>
  <path id="Path_30260" data-name="Path 30260" d="M281.065,381.982l-.249-.316h-.4a2.977,2.977,0,0,0-1.105.337l-.027.012a5.692,5.692,0,0,1-.813.309c-1.116.3-2.238.532-3.324.761l-.751.16c-1.348.29-2.741.589-4.126.776a52.69,52.69,0,0,1-7.084.479c-1.4,0-2.813-.056-4.2-.168a52.177,52.177,0,0,1-11.092-2.1,12.178,12.178,0,0,1-1.164-.479l-.046-.021a9.477,9.477,0,0,0-3-1.005,1.265,1.265,0,0,0-.363.049l-.054.016-.051.023c-.665.3-.7,1.159-.537,2.543.016.135.03.259.039.362.368,4.223.867,7.976,3.258,11.142a16.712,16.712,0,0,0,8.051,5.448,24.935,24.935,0,0,0,8.162,1.409,21.716,21.716,0,0,0,5.03-.576A19.311,19.311,0,0,0,278.226,394a16.613,16.613,0,0,0,3.065-7.619l.033-.24a8.231,8.231,0,0,0-.05-3.785A1.5,1.5,0,0,0,281.065,381.982Zm0,0" transform="translate(-202.348 -317.426)" fill="#f7b36f"/>
  <path id="Path_30261" data-name="Path 30261" d="M161.332,158.578l-.148-1.433-1.167.845L160,158a27.635,27.635,0,0,0-.532-9.767l-.392-1.648-.635.787a22.564,22.564,0,0,0-1.251-8.993l-.407-1.142-.919.791a15.679,15.679,0,0,0-3.368,4.1l-.023.04-.018-.023h-.008a13.067,13.067,0,0,0-2.212-2.037l-.91-.66-.365,1.063a33.477,33.477,0,0,0-1.56,6.736l-.066.5a13.284,13.284,0,0,0-.165,2.08l-.445-.431,0,1.969a13.223,13.223,0,0,1-.533,3.171l-.06.239a14.554,14.554,0,0,0-.348,4.718l-.092-.08-1.506-1.257.144,1.956a15.5,15.5,0,0,1-.231,3.238,20.189,20.189,0,0,0-.255,2.672,9.786,9.786,0,0,0,6.637,9.332l.2.07a4.57,4.57,0,0,0,1.318.324l-.941,14.058c-.031.449-.112,1.642.729,2.08a1.158,1.158,0,0,0,.543.131,2.187,2.187,0,0,0,1.622-1.031,9.776,9.776,0,0,0,1.344-5.306,38.574,38.574,0,0,0-1.015-10.067l-.084-.359a9.779,9.779,0,0,0,4.7-3.536,14.415,14.415,0,0,0,2.5-6.853A29.371,29.371,0,0,0,161.332,158.578Zm-8.455,9.381c-.049-.123-.1-.246-.152-.368l.309-1.557a15.4,15.4,0,0,0,.246-1.8l.6.159A10.5,10.5,0,0,0,152.877,167.96Zm0,0" transform="translate(-120.014 -114.44)" fill="#f7b36f"/>
  <path id="Path_30262" data-name="Path 30262" d="M80.2,64.634a1.854,1.854,0,0,0-1-1.1,2.664,2.664,0,0,0-2.1.3l-.024.01s.122-3.617-1.091-4.89a4.949,4.949,0,0,0-3.126-1.479,4.458,4.458,0,0,0-4.573-6.092,5.636,5.636,0,0,0-.817-2.9,5.425,5.425,0,0,0-3.387-2.547c-.126-.029-.253-.05-.381-.068A82.958,82.958,0,0,0,56.314,10.7a4.046,4.046,0,0,0,2.428-2.731C59.209,5.8,57.075,2.9,55.067,2.13a22.91,22.91,0,0,0-6.66-1.04c-.79-.047-1.535-.091-2.236-.16A193.649,193.649,0,0,0,26.743,0C23.1.01,19.418.123,15.789.339c-2.109.125-4.139.337-5.8,1.545A5.154,5.154,0,0,0,8.223,8.149a5.365,5.365,0,0,0,2.711,2.433.009.009,0,0,0,0,0C6.168,27.08,1.24,44.134.545,61.675c-.169,4.255.022,8.664,2.537,12.087,2.936,4,8.172,5.347,12.906,6.14a139.956,139.956,0,0,0,22.683,1.744c2.76,0,5.538-.071,8.3-.214a.839.839,0,0,0,.233-.05,21.392,21.392,0,0,0,4.7,2.283,25.377,25.377,0,0,0,8.4,1.467,22.669,22.669,0,0,0,5.258-.61A20.147,20.147,0,0,0,77.05,77.069a17.455,17.455,0,0,0,3.219-8l.029-.215A9.046,9.046,0,0,0,80.2,64.634ZM63.718,47.554a3.958,3.958,0,0,1,2.8,4.673.831.831,0,0,0,1.113.991,2.84,2.84,0,0,1,3.066,4.646.831.831,0,0,0,.831,1.384,3.2,3.2,0,0,1,3.954,4.15.832.832,0,0,0,.209.885c-.858.208-1.721.392-2.561.57l-.755.16c-1.333.286-2.712.581-4.063.764a51.893,51.893,0,0,1-11.106.306,51.312,51.312,0,0,1-10.91-2.069c-.241-.074-.662-.262-1.108-.46-.687-.306-1.306-.573-1.865-.764a5.857,5.857,0,0,1,7.354-5.342.831.831,0,0,0,.947-1.194,4.14,4.14,0,0,1,6.219-5.195.831.831,0,0,0,1.333-.5,3.959,3.959,0,0,1,4.546-3ZM9.71,7.407a3.507,3.507,0,0,1,1.254-4.178c1.3-.944,3.072-1.12,4.925-1.231,3.6-.214,7.25-.326,10.858-.335a191.81,191.81,0,0,1,19.261.922c.733.072,1.5.118,2.3.165a21.749,21.749,0,0,1,6.166.933c1.331.508,2.922,2.627,2.642,3.933a2.508,2.508,0,0,1-1.688,1.645,9.123,9.123,0,0,1-2.993.328l-36.43.044A13.8,13.8,0,0,1,12.283,9.3a4.021,4.021,0,0,1-2.573-1.9Zm6.554,70.856c-4.406-.738-9.257-1.968-11.841-5.485C2.209,69.767,2.05,65.694,2.206,61.741c.687-17.333,5.583-34.283,10.318-50.675a16.645,16.645,0,0,0,3.224.23h.26l36.43-.044a15.894,15.894,0,0,0,2.262-.115c.01.031.018.063.032.094A81.275,81.275,0,0,1,62.044,45.9a5.739,5.739,0,0,0-2.113.858,5.622,5.622,0,0,0-2.047,2.377,5.778,5.778,0,0,0-8.246,6.472,7.5,7.5,0,0,0-7.96,6.873,1.782,1.782,0,0,0-.6.132c-1.4.588-1.182,2.429-1.066,3.417.014.125.028.238.036.335.364,4.19.9,8.227,3.422,11.568a13.983,13.983,0,0,0,1.754,1.912,144.562,144.562,0,0,1-28.958-1.585ZM78.649,68.63l-.029.218a15.79,15.79,0,0,1-2.912,7.238,18.46,18.46,0,0,1-10.533,6.819A22.9,22.9,0,0,1,52.455,82.1a15.907,15.907,0,0,1-7.66-5.162c-2.26-2.992-2.737-6.62-3.092-10.71-.01-.112-.025-.242-.042-.385-.178-1.51.018-1.674.052-1.688a8.523,8.523,0,0,1,2.794.921,13.161,13.161,0,0,0,1.3.533,52.991,52.991,0,0,0,11.264,2.137,53.616,53.616,0,0,0,11.463-.316c1.413-.192,2.823-.494,4.187-.787l.75-.16c1.1-.231,2.23-.471,3.362-.77a6.509,6.509,0,0,0,.937-.351,3.282,3.282,0,0,1,.8-.278.688.688,0,0,1,.092.173,8.208,8.208,0,0,1-.007,3.379Zm0,0" transform="translate(-0.5 0)" fill="#00000b"/>
  <path id="Path_30263" data-name="Path 30263" d="M160.525,130.918a44.307,44.307,0,0,1,.693-4.692.832.832,0,0,0-1.252-.886l-.116.073a31.819,31.819,0,0,0-.211-10.369,1.623,1.623,0,0,0-.695-1.088,1.1,1.1,0,0,0-.314-.121,21.644,21.644,0,0,0-2.244-8.321.832.832,0,0,0-1.27-.271,17.394,17.394,0,0,0-1.757,1.658,15.306,15.306,0,0,1,2.769-6.085.832.832,0,0,0-1.271-1.073,16.087,16.087,0,0,0-2.984,6.271,54.748,54.748,0,0,0-1.693-5.8.832.832,0,0,0-1.568.554,53.007,53.007,0,0,1,1.969,7.122,7.645,7.645,0,0,1-.795-1.047.817.817,0,0,0-.726-.4.832.832,0,0,0-.709.428,18.432,18.432,0,0,0-2.286,9.279.829.829,0,0,0-.424.5,52.24,52.24,0,0,0-1.613,7.209,10.041,10.041,0,0,0-.134,1.494.832.832,0,0,0-.82.852,40.166,40.166,0,0,1-.2,4.247c-.08.965-.162,1.963-.2,2.956A14.042,14.042,0,0,0,144.1,140.9a9.8,9.8,0,0,0,2.064,2.423,6.242,6.242,0,0,0,3.2,1.609c.107.01.212.016.317.016.021,0,.042,0,.062,0a.821.821,0,0,0,.3.09l.026,0L148.989,157c-.067.748-.272,3.025,1.372,3.918a2.281,2.281,0,0,0,1.1.275,3.148,3.148,0,0,0,2.5-1.385,6.276,6.276,0,0,0,.841-3.189c.077-1.19.12-2.4.16-3.562a33.973,33.973,0,0,0-.5-9.009,9.488,9.488,0,0,0,2.952-2.641,17.078,17.078,0,0,0,2.751-7.575C160.31,132.859,160.419,131.873,160.525,130.918Zm-6-1.628a13.807,13.807,0,0,0-1.97,2.346,24.961,24.961,0,0,0-.252-5.681.82.82,0,0,0,.042-.237c.016-1.443.856-3.216,2.57-5.421.427-.55.894-1.1,1.345-1.626.648-.759,1.311-1.536,1.908-2.374a30.146,30.146,0,0,1-.173,10.16.883.883,0,0,0-.012.147,24.214,24.214,0,0,0-3.457,2.685Zm.837-22.049a19.97,19.97,0,0,1,1.65,7.8,22.618,22.618,0,0,1-1.435,1.863,13.623,13.623,0,0,0-2.768-6.567A15.768,15.768,0,0,1,155.359,107.241Zm-6.144,1.617c.325.379.668.734,1.005,1.082.312.324.607.629.886.949a12.107,12.107,0,0,1,2.923,7.464.825.825,0,0,0,.068.3c-.168.205-.336.411-.5.621a17.524,17.524,0,0,0-2.222,3.56,11.624,11.624,0,0,0-.559-1.118,21.508,21.508,0,0,0-1.824-2.587c-.418-.534-.821-1.05-1.183-1.58a.825.825,0,0,0,0-.09A16.752,16.752,0,0,1,149.215,108.858Zm-3.542,15.257a50.857,50.857,0,0,1,1.064-5.2c.309.426.63.836.946,1.241a20,20,0,0,1,1.69,2.385c1.579,2.774,1.7,6.068,1.468,9.752a27.788,27.788,0,0,0-4.9-5.423.831.831,0,0,0-.107-.293A3.908,3.908,0,0,1,145.673,124.115Zm-.114,15.982a12.5,12.5,0,0,1-1.219-6.623c.033-.953.114-1.93.192-2.876.071-.852.142-1.72.182-2.6a22.15,22.15,0,0,1,5.634,6.8c1.75,3.665,1.182,6.916.22,8.055a1.1,1.1,0,0,1-1.038.423C148.123,143.139,146.209,141.271,145.558,140.1Zm7.736,12.9c-.04,1.154-.081,2.347-.157,3.512a4.848,4.848,0,0,1-.564,2.37c-.311.465-.984.81-1.418.574-.454-.246-.625-1.022-.509-2.307L151.739,145a7.5,7.5,0,0,0,1.17-.272A34.055,34.055,0,0,1,153.294,153Zm5.579-22.265c-.1.938-.212,1.908-.354,2.848a15,15,0,0,1-2.444,6.837,7.5,7.5,0,0,1-3.7,2.722,7.653,7.653,0,0,0,.737-4.243,14.247,14.247,0,0,0-.57-2.994.838.838,0,0,0,.112-.287,9.938,9.938,0,0,1,3.021-5.128,23.851,23.851,0,0,1,3.57-2.726c-.152,1-.263,1.994-.372,2.97Zm0,0" transform="translate(-119.026 -82.936)" fill="#00000b"/>
</svg>
