<svg xmlns="http://www.w3.org/2000/svg" width="80" height="80" viewBox="0 0 80 80">
  <g id="fruits_1_" data-name="fruits (1)" transform="translate(0.001 -0.001)">
    <path id="Path_30754" data-name="Path 30754" d="M161.842,19.214a6.085,6.085,0,0,0-2.016-2.962,2.315,2.315,0,0,1-.866-1.817V8.672A1.172,1.172,0,0,0,157.787,7.5h-2.345a1.172,1.172,0,0,0-1.172,1.172V13.56a2.327,2.327,0,0,1-1.241,2.067,6.071,6.071,0,0,0-2.682,2.81c-2.621,5.486-7.272,16.845-16.825,26.375-9.535,9.548-20.9,14.2-26.387,16.816a6.2,6.2,0,0,0,.778,11.49,31.985,31.985,0,0,0,10.252,1.409c10.626-.192,21.8-6.148,30.369-14.711s14.527-19.734,14.719-30.354a31.957,31.957,0,0,0-1.41-10.247Zm0,0" transform="translate(-87.451 -6.327)" fill="#ffcf5d"/>
    <path id="Path_30755" data-name="Path 30755" d="M210.172,19.924a1.418,1.418,0,0,1,.462.713,27.145,27.145,0,0,1,1.19,8.74c-.159,8.791-5.149,18.931-13.346,27.124S180.135,69.682,171.34,69.841a4.688,4.688,0,0,0-4.6,4.461,34.854,34.854,0,0,0,4.683.225c10.626-.192,21.8-6.148,30.369-14.711s14.527-19.734,14.719-30.355a31.958,31.958,0,0,0-1.41-10.247,6.085,6.085,0,0,0-2.016-2.962,2.315,2.315,0,0,1-.866-1.817V8.672A1.172,1.172,0,0,0,211.048,7.5H208.7a1.172,1.172,0,0,0-1.172,1.172v5.763a6.963,6.963,0,0,0,2.641,5.49Zm0,0" transform="translate(-140.712 -6.327)" fill="#ffb545"/>
    <path id="Path_30756" data-name="Path 30756" d="M63.782,212.7l-3.943-2.5a1.264,1.264,0,0,0-1.895,1.422l1.157,3.758a13.124,13.124,0,0,0,5.07,6.918l3.874,2.549c0-4.565-.176-9.562-4.264-12.15Zm0,0" transform="translate(-48.838 -177.192)" fill="#28d05b"/>
    <path id="Path_30757" data-name="Path 30757" d="M32.022,294.071a12.328,12.328,0,0,0-6.485,1.63,12.323,12.323,0,0,0-6.485-1.63,11.693,11.693,0,0,0-10,6.034c-1.83,3.336-2.064,7.406-.6,11.9,2.232,6.847,8.155,12.981,13.781,13.3a9.319,9.319,0,0,0,1.619-.029,16.187,16.187,0,0,1,3.37,0,9.319,9.319,0,0,0,1.619.029c5.626-.321,11.55-6.455,13.781-13.3,1.459-4.49,1.225-8.56-.6-11.9a11.693,11.693,0,0,0-10-6.034Zm0,0" transform="translate(-6.329 -248.129)" fill="#ff5368"/>
    <path id="Path_30758" data-name="Path 30758" d="M82.688,310.575a11.648,11.648,0,0,0-3.794-4.1q.256.386.48.788c1.83,3.336,2.064,7.405.6,11.9A22.286,22.286,0,0,1,71.7,330.441a12.189,12.189,0,0,1-6.76,2.018H55.707a12.494,12.494,0,0,0,7.2,3.314,9.328,9.328,0,0,0,1.619-.029,16.033,16.033,0,0,1,3.371,0,9.365,9.365,0,0,0,1.618.029c5.626-.321,11.55-6.455,13.781-13.3,1.459-4.49,1.225-8.56-.605-11.9Zm0,0" transform="translate(-47 -258.599)" fill="#d9435b"/>
    <path id="Path_30759" data-name="Path 30759" d="M325.375,289.1a4.689,4.689,0,0,0-9.119,0,15.632,15.632,0,1,0,9.119,0Zm0,0" transform="translate(-257.513 -240.904)" fill="#ff983b"/>
    <path id="Path_30760" data-name="Path 30760" d="M346.524,323.66a15.632,15.632,0,0,1-21.857,21.857,15.632,15.632,0,1,0,21.857-21.857Zm0,0" transform="translate(-273.951 -273.099)" fill="#ff7e40"/>
    <path id="Path_30761" data-name="Path 30761" d="M407.786,247.7l-1.157-3.758a13.118,13.118,0,0,0-5.07-6.918l-1.53-1.007a1.513,1.513,0,0,0-2.345,1.264v1.666a8.9,8.9,0,0,0,4.264,7.678l3.943,2.5A1.264,1.264,0,0,0,407.786,247.7Zm0,0" transform="translate(-335.554 -198.926)" fill="#28d05b"/>
    <path id="Path_30762" data-name="Path 30762" d="M299.114,103.152a1.206,1.206,0,0,0-1.563-.583l-.657.272.5-.5a1.205,1.205,0,0,0,.06-1.667,1.173,1.173,0,0,0-1.683-.026l-.537.537.291-.7a1.172,1.172,0,1,0-2.166-.9l-.636,1.537a1.163,1.163,0,0,0,.081,1.056,1.3,1.3,0,0,1-.164,1.6,1.2,1.2,0,0,0-.059,1.666,1.172,1.172,0,0,0,1.683.026l.023-.023a1.324,1.324,0,0,1,1.623-.169,1.167,1.167,0,0,0,1.046.074l1.537-.636A1.172,1.172,0,0,0,299.114,103.152Zm0,0" transform="translate(-246.61 -83.412)" fill="#28d05b"/>
    <path id="Path_30763" data-name="Path 30763" d="M243.824,128.117a2.341,2.341,0,0,0-2.333.678l-3.847-1.2-2.846,2.988-1.208,4.507-.041-.012a2.345,2.345,0,1,0,1.657,2.872,2.317,2.317,0,0,0,.034-1.094,2.347,2.347,0,0,0,4.508-1.293,2.345,2.345,0,1,0,2.889-2.908,2.345,2.345,0,0,0,1.187-4.537Zm0,0" transform="translate(-194.57 -107.658)" fill="#d9435b"/>
    <path id="Path_30764" data-name="Path 30764" d="M247.073,109.3a2.347,2.347,0,0,0-2.872,2.871,2.344,2.344,0,1,0-2.818,2.888,2.346,2.346,0,1,0,1.6,1.644,2.346,2.346,0,0,0,2.265,1.737h.011a2.348,2.348,0,0,0,1.647-4,2.319,2.319,0,0,0-1.04-.605,2.344,2.344,0,0,0,1.2-4.532Zm0,0" transform="translate(-201.134 -92.149)" fill="#ff5368"/>
    <path id="Path_30765" data-name="Path 30765" d="M260.619,4.326a1.173,1.173,0,0,0-1.532-.634l-.7.291.538-.538a1.172,1.172,0,0,0-1.658-1.658l-.538.538.291-.7a1.172,1.172,0,0,0-2.166-.9l-.636,1.537,4.233,4.232,1.537-.636a1.172,1.172,0,0,0,.634-1.532Zm0,0" transform="translate(-214.496 0)" fill="#28d05b"/>
    <path id="Path_30766" data-name="Path 30766" d="M197.777,13.3c2.442-2.442,6.069-2.11,8.511.332s2.773,6.069.332,8.511-8.943,4.984-11.385,2.542.1-8.943,2.543-11.385Zm0,0" transform="translate(-163.896 -9.812)" fill="#ff5368"/>
    <path id="Path_30767" data-name="Path 30767" d="M206.428,17a7.132,7.132,0,0,0-1.931-1.383,5.6,5.6,0,0,1-1.051,6.58c-1.856,1.856-6.054,3.766-9.035,3.507a3.684,3.684,0,0,0,.965,2.35c2.442,2.442,8.943-.1,11.385-2.542s2.11-6.069-.332-8.511Zm0,0" transform="translate(-164.037 -13.172)" fill="#d9435b"/>
    <path id="Path_30768" data-name="Path 30768" d="M107.631,111.57a7.816,7.816,0,1,1-7.816-7.816A7.816,7.816,0,0,1,107.631,111.57Zm0,0" transform="translate(-77.627 -87.543)" fill="#5c87bd"/>
    <path id="Path_30769" data-name="Path 30769" d="M108.216,109.426A7.815,7.815,0,0,1,97.672,119.97a7.815,7.815,0,1,0,10.544-10.544Zm0,0" transform="translate(-82.413 -92.329)" fill="#456ea2"/>
    <path id="Path_30770" data-name="Path 30770" d="M73.3,49.755a2.416,2.416,0,0,0-.038-1.3L72.1,44.7a14.367,14.367,0,0,0-5.513-7.539l-.024-.016-1.527-1.007a2.682,2.682,0,0,0-4.155,2.244v1.666a10.308,10.308,0,0,0,.662,3.666,5.828,5.828,0,0,0-3.815,3.6A16.932,16.932,0,0,0,49.811,53.1a16.672,16.672,0,0,0-3.355,9.7,40.3,40.3,0,0,1-9.918,3.59c2.61-5.969,2.666-12.79-1.783-17.536,1.9-1.184,3.707-2.421,5.391-3.69a63.1,63.1,0,0,0,6.7-5.818C54.627,31.562,59.1,22.915,62.958,14.587c.925-2,1.354-3.332,3.079-4.238A3.5,3.5,0,0,0,67.9,7.24V2.35h2.341V8.116a3.477,3.477,0,0,0,1.308,2.737,4.936,4.936,0,0,1,1.626,2.4c2.591,8.157,1.319,16.766-2.333,24.5a1.17,1.17,0,1,0,2.114,1h0a43.279,43.279,0,0,0,2.813-7.73,33.955,33.955,0,0,0-.367-18.487,7.256,7.256,0,0,0-2.4-3.527,1.149,1.149,0,0,1-.422-.9V2.35A2.346,2.346,0,0,0,70.246,0H67.9A2.348,2.348,0,0,0,65.564,2.35V7.24a1.164,1.164,0,0,1-.61,1.028c-2.441,1.274-3.1,3.142-4.118,5.327C57.769,20.22,53.32,29.559,45.195,37.685A64.623,64.623,0,0,1,32.91,47.236a13.262,13.262,0,0,0-7.222-2.419,12.886,12.886,0,0,0-4.492.635,17.591,17.591,0,0,1,9.664-8.907,1.175,1.175,0,1,0,1.757-1.556l-.624-.626a1.17,1.17,0,0,0-1.2-.283A19.776,19.776,0,0,0,20.11,42.629c-.4-3.074-1.514-6.143-4.57-8.082L11.6,32.05a2.434,2.434,0,0,0-3.637,2.758l1.155,3.759a14.347,14.347,0,0,0,3.916,6.243A12.871,12.871,0,0,0,1.692,51.461C-.3,55.1-.539,59.536,1,64.287a24.25,24.25,0,0,0,5.9,9.572c2.792,2.759,5.955,4.372,8.892,4.54a10.558,10.558,0,0,0,1.818-.033,14.834,14.834,0,0,1,3.118,0,10.342,10.342,0,0,0,1.1.058c.236,0,.472-.008.706-.024,2.966-.17,6.141-1.8,8.941-4.58a24.057,24.057,0,0,0,3.712-4.8,40.955,40.955,0,0,0,11.4-3.669,16.778,16.778,0,1,0,26.71-15.6ZM11.36,37.876,10.2,34.117c-.009-.029-.015-.048.029-.081.094-.071-.193-.2,4.055,2.492h0c2.9,1.839,3.55,5.1,3.682,8.967l-2.011-1.326a12.006,12.006,0,0,1-4.6-6.293ZM35.115,63.56c-2.028,6.235-7.514,12.2-12.725,12.5a8.208,8.208,0,0,1-1.414-.025,16.966,16.966,0,0,0-1.8-.1,17.151,17.151,0,0,0-1.806.1,8.26,8.26,0,0,1-1.426.024c-2.382-.137-5.008-1.511-7.4-3.869a21.863,21.863,0,0,1-5.317-8.629c-1.336-4.12-1.157-7.914.514-10.967a10.542,10.542,0,0,1,9-5.433,10.906,10.906,0,0,1,5.3,1.188l.488.322a1.164,1.164,0,0,0,1.5-.179A11,11,0,0,1,25.6,47.161c7.285.311,12.559,7.028,9.519,16.4ZM63.224,38.381a.339.339,0,0,1,.527-.284,13.662,13.662,0,0,1,4.788,4.424,1.175,1.175,0,0,0,.481.83,11.785,11.785,0,0,1,.845,2.038l1.155,3.759c.009.029.015.048-.029.081a.088.088,0,0,1-.118.006l-3.937-2.5c-4.006-2.542-3.713-6.237-3.713-8.355Zm0,39.278a14.47,14.47,0,0,1-5.822-27.7,5.837,5.837,0,0,0,.811,2.406,1.171,1.171,0,1,0,2-1.214,3.525,3.525,0,0,1,1.837-5.136v3.27A1.2,1.2,0,0,0,63.188,50.5a1.171,1.171,0,0,0,1.207-1.172V47.761a17.237,17.237,0,0,0,2.337,1.622,3.514,3.514,0,0,1-.5,1.766,1.171,1.171,0,1,0,2,1.214,5.834,5.834,0,0,0,.665-1.605l.721.458a2.435,2.435,0,0,0,1.309.385,2.4,2.4,0,0,0,.752-.121,14.467,14.467,0,0,1-8.458,26.181Zm0,0" transform="translate(0 -0.003)" fill="#00000b"/>
    <path id="Path_30771" data-name="Path 30771" d="M93.344,114.3a8.994,8.994,0,1,0-8.976-8.994A9,9,0,0,0,93.344,114.3Zm0-15.641a6.648,6.648,0,1,1-6.635,6.648A6.649,6.649,0,0,1,93.344,98.663Zm0,0" transform="translate(-71.187 -81.268)" fill="#00000b"/>
    <path id="Path_30772" data-name="Path 30772" d="M124.891,125.683a1.17,1.17,0,0,0,1.656,0l.343-.344.343.344a1.172,1.172,0,1,0,1.656-1.659l-.343-.344.343-.344a1.172,1.172,0,1,0-1.656-1.659l-.343.344-.343-.344a1.172,1.172,0,0,0-1.656,1.659l.343.344-.343.344a1.175,1.175,0,0,0,0,1.659Zm0,0" transform="translate(-105.088 -102.375)" fill="#00000b"/>
    <path id="Path_30773" data-name="Path 30773" d="M200.865,13.173A6.774,6.774,0,0,0,202.457,6l.344-.143a1.173,1.173,0,0,0-.9-2.167l-.566.234-.034-.046.435-.436a1.172,1.172,0,1,0-1.656-1.659l-.436.437-.045-.034.235-.568a1.171,1.171,0,1,0-2.163-.9l-.142.344a6.711,6.711,0,0,0-7.156,1.6c-2.734,2.739-5.62,9.964-2.539,13.051,3.1,3.106,10.325.163,13.026-2.544ZM189.234,9.512a13.024,13.024,0,0,1,2.8-5.187c1.986-1.99,4.874-1.643,6.844.332,2.079,2.083,2.218,4.967.332,6.857a12.988,12.988,0,0,1-5.177,2.806c-2.085.594-3.781.5-4.537-.262s-.854-2.456-.261-4.545Zm0,0" transform="translate(-157.373 0)" fill="#00000b"/>
    <path id="Path_30774" data-name="Path 30774" d="M233.606,50.86a1.172,1.172,0,1,0-1.656,0A1.175,1.175,0,0,0,233.606,50.86Zm0,0" transform="translate(-195.419 -41.22)" fill="#00000b"/>
    <path id="Path_30775" data-name="Path 30775" d="M212.42,72.086a1.172,1.172,0,1,0-1.656,0A1.175,1.175,0,0,0,212.42,72.086Zm0,0" transform="translate(-177.544 -59.128)" fill="#00000b"/>
    <path id="Path_30776" data-name="Path 30776" d="M212.42,50.86a1.172,1.172,0,1,0-1.656,0A1.175,1.175,0,0,0,212.42,50.86Zm0,0" transform="translate(-177.544 -41.22)" fill="#00000b"/>
    <path id="Path_30777" data-name="Path 30777" d="M233.606,72.086a1.172,1.172,0,1,0-1.656,0A1.175,1.175,0,0,0,233.606,72.086Zm0,0" transform="translate(-195.419 -59.128)" fill="#00000b"/>
    <path id="Path_30778" data-name="Path 30778" d="M254.792,50.86a1.172,1.172,0,1,0-1.655,0A1.175,1.175,0,0,0,254.792,50.86Zm0,0" transform="translate(-213.296 -41.22)" fill="#00000b"/>
    <path id="Path_30779" data-name="Path 30779" d="M233.606,29.633a1.172,1.172,0,1,0-1.656,0A1.175,1.175,0,0,0,233.606,29.633Zm0,0" transform="translate(-195.419 -23.311)" fill="#00000b"/>
    <path id="Path_30780" data-name="Path 30780" d="M231.438,99.873a3.559,3.559,0,0,0-1.135,1.087,3.522,3.522,0,0,0-4.718,4.738,3.517,3.517,0,0,0-1.21,4.531,3.518,3.518,0,1,0,4.861,4.876,3.487,3.487,0,0,0,3.38-.12,3.563,3.563,0,0,0,1.141-1.1,3.514,3.514,0,0,0,4.719-4.722,3.508,3.508,0,0,0,1.285-4.363,1.172,1.172,0,0,0-.8-2.2l-.69.241.462-.463a1.172,1.172,0,0,0-1.656-1.659l-.462.463.24-.691a1.17,1.17,0,0,0-2.194-.815,3.5,3.5,0,0,0-3.219.2Zm2.938,3.328a1.185,1.185,0,0,0-.038.258l-.426.427a1.175,1.175,0,1,0,1.748,1.566,1.174,1.174,0,1,1,1.158,1.906,1.484,1.484,0,0,0-.676,2.529,1.2,1.2,0,0,1,.369.851,1.174,1.174,0,0,1-2.031.809,1.481,1.481,0,0,0-2.519.678,1.173,1.173,0,0,1-2,.539,1.481,1.481,0,0,0-2.52.683,1.175,1.175,0,1,1-1.768-1.265,1.3,1.3,0,0,1,1.094-.1,3.4,3.4,0,0,0,3.61-1.555c.1.056.213.107.325.154,2.465,1.016,5.134-1.1,3.814-2.422a1.17,1.17,0,0,0-1.656,0,1.176,1.176,0,0,1-1.992-.691,1.178,1.178,0,1,0-2.348-.1c.012.984.234,1.6-.381,2.105a1.02,1.02,0,0,1-.914.208,1.173,1.173,0,0,1,.02-2.281,1.486,1.486,0,0,0,.677-2.527,1.2,1.2,0,0,1-.373-.852,1.182,1.182,0,0,1,2.03-.826,1.48,1.48,0,0,0,2.517-.675,1.177,1.177,0,1,1,2.281.579Zm0,0" transform="translate(-187.975 -83.474)" fill="#00000b"/>
    <path id="Path_30781" data-name="Path 30781" d="M353.029,348.172A1.172,1.172,0,1,1,351.856,347,1.172,1.172,0,0,1,353.029,348.172Zm0,0" transform="translate(-295.891 -292.781)" fill="#00000b"/>
    <path id="Path_30782" data-name="Path 30782" d="M373.029,376.176A1.172,1.172,0,1,1,371.856,375,1.173,1.173,0,0,1,373.029,376.176Zm0,0" transform="translate(-312.766 -316.409)" fill="#00000b"/>
    <path id="Path_30783" data-name="Path 30783" d="M333.025,398.176A1.172,1.172,0,1,1,331.852,397,1.172,1.172,0,0,1,333.025,398.176Zm0,0" transform="translate(-279.012 -334.972)" fill="#00000b"/>
  </g>
</svg>
