<svg xmlns="http://www.w3.org/2000/svg" width="27.843" height="30" viewBox="0 0 27.843 30">
  <g id="google-play" transform="translate(-16.895 0)">
    <path id="Path_29716" data-name="Path 29716" d="M33.188,22.269,18.02,36.772A2.558,2.558,0,0,1,16.9,34.634V9.9A2.558,2.558,0,0,1,18.02,7.765Z" transform="translate(0 -7.266)" fill="#2196f3"/>
    <path id="Path_29717" data-name="Path 29717" d="M54.865,10l-5.307,5.1L34.39.5a2.021,2.021,0,0,1,.178-.123A2.6,2.6,0,0,1,37.188.335Z" transform="translate(-16.37 0)" fill="#4caf50"/>
    <path id="Path_29718" data-name="Path 29718" d="M282.076,160.707a2.622,2.622,0,0,1-1.371,2.331l-5.06,2.77-5.307-5.1,5.307-5.1,5.06,2.77A2.622,2.622,0,0,1,282.076,160.707Z" transform="translate(-237.338 -145.704)" fill="#ffc107"/>
    <path id="Path_29719" data-name="Path 29719" d="M54.865,240.067l-17.677,9.668a2.629,2.629,0,0,1-2.619-.041,2.026,2.026,0,0,1-.178-.123l15.168-14.605Z" transform="translate(-16.37 -220.064)" fill="#f44336"/>
  </g>
</svg>
