<svg xmlns="http://www.w3.org/2000/svg" width="150" height="167" viewBox="0 0 150 167">
  <g id="Group_50319" data-name="Group 50319" transform="translate(-130.158 -356)">
    <circle id="Ellipse_2" data-name="Ellipse 2" cx="75" cy="75" r="75" transform="translate(130.158 373)" fill="#a7a9ac" opacity="0.12"/>
    <g id="Group_15" data-name="Group 15" transform="translate(143.686 356)">
      <circle id="Ellipse_1" data-name="Ellipse 1" cx="62.078" cy="62.078" r="62.078" transform="translate(0 30.004)" fill="#58595b"/>
      <path id="Intersection_1" data-name="Intersection 1" d="M2.277,71.654c-.727-4.947-1.487-10-1.862-12.692A31.082,31.082,0,0,1,.644,47.548a18.327,18.327,0,0,1,4.83-8.842,61.622,61.622,0,0,1,5.985-5.062,36.63,36.63,0,0,1,5.44-3.26,8.142,8.142,0,0,1,2.508-.756,2.329,2.329,0,0,1,1.422.485,13.1,13.1,0,0,1,2.066,1.765,46.8,46.8,0,0,0,5.174,4.979,16.792,16.792,0,0,0,4.49,2.489,17,17,0,0,0,5.676.949c3.32-.188,6.749-.568,9.736-2.141a5.62,5.62,0,0,0-3.2-2.187c-.816-.037-1.636-.023-2.452.006a1.329,1.329,0,0,0-.84.238,11.065,11.065,0,0,1,.584-2.524c.5-1.546,1-3.094,1.641-4.585a3.243,3.243,0,0,1,.735-1.179,9.8,9.8,0,0,1,3.988-1.785,24.261,24.261,0,0,1,5.606-.468,14.606,14.606,0,0,1,4.942.918A5.81,5.81,0,0,1,61.9,29.062,7.011,7.011,0,0,1,62.57,33.3a10.568,10.568,0,0,1-2.23,4.768,3.089,3.089,0,0,0,1.07.734,11.389,11.389,0,0,0,5.241.7,15.708,15.708,0,0,0,5.758-1.545c.465-.267,1.029-.566,1.175-1.127A8.579,8.579,0,0,0,72.537,33.2a26.831,26.831,0,0,0-1.7-2.921,1.045,1.045,0,0,1-.222-.544c.1-1.435.33-2.857.548-4.279a27.729,27.729,0,0,1,.6-3.013h0c.053-.18.138-.48.394-.368a3.3,3.3,0,0,1,1.5,1.452A20.021,20.021,0,0,1,76.6,35.59a13.439,13.439,0,0,1-2.578,7.377,11.9,11.9,0,0,1-4.685,3.562,13.656,13.656,0,0,1-7.082,1.045A12.85,12.85,0,0,1,57.1,45.832a17.309,17.309,0,0,1-3.659-2.954l-.093-.007c-5.815,3.158-12.279,5.43-18.954,5.471a13.016,13.016,0,0,1-4.82-1.257,12.5,12.5,0,0,1-1.394,2.593c-.173.2-.348.515-.66.469a22.957,22.957,0,0,1-4.719-.788,25.16,25.16,0,0,1-6.978-2.631,6.845,6.845,0,0,1-3-3.441,5.523,5.523,0,0,1-.134-2.79,38.5,38.5,0,0,0-6.93,4.236A8.411,8.411,0,0,0,2.906,48.3c-.678,1.6.256,3.941.519,5.573.736,4.544,2.318,15.136,2.467,20.206Q4.04,72.929,2.277,71.654Zm14.5-35.534a2.074,2.074,0,0,0,.6,2.29A9.353,9.353,0,0,0,20.7,40.15a25.865,25.865,0,0,0,3.355.875,28.583,28.583,0,0,1-2.57-3.57A32.3,32.3,0,0,0,19.4,34.244a1.431,1.431,0,0,0-.673-.512,1.435,1.435,0,0,0-.908.618h0A7.317,7.317,0,0,0,16.781,36.121ZM53.84,61.95c7.466-3.056,15.1-5.7,22.82-8.032-.206.467-.3,1.085-.749,1.373-7.8,2.638-15.645,5.154-23.271,8.285A2.024,2.024,0,0,1,53.84,61.95ZM3.738,22.624a3.553,3.553,0,0,1-2.7-1.126,4.982,4.982,0,0,1-.922-3.16,12.372,12.372,0,0,1,2.409-7.418A6.905,6.905,0,0,1,6.049,8.152h0a3.675,3.675,0,0,1,3.26.9,6.429,6.429,0,0,1,1.51,3.707,11.959,11.959,0,0,1-.166,4.587,7.9,7.9,0,0,1-2.626,4.041,6.834,6.834,0,0,1-3.937,1.25C3.976,22.633,3.856,22.63,3.738,22.624ZM2.059,16.3a1.9,1.9,0,0,0,.853,2.079,4.183,4.183,0,0,0,2.451.311,5.425,5.425,0,0,0,3.089-1.534A9.859,9.859,0,0,0,7.541,13.3a2.439,2.439,0,0,0-2.222-1.443,3.136,3.136,0,0,0-1.4.9h0A7.187,7.187,0,0,0,2.059,16.3Zm19.076,3.171a3.511,3.511,0,0,1-1.328-.926c-.25-.378-.044-.837.085-1.218a8.592,8.592,0,0,1,.848-1.874,11.688,11.688,0,0,1,1.953-1.086c3.232-1.511,6.549-2.821,9.857-4.148q7.586-3,15.227-5.855C51.34,3.046,54.9,1.716,58.528.569A12.212,12.212,0,0,1,60.926,0a4.221,4.221,0,0,1-.518,1.448.434.434,0,0,1-.3.25q-6.679,2.38-13.324,4.847c-5.2,1.928-10.406,3.85-15.574,5.869-2.646,1.045-5.294,2.093-7.883,3.277-.679.32-1.36.643-2.01,1.028a1.869,1.869,0,0,0-.656.549,2.889,2.889,0,0,0,1.758.79c.359.083.914.1.976.569a1.809,1.809,0,0,1-.529,1.349A4.184,4.184,0,0,1,21.134,19.476ZM64.193,9.5c1.179-2.308,2.513-4.533,3.821-6.771,2.1,1.373,4.215,2.716,6.341,4.049a3.867,3.867,0,0,1,.81.561c-1.188,2.337-2.455,4.635-3.777,6.9A29.834,29.834,0,0,1,64.193,9.5Z" transform="translate(23.462 70.765)" fill="#fff"/>
      <g id="Group_3" data-name="Group 3" transform="translate(31.283 0)">
        <g id="Union_1" data-name="Union 1" transform="translate(12.951 0)">
          <g id="Group_6" data-name="Group 6">
            <path id="Path_7321" data-name="Path 7321" d="M145.566,245.545h0a16.985,16.985,0,0,1-6.489-1.3,19.294,19.294,0,0,1-5.323-3.311,19.024,19.024,0,0,1-6.1-9.676,23.761,23.761,0,0,1-.244-8.3,29.937,29.937,0,0,1,4.605-12.336,41.46,41.46,0,0,1,13.95-12.923c7.156-4.263,16.3-7.532,27.183-9.714l3.028-.608-.063,3.088c-.237,11.5-1.5,21.373-3.748,29.333-1.953,6.908-4.69,12.526-8.136,16.7a24.664,24.664,0,0,1-9.97,7.433,23.6,23.6,0,0,1-8.443,1.617Z" transform="translate(-127.173 -187.374)" fill="#7fac2e"/>
          </g>
        </g>
        <g id="Union_5" data-name="Union 5" transform="translate(0 9.919)">
          <g id="Group_7" data-name="Group 7">
            <path id="Path_7322" data-name="Path 7322" d="M114.108,197.38l3.024.6c9.007,1.789,16.576,4.476,22.5,7.984A34.2,34.2,0,0,1,151.2,216.658a24.618,24.618,0,0,1,3.786,10.15,19.611,19.611,0,0,1-.214,6.869,15.907,15.907,0,0,1-5.147,8.1,16.319,16.319,0,0,1-4.485,2.762,14.465,14.465,0,0,1-5.482,1.088c-.072,0-.146,0-.219,0a19.911,19.911,0,0,1-7.066-1.341,20.639,20.639,0,0,1-8.353-6.165,37.246,37.246,0,0,1-6.76-13.728,95.965,95.965,0,0,1-3.091-23.933Z" transform="translate(-114.108 -197.38)" fill="#6e9a20"/>
          </g>
        </g>
      </g>
    </g>
  </g>
</svg>
