<svg id="meat" xmlns="http://www.w3.org/2000/svg" width="80" height="96.173" viewBox="0 0 80 96.173">
  <path id="Path_30746" data-name="Path 30746" d="M79.861,88.955c12.008-5.233,2.27-18.988,19.365-27.094C114.369,54.681,130.2,52.5,127.411,30.71c-2.772-21.653-41.6-33.43-64.5-11.694-23.855,22.644-10.421,81.868,16.95,69.94Z" transform="translate(-49.144 -6.053)" fill="#ff7b8b"/>
  <path id="Path_30747" data-name="Path 30747" d="M103.157,111.36c6.081-2.639,3.41-21.8,19.164-27.337,14.542-5.108,26.124-11.417,25.382-23.252C146.7,44.685,111.552,32.256,91.66,51.786c-19.4,19.051-10.056,68.929,11.5,59.574Z" transform="translate(-73.935 -33.939)" fill="#ff4755"/>
  <path id="Path_30748" data-name="Path 30748" d="M99.226,186.9c-17.1,8.115-7.357,21.885-19.365,27.124-17.444,7.61-29.226-13.712-29.3-36.047h0l.031,9.284.007,0c.275,20.277,10.823,40.593,29.034,38.484,12.859-1.489,12.172-23.684,19.6-28.208,13.3-8.1,28.607-9.243,28.49-26.834h0v-9.329C127.226,177.984,112.944,180.39,99.226,186.9Z" transform="translate(-49.145 -131.125)" fill="#994e37"/>
  <path id="Path_30749" data-name="Path 30749" d="M117.2,194.153c-9.726,6.676-6.74,26.719-19.6,28.208-10.133,1.174-17.892-4.6-22.83-13.442,4.759,10.71,13.144,18.144,24.52,16.827,12.858-1.489,12.171-23.684,19.6-28.208,13.3-8.1,28.6-9.243,28.489-26.834h0v-9.329c.014,23.448-17.347,23.969-30.183,32.779Z" transform="translate(-68.812 -131.125)" fill="#8c4534"/>
  <ellipse id="Ellipse_991" data-name="Ellipse 991" cx="7.858" cy="5.125" rx="7.858" ry="5.125" transform="translate(33.84 23.012)" fill="#f4e9d3"/>
  <path id="Path_30750" data-name="Path 30750" d="M231.106,144.213c-3.43,0-6.345-1.434-7.418-3.433a3.556,3.556,0,0,0-.441,1.692c0,2.83,3.518,5.125,7.858,5.125s7.858-2.294,7.858-5.125a3.556,3.556,0,0,0-.441-1.692C237.452,142.779,234.536,144.213,231.106,144.213Z" transform="translate(-189.408 -114.338)" fill="#e5d6be"/>
  <path id="Path_30751" data-name="Path 30751" d="M148.745,24.476a23.211,23.211,0,0,0-6.752-13.26,36.7,36.7,0,0,0-13.885-8.559A47.461,47.461,0,0,0,104.721.633,43.44,43.44,0,0,0,81.884,11.94a35.892,35.892,0,0,0-6.6,8.614,1.409,1.409,0,1,0,2.462,1.37,33.071,33.071,0,0,1,6.08-7.941A40.63,40.63,0,0,1,105.186,3.412a44.6,44.6,0,0,1,21.977,1.9,33.88,33.88,0,0,1,12.82,7.879,20.425,20.425,0,0,1,5.967,11.644c.922,7.2-.159,12.438-3.4,16.478-2.878,3.587-7.184,5.94-12.765,8.371a1.409,1.409,0,1,0,1.125,2.583c6.22-2.709,12-5.749,15.309-11.276-.487,11.172-8.052,14.654-17.535,19.016a98.31,98.31,0,0,0-10.25,5.22c-3.457,2.1-5.226,7.135-7.1,12.461-.66,1.875-1.342,3.814-2.1,5.639a1.409,1.409,0,0,0,2.6,1.086c.793-1.9,1.489-3.877,2.162-5.79,1.7-4.839,3.31-9.409,5.907-10.989a96.151,96.151,0,0,1,9.963-5.068c9.9-4.554,19.251-8.854,19.2-22.852,0-.029,0-.058,0-.087V30.311a37.691,37.691,0,0,0-.32-5.835Z" transform="translate(-69.077 0)" fill="#00000b"/>
  <path id="Path_30752" data-name="Path 30752" d="M82.737,195.6a1.41,1.41,0,0,0-1.951.41c-2.044,3.13-4.389,4.749-7.381,5.1a19.008,19.008,0,0,1-15.272-4.858c-4.5-3.951-7.989-10.105-10.07-17.358a32.22,32.22,0,0,0,6.595,9.644,18.055,18.055,0,0,0,8.912,4.913,15.873,15.873,0,0,0,3.2.323,18.978,18.978,0,0,0,7.6-1.69c6.149-2.68,7.24-7.5,8.295-12.159,1.21-5.344,2.461-10.87,11.129-14.982,2-.949,4.038-1.819,5.942-2.618a1.41,1.41,0,0,0-1.091-2.6c-1.935.812-4.007,1.7-6.059,2.67-9.908,4.7-11.44,11.468-12.672,16.907-1.023,4.518-1.83,8.087-6.671,10.2a15,15,0,0,1-9.1,1.189,15.288,15.288,0,0,1-7.521-4.182c-4.952-4.771-8.621-13.107-10.068-22.87A57.491,57.491,0,0,1,49.4,134.68a1.41,1.41,0,0,0-2.625-1.03,57.815,57.815,0,0,0-3.714,21.964l.028,8.412a1.387,1.387,0,0,0,.009.151c.223,14.145,5.265,27.233,13.173,34.184a22.017,22.017,0,0,0,14.759,5.7,23.433,23.433,0,0,0,2.7-.157c3.834-.444,6.915-2.522,9.417-6.355a1.41,1.41,0,0,0-.41-1.951Z" transform="translate(-43.051 -107.887)" fill="#00000b"/>
  <path id="Path_30753" data-name="Path 30753" d="M225.041,128.087c5.2,0,9.268-2.87,9.268-6.535s-4.071-6.535-9.268-6.535-9.268,2.87-9.268,6.535,4.071,6.535,9.268,6.535Zm0-10.249c3.435,0,6.448,1.736,6.448,3.715s-3.013,3.714-6.448,3.714-6.448-1.736-6.448-3.714S221.606,117.838,225.041,117.838Z" transform="translate(-183.339 -93.417)" fill="#00000b"/>
</svg>
