<svg id="rice-bowl" xmlns="http://www.w3.org/2000/svg" width="80" height="93.025" viewBox="0 0 80 93.025">
  <g id="Group_50531" data-name="Group 50531" transform="translate(1.365 1.366)">
    <path id="Path_30388" data-name="Path 30388" d="M331.529,24.041l3.87-13.587a1.682,1.682,0,0,0-1.2-2.09l-3.154-.805a1.681,1.681,0,0,0-2.056,1.258l-5.882,26.005-2.9,13.122h3.223Z" transform="translate(-269.799 -7.506)" fill="#fedba6"/>
    <path id="Path_30389" data-name="Path 30389" d="M311.86,39.319,330.7,12.337a1.682,1.682,0,0,0-.454-2.367L327.53,8.18a1.681,1.681,0,0,0-2.354.519l-16.66,26.893L300.57,49.75l3.573,1.336Z" transform="translate(-253.737 -7.831)" fill="#fee8c7"/>
    <path id="Path_30390" data-name="Path 30390" d="M125.744,131.179l-.338-1.612a6.056,6.056,0,0,0-4.3-4.592l-.071-.02a1.866,1.866,0,0,1-1.249-1.15,6.057,6.057,0,0,0-5.681-3.957l-.742-1.721a6.057,6.057,0,0,0-5.561-3.657h-.147a2.552,2.552,0,0,1-2.393-1.665,6.057,6.057,0,0,0-5.789-3.951,2.4,2.4,0,0,1-1.7-.664l-1.606-1.533a6.058,6.058,0,0,0-8.367,0l-1.606,1.533a2.4,2.4,0,0,1-1.7.664,6.057,6.057,0,0,0-5.789,3.951,2.552,2.552,0,0,1-2.393,1.665h-.147a6.057,6.057,0,0,0-5.561,3.657l-.742,1.721a6.057,6.057,0,0,0-5.681,3.957,1.866,1.866,0,0,1-1.249,1.15l-.071.02a6.056,6.056,0,0,0-4.3,4.592l-.338,1.612v9.028h67.524Z" transform="translate(-55.502 -87.237)" fill="#faf7f7"/>
    <path id="Path_30391" data-name="Path 30391" d="M66.671,134.967l.338-1.612a6.056,6.056,0,0,1,4.3-4.592l.071-.02a1.866,1.866,0,0,0,1.249-1.15,6.056,6.056,0,0,1,5.68-3.956l.742-1.721a6.055,6.055,0,0,1,5.56-3.657h.146a2.551,2.551,0,0,0,2.393-1.665,6.056,6.056,0,0,1,5.788-3.951,2.4,2.4,0,0,0,1.7-.664l1.605-1.533a6.04,6.04,0,0,1,3.189-1.591,2.411,2.411,0,0,1-1.67-.665l-1.605-1.534a6.056,6.056,0,0,0-8.366,0l-1.605,1.534a2.4,2.4,0,0,1-1.7.664A6.056,6.056,0,0,0,78.7,112.8,2.552,2.552,0,0,1,76.3,114.47h-.146a6.056,6.056,0,0,0-5.56,3.657l-.742,1.721a6.056,6.056,0,0,0-5.68,3.956,1.866,1.866,0,0,1-1.249,1.15l-.071.02a6.056,6.056,0,0,0-4.3,4.592l-.338,1.612v9.028h8.452v-5.238Z" transform="translate(-55.501 -87.236)" fill="#f9f3f1"/>
    <path id="Path_30392" data-name="Path 30392" d="M179.664,412.915a3.218,3.218,0,0,1-3.218,3.218H146.232a3.218,3.218,0,0,1-3.218-3.218V396.673h36.65Z" transform="translate(-124.86 -325.839)" fill="#c8effe"/>
    <g id="Group_50530" data-name="Group 50530" transform="translate(0 43.951)">
      <g id="XMLID_160_" transform="translate(0 0)">
        <g id="Group_50529" data-name="Group 50529">
          <path id="Path_30393" data-name="Path 30393" d="M116.245,250.756v7.936a29.629,29.629,0,0,1-29.633,29.627H72.918a29.629,29.629,0,0,1-29.633-29.627v-7.936a1.809,1.809,0,0,1,1.807-1.809h69.345A1.809,1.809,0,0,1,116.245,250.756Z" transform="translate(-43.285 -248.947)" fill="#c8effe"/>
        </g>
      </g>
      <path id="Path_30394" data-name="Path 30394" d="M97.76,285.754h-13.7a29.63,29.63,0,0,1-29.634-29.627v-7.181H45.092a1.809,1.809,0,0,0-1.807,1.809v7.936a29.63,29.63,0,0,0,29.634,29.627h13.7a29.535,29.535,0,0,0,12.113-2.581C98.407,285.747,98.084,285.754,97.76,285.754Z" transform="translate(-43.285 -248.946)" fill="#99e6fc"/>
    </g>
  </g>
  <g id="Group_50532" data-name="Group 50532" transform="translate(0 0)">
    <path id="Path_30395" data-name="Path 30395" d="M224.15,207.2a3.167,3.167,0,0,1,3.779-.187l.4.267a1.365,1.365,0,0,0,1.512-2.273l-.4-.267a5.883,5.883,0,0,0-7.019.347,1.365,1.365,0,0,0,1.729,2.113Z" transform="translate(-188.043 -166.66)" fill="#00000b"/>
    <path id="Path_30396" data-name="Path 30396" d="M271.755,170.9a1.541,1.541,0,0,1,1.839-.091l.257.171a1.365,1.365,0,1,0,1.512-2.273l-.257-.171a4.257,4.257,0,0,0-5.08.251,1.365,1.365,0,1,0,1.729,2.113Z" transform="translate(-226.983 -137.274)" fill="#00000b"/>
    <path id="Path_30397" data-name="Path 30397" d="M322.43,207.029a1.541,1.541,0,0,1,1.839-.091l.257.171a1.365,1.365,0,1,0,1.511-2.273l-.256-.171a4.257,4.257,0,0,0-5.08.251,1.365,1.365,0,0,0,1.729,2.113Z" transform="translate(-268.434 -166.824)" fill="#00000b"/>
    <path id="Path_30398" data-name="Path 30398" d="M184.845,171.211a1.359,1.359,0,0,0,.755-.229l.257-.171a1.542,1.542,0,0,1,1.839.091,1.365,1.365,0,1,0,1.728-2.113,4.257,4.257,0,0,0-5.08-.251l-.257.171a1.365,1.365,0,0,0,.757,2.5Z" transform="translate(-156.597 -137.273)" fill="#00000b"/>
    <path id="Path_30399" data-name="Path 30399" d="M134.171,207.338a1.359,1.359,0,0,0,.755-.229l.257-.171a1.541,1.541,0,0,1,1.839.091,1.365,1.365,0,0,0,1.729-2.113,4.257,4.257,0,0,0-5.079-.251l-.257.171a1.365,1.365,0,0,0,.757,2.5Z" transform="translate(-115.147 -166.825)" fill="#00000b"/>
    <path id="Path_30400" data-name="Path 30400" d="M115.727,4.336a3.023,3.023,0,0,0-1.317-1.971l-2.72-1.79a3.047,3.047,0,0,0-4.265.94l-4.553,7.35,1.19-4.178A3.047,3.047,0,0,0,101.885.9L98.731.1a3.047,3.047,0,0,0-3.725,2.28l-1,4.4a1.365,1.365,0,0,0,2.663.6l1-4.4a.317.317,0,0,1,.387-.237l3.155.805a.317.317,0,0,1,.226.394L97.618,17.347l-5.04,8.136,2.81-12.422a1.365,1.365,0,0,0-2.663-.6L89.383,27.234H89.3a1.192,1.192,0,0,1-1.113-.775,7.424,7.424,0,0,0-7.093-4.843,1.023,1.023,0,0,1-.734-.286L78.754,19.8a7.41,7.41,0,0,0-10.253,0L66.9,21.33a1.031,1.031,0,0,1-.734.286,7.425,7.425,0,0,0-7.093,4.843,1.192,1.192,0,0,1-1.113.775h-.147a7.416,7.416,0,0,0-6.815,4.482l-.412.955a7.456,7.456,0,0,0-6.039,4.791.5.5,0,0,1-.337.309l-.07.019a7.4,7.4,0,0,0-5.269,5.627l-.112.537a3.175,3.175,0,0,0-2.973,3.163v7.937A31.041,31.041,0,0,0,53.935,83.263v5.177a4.589,4.589,0,0,0,4.584,4.584H88.737a4.589,4.589,0,0,0,4.584-4.584V83.262a30.9,30.9,0,0,0,7.036-4.426A1.365,1.365,0,1,0,98.6,76.742a28.294,28.294,0,0,1-18.13,6.581H66.781A28.3,28.3,0,0,1,38.513,55.055v-.716h48.9a1.365,1.365,0,0,0,0-2.73h-48.9V47.118a.444.444,0,0,1,.443-.443H45.6a1.365,1.365,0,1,0,0-2.73H41.548a4.675,4.675,0,0,1,3.324-3.525l.07-.019A3.24,3.24,0,0,0,47.1,38.408a4.71,4.71,0,0,1,4.4-3.065,1.365,1.365,0,0,0,1.253-.824L53.5,32.8a4.688,4.688,0,0,1,4.308-2.833h.147a3.933,3.933,0,0,0,3.673-2.557,4.693,4.693,0,0,1,4.484-3.061A3.753,3.753,0,0,0,68.782,23.3l1.605-1.534a4.684,4.684,0,0,1,6.481,0L78.474,23.3a3.751,3.751,0,0,0,2.669,1.042,4.7,4.7,0,0,1,4.484,3.061A3.933,3.933,0,0,0,89.3,29.964h.147A4.688,4.688,0,0,1,93.754,32.8l.742,1.721a1.365,1.365,0,0,0,1.253.824,4.71,4.71,0,0,1,4.4,3.065,3.239,3.239,0,0,0,2.161,1.992l.072.02a4.675,4.675,0,0,1,3.323,3.524H51.418a1.365,1.365,0,0,0,0,2.73H108.3a.444.444,0,0,1,.443.443v4.491H93.372a1.365,1.365,0,1,0,0,2.73h15.37v.716A27.955,27.955,0,0,1,102.5,72.776a1.365,1.365,0,1,0,2.126,1.713,31.074,31.074,0,0,0,6.85-19.434V47.118a3.175,3.175,0,0,0-2.973-3.163l-.112-.537a7.4,7.4,0,0,0-5.268-5.627l-.072-.02a.5.5,0,0,1-.335-.309,7.453,7.453,0,0,0-5.688-4.734l18.21-26.073a3.023,3.023,0,0,0,.494-2.318ZM80.474,86.054a31.005,31.005,0,0,0,10.117-1.7v4.089A1.856,1.856,0,0,1,88.737,90.3H58.519a1.856,1.856,0,0,1-1.854-1.854V84.357a30.867,30.867,0,0,0,10.117,1.7H80.474ZM112.995,5.092,95.421,30.255a7.409,7.409,0,0,0-1.6-1.592l15.927-25.71a.317.317,0,0,1,.444-.1l2.72,1.79a.317.317,0,0,1,.086.446Z" transform="translate(-35.783 0)" fill="#00000b"/>
  </g>
</svg>
