<svg id="vegetable" xmlns="http://www.w3.org/2000/svg" width="80" height="80" viewBox="0 0 80 80">
  <g id="Group_50536" data-name="Group 50536" transform="translate(1.292 1.292)">
    <g id="Group_50535" data-name="Group 50535" transform="translate(36.072 29.653)">
      <path id="Path_30427" data-name="Path 30427" d="M64.917,39.147V41.86A16.542,16.542,0,0,1,59.684,53.9l-5.026-.762a17.3,17.3,0,0,0,2.506-8.966V39.419a17.307,17.307,0,0,0-1.757-7.6,16.453,16.453,0,0,0-3.4-4.664l.013-.013A4.138,4.138,0,0,1,55.666,25a4.193,4.193,0,0,1,2.481.814A16.585,16.585,0,0,1,64.917,39.147Z" transform="translate(-23.573 -25)" fill="#fcd770"/>
      <path id="Path_30428" data-name="Path 30428" d="M52.837,25.827a12.522,12.522,0,0,1,1.512,1.331,16.449,16.449,0,0,1,3.4,4.664,17.306,17.306,0,0,1,1.757,7.6v4.754A17.3,17.3,0,0,1,57,53.14l-12.119-1.86v-.013A27.124,27.124,0,0,1,44,44.419V39.173a27.511,27.511,0,0,1,.53-5.349,9.367,9.367,0,0,0,2.054.22c2.855,0,5.168-1.163,5.168-2.584,0-.917-.956-1.718-2.39-2.171l.388-4.238A3.531,3.531,0,0,1,50.4,25,4.063,4.063,0,0,1,52.837,25.827Z" transform="translate(-25.912 -25)" fill="#fcd770"/>
      <path id="Path_30429" data-name="Path 30429" d="M41.331,25.556a4.1,4.1,0,0,1,1.615,1.667v.013a16.9,16.9,0,0,0-5.194,12.184v4.755a16.879,16.879,0,0,0,.93,5.517l-7.248-1.111A16.5,16.5,0,0,1,30,41.86V39.147a16.475,16.475,0,0,1,.258-2.881c.052-.271.1-.543.168-.814a16.658,16.658,0,0,1,6.344-9.638A4.193,4.193,0,0,1,39.251,25,4.107,4.107,0,0,1,41.331,25.556Z" transform="translate(-30 -25)" fill="#fcd770"/>
      <path id="Path_30430" data-name="Path 30430" d="M45.754,25.026l.388,4.264c-1.434.452-2.39,1.253-2.39,2.171,0,1.059,1.279,1.964,3.114,2.364a27.507,27.507,0,0,0-.53,5.349v5.245a27.123,27.123,0,0,0,.879,6.848L39.1,50.026l-2.17-.336A16.882,16.882,0,0,1,36,44.173V39.419a16.9,16.9,0,0,1,5.194-12.183v-.013a15.346,15.346,0,0,1,1.641-1.4A4.254,4.254,0,0,1,45.341,25a3.906,3.906,0,0,1,.4.026Z" transform="translate(-28.248 -25)" fill="#fcd770"/>
    </g>
    <path id="Path_30431" data-name="Path 30431" d="M52.336,34.088c0,1.421-2.313,2.584-5.168,2.584a9.36,9.36,0,0,1-2.054-.22c-1.835-.4-3.114-1.3-3.114-2.364,0-.917.956-1.718,2.39-2.171L44,27.654l-.7-7.61a2.917,2.917,0,0,1-.013-.336A3.7,3.7,0,0,1,47,16h.336a3.705,3.705,0,0,1,3.708,3.708,2.935,2.935,0,0,1-.013.336l-.7,7.636-.388,4.238C51.38,32.37,52.336,33.171,52.336,34.088Z" transform="translate(9.6 2.055)" fill="#cf9e76"/>
    <path id="Path_30432" data-name="Path 30432" d="M29.723,7.336a6.363,6.363,0,0,1,1.408-.168A6.436,6.436,0,0,1,36.3,9.752l-.026.129a5.848,5.848,0,0,0-1.266-.129,6.445,6.445,0,0,0-5.943,3.928c-.168-.013-.336-.052-.517-.052a6.455,6.455,0,0,0-6.37,5.517A9.039,9.039,0,0,0,20.589,35.9,6.382,6.382,0,0,0,19.5,39.468a6.455,6.455,0,0,0,3.023,5.452,6.457,6.457,0,0,0,6.021,8.8c-.336-.026-.659-.039-.982-.039h-.31a12.828,12.828,0,0,0-6.86,1.977L16.92,45.928a6.425,6.425,0,0,1-6.021-8.76,6.455,6.455,0,0,1-3.023-5.452A6.382,6.382,0,0,1,8.961,28.15,9.039,9.039,0,0,1,10.55,11.393,6.455,6.455,0,0,1,16.92,5.876c.181,0,.349.039.517.052A6.448,6.448,0,0,1,29.723,7.336Z" transform="translate(-1.416 -2)" fill="#8cc152"/>
    <path id="Path_30433" data-name="Path 30433" d="M44.731,24.15a6.42,6.42,0,0,1,1.86,4.522,6.559,6.559,0,0,1-.245,1.757l-.052.09a4.107,4.107,0,0,0-2.08-.556,4.193,4.193,0,0,0-2.481.814,16.657,16.657,0,0,0-6.344,9.638c-.065.271-.116.543-.168.814a16.478,16.478,0,0,0-.258,2.881v2.713A16.5,16.5,0,0,0,36.4,53.543l-9.5-1.46c-.336-.052-.659-.09-.982-.116a6.457,6.457,0,0,1-6.021-8.8,6.455,6.455,0,0,1-3.023-5.452,6.382,6.382,0,0,1,1.085-3.566A9.039,9.039,0,0,1,19.55,17.393a6.455,6.455,0,0,1,6.37-5.517c.181,0,.349.039.517.052A6.445,6.445,0,0,1,32.38,8a5.849,5.849,0,0,1,1.266.129,6.429,6.429,0,0,1,5.078,5.207,6.363,6.363,0,0,1,1.408-.168,6.45,6.45,0,0,1,4.6,10.982Z" transform="translate(1.178 -0.248)" fill="#b4dd7f"/>
    <path id="Path_30434" data-name="Path 30434" d="M8.2,50h6.977a13.05,13.05,0,0,0,0,5.168H4.584A2.6,2.6,0,0,1,2,52.584,2.592,2.592,0,0,1,4.584,50Z" transform="translate(-2 11.912)" fill="#b4dd7f"/>
    <path id="Path_30435" data-name="Path 30435" d="M7.829,46.052l7.687,1.718a12.835,12.835,0,0,0-1.214,3.4H7.326A2.332,2.332,0,0,1,5,48.842v-.517A2.332,2.332,0,0,1,7.326,46,2.228,2.228,0,0,1,7.829,46.052Z" transform="translate(-1.124 10.766)" fill="#b4dd7f"/>
    <path id="Path_30436" data-name="Path 30436" d="M15.517,57.4,7.829,59.116a2.222,2.222,0,0,1-.5.052A2.333,2.333,0,0,1,5,56.842v-.517A2.332,2.332,0,0,1,7.326,54H14.3A12.836,12.836,0,0,0,15.517,57.4Z" transform="translate(-1.124 13.08)" fill="#b4dd7f"/>
    <path id="Path_30437" data-name="Path 30437" d="M75.152,50.992A6.028,6.028,0,0,0,71.5,48.964l-.129-.026-5.026-.762-12.119-1.86V46.3l-8.114-1.24-2.171-.336L36.69,43.615l-9.5-1.46c-.336-.052-.659-.09-.982-.116S25.553,42,25.23,42h-.31A12.955,12.955,0,0,0,12.258,52.336a13.049,13.049,0,0,0,0,5.168,12.835,12.835,0,0,0,1.214,3.4A12.91,12.91,0,0,0,24.92,67.84h.31a12.692,12.692,0,0,0,1.964-.155l18.915-2.907,25.388-3.9a6.035,6.035,0,0,0,3.656-9.884Z" transform="translate(0.817 9.576)" fill="#ff826e"/>
  </g>
  <g id="Group_50537" data-name="Group 50537" transform="translate(0 0)">
    <path id="Path_30438" data-name="Path 30438" d="M81,46.1a17.928,17.928,0,0,0-7.286-14.351,5.49,5.49,0,0,0-3.246-1.067,5.432,5.432,0,0,0-3.821,1.572c-.187-.156-.357-.328-.551-.476a5.366,5.366,0,0,0-2.458-1.006l.569-6.257c.013-.15.019-.3.019-.452a5,5,0,0,0-4.994-4.994H58.9A5,5,0,0,0,53.9,24.058c0,.151.006.3.021.453l.572,6.284a5.524,5.524,0,0,0-2.277.969c-.231.173-.436.372-.658.554-.115-.119-.236-.23-.361-.337a7.54,7.54,0,0,0-1.334-5.819A7.737,7.737,0,0,0,43.13,13.917,7.709,7.709,0,0,0,38,9.063a7.635,7.635,0,0,0-6.479-2.888,7.732,7.732,0,0,0-14-1.3A7.777,7.777,0,0,0,10.3,10.686,10.312,10.312,0,0,0,8.1,28.881a7.706,7.706,0,0,0,2.16,9.03,7.472,7.472,0,0,0-.223,1.8A7.755,7.755,0,0,0,16.845,47.4L19.7,55.39a14.267,14.267,0,0,0-3.666,3.974l-6.76-1.5a3.5,3.5,0,0,0-.787-.088A3.62,3.62,0,0,0,4.871,61.39V61.9a3.575,3.575,0,0,0,.169,1.035H4.871a3.871,3.871,0,0,0,0,7.742H5.04a3.576,3.576,0,0,0-.169,1.035v.511a3.62,3.62,0,0,0,3.615,3.615,3.531,3.531,0,0,0,.785-.086l6.763-1.5A14.183,14.183,0,0,0,28.1,81h.3a14.25,14.25,0,0,0,2.157-.165L74.8,74.028a7.291,7.291,0,0,0,2.012-13.8A17.846,17.846,0,0,0,81,48.808ZM64.526,33.823a15.863,15.863,0,0,1,6.151,12.55v4.739a15.931,15.931,0,0,1-1.9,7.546L58.428,57.066a25.729,25.729,0,0,1-.654-5.7V46.123a25.689,25.689,0,0,1,.328-3.888c.316.027.631.055.963.055,3.679,0,6.452-1.665,6.452-3.871a3.509,3.509,0,0,0-2.3-3.009l.19-2.088a2.7,2.7,0,0,1,1.123.5ZM58.9,21.645h.337a2.416,2.416,0,0,1,2.413,2.413,2.062,2.062,0,0,1-.01.219L60.465,37.164l.985.316c1.13.361,1.486.837,1.486.939,0,.321-1.373,1.29-3.871,1.29s-3.871-.969-3.871-1.29c0-.1.356-.578,1.486-.941l.985-.316L56.493,24.277c-.006-.074-.009-.147-.009-.219A2.416,2.416,0,0,1,58.9,21.645Zm-4.168,11.72.186,2.045a3.509,3.509,0,0,0-2.3,3.009c0,1.422,1.16,2.61,2.963,3.281a28.429,28.429,0,0,0-.382,4.422v5.239a28.355,28.355,0,0,0,.5,5.284l-7.606-1.17a15.537,15.537,0,0,1-.636-4.364V46.372a15.718,15.718,0,0,1,6.31-12.541A2.885,2.885,0,0,1,54.729,33.365ZM40.785,54.351a15.006,15.006,0,0,1-1.075-5.543V46.094a15.344,15.344,0,0,1,6.239-12.276,2.908,2.908,0,0,1,1.714-.56,2.851,2.851,0,0,1,2.022.839,18.279,18.279,0,0,0-4.813,12.276v4.739a18.071,18.071,0,0,0,.446,3.937Zm.121-38.769.235,1.328,1.316-.293a5.151,5.151,0,0,1,4.8,8.64l-.888.9.888.9a5.13,5.13,0,0,1,1.481,3.612c0,.039-.008.077-.008.117a5.347,5.347,0,0,0-4.319.948A17.988,17.988,0,0,0,38.964,38.3q-.734-2.284-1.532-4.365A18.3,18.3,0,0,1,43.1,23.941l-.808-1.005-.806-1.008a20.422,20.422,0,0,0-5.63,8.135,80.18,80.18,0,0,0-5.382-10.406l-2.172,1.4a75.946,75.946,0,0,1,4.293,8.076A21.259,21.259,0,0,0,24.1,28.1l.257,2.568c1.941-.195,7.437-.1,10.005,2.52.9,2.223,1.8,4.661,2.583,7.272A21.842,21.842,0,0,0,28.1,38.419V41c.061,0,5.805.039,9.205,2.742a17.425,17.425,0,0,0-.173,2.354v2.714a17.606,17.606,0,0,0,.766,5.1l-7.338-1.129c-.387-.059-.778-.1-1.17-.128a5.155,5.155,0,0,1-4.806-7.035l.377-.987-.894-.565a5.134,5.134,0,0,1-1.556-7.2l.8-1.208L22.018,35a7.733,7.733,0,0,1,1.368-14.337l.8-.23.12-.825a5.173,5.173,0,0,1,5.08-4.412,1.021,1.021,0,0,1,.141.017c.09.013.182.025.274.031l.925.075.364-.854a5.151,5.151,0,0,1,9.815,1.12ZM18.684,44.871h-.91a5.123,5.123,0,0,1-4.806-7l.378-.987-.894-.565a5.133,5.133,0,0,1-1.557-7.2l.8-1.208-1.293-.657a7.733,7.733,0,0,1,1.366-14.337l.8-.23.12-.825a5.176,5.176,0,0,1,5.081-4.412,1.078,1.078,0,0,1,.145.017c.088.012.175.023.266.031l.929.077.365-.858A5.151,5.151,0,0,1,29.293,7.84l.235,1.328,1.316-.293a4.731,4.731,0,0,1,2.821.186,7.725,7.725,0,0,0-4.533,3.556,7.777,7.777,0,0,0-7.217,5.812,10.312,10.312,0,0,0-2.206,18.195,7.708,7.708,0,0,0,2.16,9.031,7.461,7.461,0,0,0-.223,1.8,7.765,7.765,0,0,0,2.52,5.726,14.053,14.053,0,0,0-2.21.852ZM7.452,61.9V61.39a1.052,1.052,0,0,1,1.261-1.01l6.141,1.365c-.15.39-.284.786-.4,1.191H8.486A1.036,1.036,0,0,1,7.452,61.9ZM3.581,66.806a1.292,1.292,0,0,1,1.29-1.29h9.1c-.037.426-.065.854-.065,1.29s.027.865.066,1.29h-9.1A1.292,1.292,0,0,1,3.581,66.806ZM8.71,73.234a1.062,1.062,0,0,1-1.258-1.01v-.511a1.036,1.036,0,0,1,1.035-1.035h5.966c.115.405.25.8.4,1.191Zm69.71-6.427a4.7,4.7,0,0,1-4.006,4.671L30.168,78.284a11.64,11.64,0,0,1-1.768.135h-.3a11.613,11.613,0,0,1,0-23.226h.3a11.774,11.774,0,0,1,1.766.134l44.245,6.806A4.7,4.7,0,0,1,78.419,66.806Zm0-18a15.275,15.275,0,0,1-4.4,10.655l-2.564-.395a18.508,18.508,0,0,0,1.8-7.957V46.372A18.512,18.512,0,0,0,68.51,34.045a2.852,2.852,0,0,1,1.957-.787,2.89,2.89,0,0,1,1.714.563A15.338,15.338,0,0,1,78.419,46.1Z" transform="translate(-1 -1)" fill="#00000b"/>
    <path id="Path_30439" data-name="Path 30439" d="M21,47h2.584V59.92H21Z" transform="translate(4.805 12.328)" fill="#00000b"/>
    <path id="Path_30440" data-name="Path 30440" d="M29,47h2.584V59.92H29Z" transform="translate(7.127 12.328)" fill="#00000b"/>
    <path id="Path_30441" data-name="Path 30441" d="M37,47h2.584V59.92H37Z" transform="translate(9.45 12.328)" fill="#00000b"/>
    <path id="Path_30442" data-name="Path 30442" d="M45,49h2.584v7.752H45Z" transform="translate(11.772 12.912)" fill="#00000b"/>
    <path id="Path_30443" data-name="Path 30443" d="M53,50h2.584v5.168H53Z" transform="translate(14.08 13.204)" fill="#00000b"/>
  </g>
</svg>
